<svg width="200" height="200" viewBox="0 0 200 200" fill="none" xmlns="http://www.w3.org/2000/svg">
<rect width="200" height="200" fill="white"/>
<path d="M92 48.5C92 54.8513 84.165 60 74.5 60C64.835 60 57 54.8513 57 48.5C57 42.1487 64.835 37 74.5 37C84.165 37 92 42.1487 92 48.5Z" fill="#CD940E"/>
<path d="M92 48.5C92 54.8513 84.165 60 74.5 60C64.835 60 57 54.8513 57 48.5C57 42.1487 64.835 37 74.5 37C84.165 37 92 42.1487 92 48.5Z" fill="#CD940E"/>
<path d="M83 118.5C83 124.851 75.165 130 65.5 130C55.835 130 48 124.851 48 118.5C48 112.149 55.835 107 65.5 107C75.165 107 83 112.149 83 118.5Z" fill="#CD940E"/>
<path d="M83 118.5C83 124.851 75.165 130 65.5 130C55.835 130 48 124.851 48 118.5C48 112.149 55.835 107 65.5 107C75.165 107 83 112.149 83 118.5Z" fill="#CD940E"/>
<path d="M51.5874 144.526C46.8961 144.696 42.8483 138.069 42.5465 129.724C42.2447 121.379 45.8031 114.477 50.4944 114.307C55.1858 114.138 59.2336 120.765 59.5354 129.109C59.8372 137.454 56.2788 144.356 51.5874 144.526Z" fill="#CD940E"/>
<path d="M51.5874 144.526C46.8961 144.696 42.8483 138.069 42.5465 129.724C42.2447 121.379 45.8031 114.477 50.4944 114.307C55.1858 114.138 59.2336 120.765 59.5354 129.109C59.8372 137.454 56.2788 144.356 51.5874 144.526Z" fill="#CD940E"/>
<path d="M142.723 151.282C138.032 151.452 133.954 143.984 133.614 134.602C133.275 125.22 136.803 117.477 141.494 117.307C146.186 117.138 150.264 124.606 150.603 133.987C150.943 143.369 147.415 151.112 142.723 151.282Z" fill="#CD940E"/>
<path d="M142.723 151.282C138.032 151.452 133.954 143.984 133.614 134.602C133.275 125.22 136.803 117.477 141.494 117.307C146.186 117.138 150.264 124.606 150.603 133.987C150.943 143.369 147.415 151.112 142.723 151.282Z" fill="#CD940E"/>
<path d="M148.723 150.282C144.032 150.452 139.954 142.984 139.614 133.602C139.275 124.22 142.803 116.477 147.494 116.307C152.186 116.138 156.264 123.606 156.603 132.987C156.943 142.369 153.415 150.112 148.723 150.282Z" fill="#CD940E"/>
<path d="M148.723 150.282C144.032 150.452 139.954 142.984 139.614 133.602C139.275 124.22 142.803 116.477 147.494 116.307C152.186 116.138 156.264 123.606 156.603 132.987C156.943 142.369 153.415 150.112 148.723 150.282Z" fill="#CD940E"/>
<path d="M156.723 150.282C152.032 150.452 147.954 142.984 147.614 133.602C147.275 124.22 150.803 116.477 155.494 116.307C160.186 116.138 164.264 123.606 164.603 132.987C164.943 142.369 161.415 150.112 156.723 150.282Z" fill="#CD940E"/>
<path d="M156.723 150.282C152.032 150.452 147.954 142.984 147.614 133.602C147.275 124.22 150.803 116.477 155.494 116.307C160.186 116.138 164.264 123.606 164.603 132.987C164.943 142.369 161.415 150.112 156.723 150.282Z" fill="#CD940E"/>
<path d="M157.415 158.768C152.724 158.938 148.715 153.376 148.46 146.345C148.206 139.314 151.803 133.477 156.494 133.307C161.186 133.138 165.195 138.7 165.449 145.73C165.704 152.761 162.107 158.598 157.415 158.768Z" fill="#CD940E"/>
<path d="M157.415 158.768C152.724 158.938 148.715 153.376 148.46 146.345C148.206 139.314 151.803 133.477 156.494 133.307C161.186 133.138 165.195 138.7 165.449 145.73C165.704 152.761 162.107 158.598 157.415 158.768Z" fill="#CD940E"/>
<path d="M60.5874 158.526C55.8961 158.696 51.8483 152.069 51.5465 143.724C51.2447 135.379 54.8031 128.477 59.4944 128.307C64.1858 128.138 68.2336 134.765 68.5354 143.109C68.8372 151.454 65.2788 158.356 60.5874 158.526Z" fill="#CD940E"/>
<path d="M60.5874 158.526C55.8961 158.696 51.8483 152.069 51.5465 143.724C51.2447 135.379 54.8031 128.477 59.4944 128.307C64.1858 128.138 68.2336 134.765 68.5354 143.109C68.8372 151.454 65.2788 158.356 60.5874 158.526Z" fill="#CD940E"/>
<path d="M47.184 152.629C46.5301 147.981 52.7031 143.269 60.9719 142.106C69.2406 140.943 76.4739 143.768 77.1278 148.417C77.7818 153.066 71.6087 157.777 63.34 158.94C55.0712 160.104 47.838 157.278 47.184 152.629Z" fill="#CD940E"/>
<path d="M47.184 152.629C46.5301 147.981 52.7031 143.269 60.9719 142.106C69.2406 140.943 76.4739 143.768 77.1278 148.417C77.7818 153.066 71.6087 157.777 63.34 158.94C55.0712 160.104 47.838 157.278 47.184 152.629Z" fill="#CD940E"/>
<path d="M35.184 123.629C34.5301 118.981 40.7031 114.269 48.9719 113.106C57.2406 111.943 64.4739 114.768 65.1278 119.417C65.7818 124.066 59.6087 128.777 51.34 129.94C43.0712 131.104 35.838 128.278 35.184 123.629Z" fill="#CD940E"/>
<path d="M35.184 123.629C34.5301 118.981 40.7031 114.269 48.9719 113.106C57.2406 111.943 64.4739 114.768 65.1278 119.417C65.7818 124.066 59.6087 128.777 51.34 129.94C43.0712 131.104 35.838 128.278 35.184 123.629Z" fill="#CD940E"/>
<path d="M36.184 132.629C35.5301 127.981 41.7031 123.269 49.9719 122.106C58.2406 120.943 65.4739 123.768 66.1278 128.417C66.7818 133.066 60.6087 137.777 52.34 138.94C44.0712 140.104 36.838 137.278 36.184 132.629Z" fill="#CD940E"/>
<path d="M36.184 132.629C35.5301 127.981 41.7031 123.269 49.9719 122.106C58.2406 120.943 65.4739 123.768 66.1278 128.417C66.7818 133.066 60.6087 137.777 52.34 138.94C44.0712 140.104 36.838 137.278 36.184 132.629Z" fill="#CD940E"/>
<path d="M36.184 140.629C35.5301 135.981 41.7031 131.269 49.9719 130.106C58.2406 128.943 65.4739 131.768 66.1278 136.417C66.7818 141.066 60.6087 145.777 52.34 146.94C44.0712 148.104 36.838 145.278 36.184 140.629Z" fill="#CD940E"/>
<path d="M36.184 140.629C35.5301 135.981 41.7031 131.269 49.9719 130.106C58.2406 128.943 65.4739 131.768 66.1278 136.417C66.7818 141.066 60.6087 145.777 52.34 146.94C44.0712 148.104 36.838 145.278 36.184 140.629Z" fill="#CD940E"/>
<path d="M36.184 148.629C35.5301 143.981 41.7031 139.269 49.9719 138.106C58.2406 136.943 65.4739 139.768 66.1278 144.417C66.7818 149.066 60.6087 153.777 52.34 154.94C44.0712 156.104 36.838 153.278 36.184 148.629Z" fill="#CD940E"/>
<path d="M36.184 148.629C35.5301 143.981 41.7031 139.269 49.9719 138.106C58.2406 136.943 65.4739 139.768 66.1278 144.417C66.7818 149.066 60.6087 153.777 52.34 154.94C44.0712 156.104 36.838 153.278 36.184 148.629Z" fill="#CD940E"/>
<path d="M36.184 152.629C35.5301 147.981 41.7031 143.269 49.9719 142.106C58.2406 140.943 65.4739 143.768 66.1278 148.417C66.7818 153.066 60.6087 157.777 52.34 158.94C44.0712 160.104 36.838 157.278 36.184 152.629Z" fill="#CD940E"/>
<path d="M36.184 152.629C35.5301 147.981 41.7031 143.269 49.9719 142.106C58.2406 140.943 65.4739 143.768 66.1278 148.417C66.7818 153.066 60.6087 157.777 52.34 158.94C44.0712 160.104 36.838 157.278 36.184 152.629Z" fill="#CD940E"/>
<path d="M36.2679 156.397C36.4159 153.416 38.0023 151.073 39.8111 151.163C41.62 151.252 42.9664 153.741 42.8185 156.722C42.6705 159.702 41.0842 162.046 39.2753 161.956C37.4664 161.866 36.12 159.377 36.2679 156.397Z" fill="#CD940E"/>
<path d="M36.2679 156.397C36.4159 153.416 38.0023 151.073 39.8111 151.163C41.62 151.252 42.9664 153.741 42.8185 156.722C42.6705 159.702 41.0842 162.046 39.2753 161.956C37.4664 161.866 36.12 159.377 36.2679 156.397Z" fill="#CD940E"/>
<path d="M50.5651 154.832C51.9817 154.373 53.461 155.02 53.8692 156.278C54.2774 157.537 53.4598 158.929 52.0431 159.389C50.6265 159.848 49.1472 159.201 48.739 157.942C48.3308 156.684 49.1484 155.292 50.5651 154.832Z" fill="#CD940E"/>
<path d="M50.5651 154.832C51.9817 154.373 53.461 155.02 53.8692 156.278C54.2774 157.537 53.4598 158.929 52.0431 159.389C50.6265 159.848 49.1472 159.201 48.739 157.942C48.3308 156.684 49.1484 155.292 50.5651 154.832Z" fill="#CD940E"/>
<path d="M48.5651 155.832C49.9817 155.372 51.461 156.02 51.8692 157.278C52.2774 158.537 51.4598 159.929 50.0431 160.389C48.6265 160.848 47.1472 160.201 46.739 158.942C46.3308 157.684 47.1484 156.291 48.5651 155.832Z" fill="#CD940E"/>
<path d="M48.5651 155.832C49.9817 155.372 51.461 156.02 51.8692 157.278C52.2774 158.537 51.4598 159.929 50.0431 160.389C48.6265 160.848 47.1472 160.201 46.739 158.942C46.3308 157.684 47.1484 156.291 48.5651 155.832Z" fill="#CD940E"/>
<path d="M45.5651 155.832C46.9817 155.372 48.461 156.02 48.8692 157.278C49.2774 158.537 48.4598 159.929 47.0431 160.389C45.6265 160.848 44.1472 160.201 43.739 158.942C43.3308 157.684 44.1484 156.291 45.5651 155.832Z" fill="#CD940E"/>
<path d="M45.5651 155.832C46.9817 155.372 48.461 156.02 48.8692 157.278C49.2774 158.537 48.4598 159.929 47.0431 160.389C45.6265 160.848 44.1472 160.201 43.739 158.942C43.3308 157.684 44.1484 156.291 45.5651 155.832Z" fill="#CD940E"/>
<path d="M40.5651 156.832C41.9817 156.373 43.461 157.02 43.8692 158.278C44.2774 159.537 43.4598 160.929 42.0431 161.389C40.6265 161.848 39.1472 161.201 38.739 159.942C38.3308 158.684 39.1484 157.292 40.5651 156.832Z" fill="#CD940E"/>
<path d="M40.5651 156.832C41.9817 156.373 43.461 157.02 43.8692 158.278C44.2774 159.537 43.4598 160.929 42.0431 161.389C40.6265 161.848 39.1472 161.201 38.739 159.942C38.3308 158.684 39.1484 157.292 40.5651 156.832Z" fill="#CD940E"/>
<path d="M43.5651 155.832C44.9817 155.372 46.461 156.02 46.8692 157.278C47.2774 158.537 46.4598 159.929 45.0431 160.389C43.6265 160.848 42.1472 160.201 41.739 158.942C41.3308 157.684 42.1484 156.291 43.5651 155.832Z" fill="#CD940E"/>
<path d="M43.5651 155.832C44.9817 155.372 46.461 156.02 46.8692 157.278C47.2774 158.537 46.4598 159.929 45.0431 160.389C43.6265 160.848 42.1472 160.201 41.739 158.942C41.3308 157.684 42.1484 156.291 43.5651 155.832Z" fill="#CD940E"/>
<path d="M97.5 28.5C97.5 34.8513 89.665 40 80 40C70.335 40 62.5 34.8513 62.5 28.5C62.5 22.1487 70.335 17 80 17C89.665 17 97.5 22.1487 97.5 28.5Z" fill="#CD940E"/>
<path d="M97.5 28.5C97.5 34.8513 89.665 40 80 40C70.335 40 62.5 34.8513 62.5 28.5C62.5 22.1487 70.335 17 80 17C89.665 17 97.5 22.1487 97.5 28.5Z" fill="#CD940E"/>
<path d="M79 60.5C79 66.8513 71.165 72 61.5 72C51.835 72 44 66.8513 44 60.5C44 54.1487 51.835 49 61.5 49C71.165 49 79 54.1487 79 60.5Z" fill="#CD940E"/>
<path d="M79 60.5C79 66.8513 71.165 72 61.5 72C51.835 72 44 66.8513 44 60.5C44 54.1487 51.835 49 61.5 49C71.165 49 79 54.1487 79 60.5Z" fill="#CD940E"/>
<path d="M76 78.5C76 84.8513 68.165 90 58.5 90C48.835 90 41 84.8513 41 78.5C41 72.1487 48.835 67 58.5 67C68.165 67 76 72.1487 76 78.5Z" fill="#CD940E"/>
<path d="M76 78.5C76 84.8513 68.165 90 58.5 90C48.835 90 41 84.8513 41 78.5C41 72.1487 48.835 67 58.5 67C68.165 67 76 72.1487 76 78.5Z" fill="#CD940E"/>
<path d="M104.349 87.9138C81.3465 88.7967 62.0947 73.7718 61.3495 54.3548C60.6042 34.9378 78.6477 18.4815 101.651 17.5986C124.654 16.7157 143.905 31.7406 144.651 51.1576C145.396 70.5746 127.352 87.0309 104.349 87.9138Z" fill="#CD940E"/>
<path d="M104.349 87.9138C81.3465 88.7967 62.0947 73.7718 61.3495 54.3548C60.6042 34.9378 78.6477 18.4815 101.651 17.5986C124.654 16.7157 143.905 31.7406 144.651 51.1576C145.396 70.5746 127.352 87.0309 104.349 87.9138Z" fill="#CD940E"/>
<path d="M114.349 105.914C91.3465 106.797 72.0947 91.7718 71.3495 72.3548C70.6042 52.9378 88.6477 36.4815 111.651 35.5986C134.654 34.7157 153.905 49.7406 154.651 69.1576C155.396 88.5746 137.352 105.031 114.349 105.914Z" fill="#CD940E"/>
<path d="M114.349 105.914C91.3465 106.797 72.0947 91.7718 71.3495 72.3548C70.6042 52.9378 88.6477 36.4815 111.651 35.5986C134.654 34.7157 153.905 49.7406 154.651 69.1576C155.396 88.5746 137.352 105.031 114.349 105.914Z" fill="#CD940E"/>
<path d="M112.349 130.914C89.3465 131.797 70.0947 116.772 69.3495 97.3548C68.6042 77.9378 86.6477 61.4815 109.651 60.5986C132.654 59.7157 151.905 74.7406 152.651 94.1576C153.396 113.575 135.352 130.031 112.349 130.914Z" fill="#CD940E"/>
<path d="M112.349 130.914C89.3465 131.797 70.0947 116.772 69.3495 97.3548C68.6042 77.9378 86.6477 61.4815 109.651 60.5986C132.654 59.7157 151.905 74.7406 152.651 94.1576C153.396 113.575 135.352 130.031 112.349 130.914Z" fill="#CD940E"/>
<path d="M100.349 175.914C77.3465 176.797 58.0947 161.772 57.3495 142.355C56.6042 122.938 74.6477 106.482 97.6507 105.599C120.654 104.716 139.905 119.741 140.651 139.158C141.396 158.575 123.352 175.031 100.349 175.914Z" fill="#CD940E"/>
<path d="M100.349 175.914C77.3465 176.797 58.0947 161.772 57.3495 142.355C56.6042 122.938 74.6477 106.482 97.6507 105.599C120.654 104.716 139.905 119.741 140.651 139.158C141.396 158.575 123.352 175.031 100.349 175.914Z" fill="#CD940E"/>
<path d="M60.8339 113.415C54.4873 113.659 49.0418 106.027 48.6711 96.3693C48.3005 86.7114 53.1449 78.6847 59.4915 78.4411C65.8381 78.1975 71.2835 85.8293 71.6542 95.4871C72.0249 105.145 67.1805 113.172 60.8339 113.415Z" fill="#CD940E"/>
<path d="M60.8339 113.415C54.4873 113.659 49.0418 106.027 48.6711 96.3693C48.3005 86.7114 53.1449 78.6847 59.4915 78.4411C65.8381 78.1975 71.2835 85.8293 71.6542 95.4871C72.0249 105.145 67.1805 113.172 60.8339 113.415Z" fill="#CD940E"/>
<path d="M38.1993 118.599C37.537 118.198 37.39 117.229 37.8709 116.436C38.3519 115.643 39.2788 115.326 39.9411 115.727C40.6035 116.129 40.7505 117.098 40.2695 117.891C39.7885 118.684 38.8616 119.001 38.1993 118.599Z" fill="#CD940E"/>
<path d="M38.1993 118.599C37.537 118.198 37.39 117.229 37.8709 116.436C38.3519 115.643 39.2788 115.326 39.9411 115.727C40.6035 116.129 40.7505 117.098 40.2695 117.891C39.7885 118.684 38.8616 119.001 38.1993 118.599Z" fill="#CD940E"/>
<path d="M40.8036 117.442C39.497 117.173 38.5892 116.219 38.776 115.311C38.9629 114.402 40.1735 113.884 41.4801 114.152C42.7867 114.421 43.6945 115.375 43.5077 116.284C43.3209 117.192 42.1102 117.711 40.8036 117.442Z" fill="#CD940E"/>
<path d="M40.8036 117.442C39.497 117.173 38.5892 116.219 38.776 115.311C38.9629 114.402 40.1735 113.884 41.4801 114.152C42.7867 114.421 43.6945 115.375 43.5077 116.284C43.3209 117.192 42.1102 117.711 40.8036 117.442Z" fill="#CD940E"/>
<path d="M169.367 118.29C166.427 117.424 163.474 116.598 160.52 115.779C158.982 115.352 157.423 115.002 155.89 114.559C154.906 114.275 154.73 114.058 155.38 113.2C155.947 112.453 155.9 111.951 155.378 111.176C154.44 109.782 154.466 108.25 155.763 107.081C156.295 106.601 156.82 106.112 157.369 105.651C157.92 105.188 158.167 104.518 157.779 103.755C157.626 103.455 157.472 103.154 157.295 102.867C156.919 102.258 156.884 101.655 157.264 101.035C157.374 100.856 157.463 100.663 157.579 100.444C157.883 100.626 158.177 100.811 158.48 100.981C159.798 101.72 161.216 102.065 162.719 101.914C163.874 101.798 164.907 101.335 165.801 100.574C167.268 99.3238 167.95 97.679 168.292 95.831C168.61 94.1097 168.495 92.4369 167.726 90.8714C166.656 88.6913 164.849 87.4124 162.476 86.9595C161.703 86.8119 160.909 86.7592 160.121 86.7004C159.619 86.6629 159.111 86.7174 158.608 86.6869C158.231 86.664 157.941 86.3383 157.956 85.9495C157.991 84.9844 158.057 84.0205 158.114 83.0563C158.14 82.6169 158.18 82.1783 158.204 81.7389C158.265 80.646 158.32 79.5528 158.379 78.4599C158.465 76.8845 158.557 75.3095 158.637 73.7339C158.701 72.4684 158.767 71.2027 158.805 69.9362C158.874 67.6672 158.937 65.3978 158.978 63.1282C159.021 60.7104 159.061 58.292 159.056 55.8739C159.054 54.6512 159.01 53.4223 158.881 52.2073C158.638 49.9172 157.863 47.848 156.41 45.9981C155.393 44.7043 154.611 43.2258 153.726 41.829C153.307 41.1681 153.003 40.3664 152.112 40.2107C151.6 40.1211 151.056 40.0964 150.54 40.159C149.31 40.3083 148.095 40.3416 146.861 40.1619C145.891 40.0207 144.973 39.7645 144.08 39.3723C142.982 38.8905 142.059 38.1682 141.293 37.2719C140.148 35.9312 139.359 34.3761 138.915 32.6736C138.576 31.3731 138.27 30.0541 138.092 28.7242C137.888 27.1951 137.822 25.6462 137.733 24.1037C137.67 23.021 137.649 21.9347 137.647 20.85C137.645 19.9518 137.693 19.0534 137.727 18.1553C137.79 16.4429 137.081 16.0658 135.82 15.7164C134.242 15.2789 132.644 14.9049 131.041 14.5658C129.983 14.3421 128.902 14.2244 127.831 14.0661C126.869 13.9242 125.908 13.7839 124.945 13.6576C124.147 13.553 123.346 13.4694 122.547 13.3771C121.594 13.2671 120.641 13.1525 119.687 13.0497C119.026 12.9785 118.364 12.9215 117.702 12.862C116.419 12.7467 115.136 12.6322 113.853 12.5214C113.429 12.4848 113.004 12.4533 112.579 12.4324C111.328 12.3709 110.077 12.3115 108.825 12.2592C107.302 12.1956 105.779 12.1408 104.255 12.0779C104.196 12.0754 104.138 12.027 104.079 12C100.063 12 96.0472 12 92.0314 12C91.9733 12.0289 91.9158 12.0814 91.8569 12.0831C90.7005 12.1156 89.5431 12.122 88.3878 12.1751C87.0263 12.2378 85.6666 12.3397 84.3062 12.4248C83.8245 12.455 83.3425 12.4793 82.8614 12.5174C81.4784 12.6267 80.0956 12.7405 78.713 12.8547C77.6683 12.941 76.6221 13.0131 75.58 13.1232C74.43 13.2447 73.2835 13.4001 72.1361 13.5451C71.0166 13.6865 69.8938 13.8086 68.7797 13.9845C67.49 14.1882 66.1922 14.3767 64.9269 14.6893C63.3653 15.075 61.8203 15.5424 60.2935 16.0507C59.3389 16.3684 58.4196 16.8023 57.5058 17.2297C56.8027 17.5585 56.4193 18.4144 56.5915 19.1604C56.9918 20.8946 57.3145 22.639 57.3538 24.425C57.3818 25.6962 57.4878 26.9715 57.4216 28.2377C57.2811 30.9265 57.0652 33.6109 56.0716 36.1615C55.5104 37.6022 54.7839 38.9347 53.7979 40.1359C52.7025 41.4705 51.376 42.4559 49.7351 42.9875C47.8729 43.5909 46.0336 43.3981 44.2267 42.7272C43.7795 42.5612 43.3523 42.3414 42.9047 42.177C42.571 42.0545 42.2431 42.0474 41.9871 42.3808C40.9943 43.6737 39.9595 44.94 39.2455 46.419C38.6579 47.6363 38.2967 48.9093 38.327 50.2849C38.3584 51.704 38.3231 53.1244 38.3376 54.544C38.3487 55.6286 38.382 56.7133 38.4238 57.7973C38.4688 58.963 38.528 60.1283 38.5943 61.293C38.6726 62.6682 38.7587 64.043 38.8534 65.4171C38.9296 66.5206 39.0111 67.6239 39.113 68.7252C39.242 70.1193 39.4001 71.5106 39.5341 72.9042C39.6316 73.9193 39.6928 74.9381 39.802 75.9518C39.9228 77.0741 40.0863 78.1916 40.219 79.3127C40.3452 80.3795 40.4402 81.4501 40.5767 82.5155C40.7595 83.9414 40.9703 85.3636 41.1663 86.7878C41.2298 87.2491 41.2932 87.7107 41.3412 88.1737C41.4075 88.812 41.055 89.0964 40.4129 89.0344C37.9339 88.795 35.4867 88.8738 33.2116 90.0471C31.3983 90.9822 30.2903 92.465 29.8941 94.4849C29.5675 96.1494 29.7719 97.7566 30.4837 99.2638C31.4749 101.362 33.1549 102.6 35.473 102.964C37.2197 103.239 38.835 102.874 40.3781 102.071C40.5895 101.961 40.8028 101.855 41.0264 101.741C41.3414 102.04 41.0787 102.343 41.0307 102.613C40.9704 102.952 40.7951 103.269 40.6799 103.599C40.1829 105.024 40.5724 105.444 41.5873 106.301C42.6395 107.189 43.7724 107.98 44.8506 108.839C45.4484 109.315 45.448 109.76 44.9264 110.353C44.7305 110.576 44.5349 110.801 44.3616 111.041C43.7737 111.855 43.7792 112.71 44.2338 113.63C43.3778 113.688 42.5363 113.737 41.6963 113.803C40.7237 113.88 39.7497 113.951 38.7812 114.066C37.9172 114.168 37.4578 114.927 37.6684 115.825C37.8669 116.67 37.6003 117.315 36.8023 117.659C35.5281 118.208 34.229 118.699 32.9401 119.213C31.3534 119.846 29.7663 120.479 28.1789 121.111C28.1538 121.121 28.1223 121.114 28.0938 121.116C28.0938 121.173 28.0938 121.23 28.0938 121.288C28.7818 121.689 29.4912 122.058 30.1521 122.5C30.8991 122.999 31.6747 123.491 32.3093 124.116C33.4319 125.221 34.0739 126.598 34.0233 128.208C33.9742 129.77 33.86 131.331 33.7688 132.892C33.7183 133.757 33.639 134.62 33.6035 135.485C33.5339 137.181 33.4752 138.877 33.4353 140.573C33.423 141.097 33.5052 141.623 33.5116 142.148C33.532 143.839 33.2814 145.499 32.9448 147.153C32.7849 147.938 32.7121 148.746 32.662 149.548C32.5519 151.309 32.4819 153.072 32.3947 154.834C32.368 155.374 32.3338 155.914 32.3114 156.454C32.2511 157.906 32.1953 159.358 32.1381 160.81C32.1359 160.867 32.1361 160.924 32.137 160.982C32.1499 161.783 32.5997 162.121 33.3601 161.838C34.0815 161.569 34.777 161.231 35.4838 160.923C35.6891 160.833 35.8886 160.726 36.1005 160.657C36.7793 160.436 37.294 160.704 37.556 161.381C37.6566 161.64 37.7589 161.914 37.9267 162.129C38.3586 162.685 38.9287 162.749 39.6799 162.402C40.4059 162.066 41.1162 161.663 41.878 161.447C42.8452 161.172 43.8508 160.993 44.8521 160.889C46.0672 160.762 47.2954 160.765 48.5171 160.698C49.8512 160.624 51.0818 160.149 52.3414 159.752C53.2689 159.46 54.2653 159.304 55.2389 159.259C56.9131 159.181 58.5936 159.24 60.2714 159.234C60.509 159.233 60.7494 159.147 60.9833 159.165C61.8255 159.231 62.3985 159.764 62.9067 160.365C63.7174 161.325 64.4839 162.323 65.3091 163.27C66.7078 164.874 68.1334 166.455 69.5561 168.038C70.2407 168.8 70.9332 169.556 71.6419 170.295C72.7402 171.441 73.8433 172.583 74.9707 173.701C75.3272 174.054 75.7314 174.4 76.179 174.61C76.8495 174.926 77.4305 174.571 77.9447 174.14C78.5412 173.641 79.1251 173.126 79.7208 172.625C80.1014 172.305 80.5587 172.261 80.945 172.559C81.5041 172.989 82.047 173.444 82.5696 173.918C83.2247 174.513 83.8553 175.135 84.4909 175.75C85.5691 176.795 86.654 177.833 87.7154 178.895C88.7971 179.977 89.8515 181.086 90.9221 182.179C92.4742 183.764 93.9975 185.379 95.5955 186.917C96.765 188.042 98.0348 189.063 99.2599 190.13C99.5467 190.13 99.8336 190.13 100.12 190.13C100.489 189.804 100.871 189.491 101.225 189.15C102.318 188.099 103.396 187.034 104.487 185.981C105.925 184.593 107.389 183.231 108.807 181.822C110.604 180.037 112.33 178.179 114.154 176.423C115.573 175.057 117.086 173.788 118.578 172.501C119.108 172.043 119.676 171.618 120.27 171.249C120.819 170.91 121.209 171.044 121.572 171.606C121.968 172.218 122.331 172.853 122.732 173.462C123.086 174 123.533 174.097 124.048 173.717C124.672 173.258 125.287 172.78 125.857 172.257C127.044 171.166 128.24 170.081 129.356 168.92C130.723 167.497 132.038 166.022 133.327 164.528C134.765 162.86 136.159 161.154 137.55 159.446C138.207 158.64 138.837 157.809 139.431 156.955C139.725 156.531 139.895 156.04 139.725 155.481C139.628 155.163 139.838 154.993 140.159 155.024C140.749 155.082 141.336 155.16 141.925 155.227C142.122 155.249 142.32 155.267 142.517 155.278C144.038 155.362 145.583 155.341 147.006 155.976C147.624 156.252 148.255 156.604 148.73 157.074C149.36 157.697 150.066 157.947 150.907 158.042C152.011 158.167 153.106 158.367 154.206 158.526C155.098 158.654 155.993 158.765 156.886 158.895C157.971 159.053 159.055 159.227 160.14 159.387C161.004 159.514 161.87 159.625 162.733 159.756C163.804 159.918 164.875 160.078 165.941 160.266C166.796 160.417 167.332 160.103 167.39 159.204C167.447 158.342 167.346 157.469 167.297 156.602C167.268 156.094 167.195 155.589 167.159 155.082C167.094 154.176 167.046 153.268 166.983 152.362C166.872 150.763 166.752 149.164 166.644 147.565C166.603 146.969 166.582 146.372 166.554 145.775C166.524 145.135 166.444 144.493 166.478 143.856C166.559 142.342 166.696 140.831 166.808 139.319C166.868 138.512 166.957 137.707 166.977 136.899C167.025 134.955 166.985 133.007 167.085 131.065C167.179 129.251 167.251 127.427 167.746 125.653C168.103 124.375 168.83 123.39 169.862 122.58C170.231 122.291 170.519 121.895 170.823 121.53C171.218 121.057 171.592 120.566 171.975 120.083C171.975 119.854 171.975 119.624 171.975 119.395C171.249 118.692 170.271 118.556 169.367 118.29ZM55.3085 53.3877C56.2588 52.7626 57.2303 52.1678 58.1576 51.5103C59.2383 50.7438 60.2048 49.8405 61.0336 48.8025C61.7367 47.922 62.4252 47.0294 63.1015 46.1281C63.353 45.7929 63.5514 45.4179 63.8014 45.0171C64.0914 45.3642 64.382 45.6984 64.6575 46.0447C65.1572 46.6727 65.6385 47.3156 66.1458 47.9374C66.499 48.3703 66.8542 48.3323 67.0928 47.8232C67.9395 46.0172 68.7642 44.2011 69.6053 42.3925C70.1147 41.297 70.6401 40.2089 71.1562 39.1164C71.6419 38.0878 72.129 37.0599 72.607 36.0277C72.8264 35.5539 72.8447 35.0723 72.5752 34.6074C71.6881 33.077 70.7986 31.5479 69.9074 30.0198C68.9664 28.4063 68.0238 26.7937 67.0792 25.1823C66.7167 24.5639 66.9555 24.3541 67.5156 24.1521C68.0251 23.9683 68.5764 23.8965 69.1126 23.7917C70.2837 23.5628 71.4534 23.324 72.6302 23.1273C73.6995 22.9485 74.7769 22.8169 75.8516 22.6702C76.9129 22.5253 77.9737 22.3753 79.0376 22.251C79.7412 22.1687 80.4489 22.1161 81.1562 22.0707C82.6306 21.9762 84.1059 21.8957 85.5809 21.8087C86.0346 21.7819 86.4879 21.7329 86.9418 21.7274C89.8332 21.6926 92.7248 21.6671 95.6162 21.6388C95.7575 21.6374 95.8988 21.6386 96.1247 21.6386C95.2076 23.3214 94.3253 24.9191 93.4648 26.5284C93.0541 27.2965 93.1931 27.5738 94.0184 27.7973C94.734 27.991 95.4428 28.2109 96.1617 28.3909C97.4377 28.7103 99.2203 27.6697 99.188 26.0619C99.168 25.071 99.2574 24.0748 99.3483 23.0856C99.4575 21.8964 100.15 21.6167 100.991 21.5751C103.458 21.4533 105.93 21.4142 108.4 21.3911C109.435 21.3814 110.476 21.4564 111.507 21.5591C113.206 21.7281 114.899 21.9513 116.595 22.1511C119.599 22.5051 122.543 23.17 125.475 23.8871C126.105 24.0411 126.814 24.1813 127.11 24.8697C127.301 25.3126 127.392 25.8054 127.479 26.2846C127.724 27.626 127.88 28.9868 128.189 30.3125C128.593 32.0436 129.034 33.7739 129.596 35.4587C130.466 38.0686 131.658 40.5416 133.387 42.7014C134.353 43.9076 135.424 45.0437 136.775 45.8462C137.451 46.2481 138.195 46.2724 138.93 45.9876C139.708 45.6862 140.512 45.4693 141.316 45.7575C141.693 45.8922 141.991 46.251 142.317 46.5175C142.728 46.8526 143.154 47.1737 143.53 47.5441C143.89 47.8983 143.873 48.3384 143.677 48.7882C143.384 49.4641 143.524 49.6949 144.111 49.9453C144.48 50.1025 144.876 50.2278 145.271 50.285C146.995 50.5338 147.842 51.5694 148.121 53.1269C148.32 54.2364 148.404 55.3707 148.474 56.498C148.591 58.3587 148.676 60.2221 148.735 62.0856C148.792 63.9151 148.813 65.7462 148.821 67.5768C148.825 68.5895 148.778 69.6029 148.738 70.6153C148.691 71.7805 148.634 72.9455 148.566 74.1097C148.489 75.4281 148.404 76.7462 148.307 78.0631C148.203 79.4624 148.094 80.8615 147.963 82.2584C147.838 83.5813 147.652 84.8989 147.552 86.2233C147.494 87.0056 147.305 87.8559 147.9 88.5237C148.292 88.9631 148.77 89.3306 149.237 89.696C149.925 90.2347 150.479 90.8751 150.6 91.7528C150.655 92.1488 150.527 92.5912 150.398 92.985C150.291 93.3101 150.294 93.5823 150.468 93.8598C150.848 94.4669 151.029 95.1407 151.144 95.8377C151.293 96.7305 150.49 98.0331 149.559 98.2961C149.129 98.4176 148.65 98.4436 148.202 98.4078C147.581 98.3582 147.544 97.9688 147.662 97.2215C147.722 96.8427 147.723 96.5078 147.463 96.0958C147.268 96.5741 147.07 96.9741 146.941 97.3956C146.57 98.6068 145.399 98.8193 144.46 98.7114C143.351 98.5841 142.51 97.9014 141.615 97.3316C140.068 96.3456 138.379 95.704 136.581 95.4003C135.441 95.2078 134.279 95.1004 133.124 95.0554C131.645 94.9978 130.163 95.0556 128.682 95.0376C127.067 95.0179 125.465 94.8576 123.879 94.5342C122.546 94.2624 121.218 93.9383 119.87 93.7749C118.574 93.6177 117.253 93.5552 115.948 93.5994C114.338 93.6539 112.732 93.8473 111.128 94.0094C110.316 94.0913 109.511 94.2374 108.702 94.351C108.636 94.3603 108.565 94.342 108.38 94.3272C108.622 93.8434 108.835 93.4176 109.048 92.9917C109.017 92.9683 108.985 92.9448 108.954 92.9214C107.691 93.4256 106.429 93.9298 105.117 94.4535C105.569 93.6089 105.994 92.8132 106.42 92.0175C106.397 91.9696 106.374 91.9217 106.351 91.8737C105.846 92.001 105.327 92.0876 104.84 92.2638C103.806 92.6386 102.986 93.3622 102.127 94.0195C101.561 94.4522 100.974 94.8569 100.371 95.2923C100.067 94.8386 100.31 94.484 100.373 94.1345C100.469 93.5975 100.651 93.0727 100.71 92.5332C100.769 91.9877 100.493 91.7839 99.9727 91.9834C99.4411 92.187 98.9269 92.4506 98.4336 92.737C97.2865 93.4029 96.4248 94.4027 95.4988 95.3245C95.3995 95.4233 95.3387 95.5606 95.26 95.68C95.2083 95.6461 95.1566 95.6122 95.105 95.5782C95.2121 95.1718 95.2943 94.7568 95.4308 94.3605C95.8456 93.1561 96.3072 91.9672 96.6977 90.7553C96.889 90.1616 96.9633 89.5302 97.1014 88.8632C95.8576 88.8503 94.8828 89.4501 93.742 89.7277C94.5934 88.2605 95.4092 86.8546 96.2307 85.4388C94.5747 85.8338 91.9591 90.0494 92.2471 91.8365C93.4758 91.79 94.3308 90.7698 95.5835 90.5737C95.4471 91.009 95.3166 91.4128 95.1939 91.8189C94.8018 93.1163 94.3079 94.3947 94.0572 95.719C93.8739 96.6869 93.916 97.7238 94.2814 98.7864C94.8499 98.0491 95.3879 97.3756 95.8997 96.6827C96.9238 95.2961 98.0301 94.0045 99.6992 93.2304C99.3473 94.3935 99.0098 95.509 98.6542 96.6846C100.489 96.3224 101.936 95.2179 103.576 94.351C103.603 94.5858 103.639 94.7833 103.646 94.9818C103.663 95.4748 103.828 95.5988 104.306 95.4884C104.782 95.3786 105.257 95.3572 105.754 95.3582C106.957 95.3605 108.161 95.2385 109.361 95.1256C110.612 95.0079 111.855 94.8151 113.107 94.7042C114.716 94.5616 116.33 94.3899 117.942 94.377C119.304 94.3661 120.659 94.6233 121.965 95.0478C122.655 95.2721 122.905 95.7161 122.741 96.4267C122.275 98.4398 121.449 100.299 120.136 101.895C119.188 103.047 118.179 104.161 117.096 105.186C115.948 106.271 114.676 107.224 113.469 108.248C112.902 108.73 112.3 109.198 112.146 109.994C112.103 110.214 112.089 110.442 112.084 110.666C112.072 111.257 111.779 111.552 111.197 111.565C110.17 111.588 109.143 111.619 108.116 111.65C107.275 111.676 106.434 111.707 105.593 111.736C103.912 111.793 102.231 111.851 100.55 111.908C99.7086 111.937 98.8676 111.966 98.0264 111.994C96.23 112.052 94.4336 112.11 92.6371 112.167C91.7105 112.196 90.7827 112.206 89.8573 112.257C88.1107 112.354 86.3884 112.546 84.7012 113.094C83.5556 113.466 82.4127 113.128 81.618 112.211C81.3676 111.922 81.4187 111.624 81.5613 111.343C82.3818 109.727 83.2352 108.129 84.3185 106.666C85.2978 105.344 86.2908 104.028 86.9938 102.529C87.6829 101.06 88.2001 99.5306 88.3233 97.9027C88.4018 96.865 88.4349 95.819 88.4012 94.7795C88.3776 94.0522 88.1949 93.331 88.105 92.6044C88.0216 91.9309 87.9402 91.2552 87.9058 90.578C87.8455 89.3913 87.7965 88.2064 87.4728 87.0524C87.1995 86.078 86.7064 85.2235 86.1067 84.4163C85.8421 84.06 85.5814 83.6782 85.4278 83.2672C85.1987 82.6546 85.5018 82.1009 85.8759 81.6507C86.2893 81.1533 86.4249 80.5767 86.5121 79.9844C86.5925 79.4382 86.5975 78.8786 86.6069 78.3244C86.6347 76.6962 87.0049 75.1308 87.6547 73.6604C88.1969 72.4335 88.9391 71.2962 89.5628 70.1035C90.1741 68.9347 90.742 67.7433 91.339 66.5669C92.1012 65.0652 92.8638 63.5635 93.6476 62.073C93.8882 61.6152 94.1991 61.1944 94.5428 60.6545C94.6654 61.0457 94.8097 61.3673 94.8618 61.7031C94.9527 62.2885 94.9815 62.8833 95.0462 63.4731C95.1029 63.9899 95.4577 64.2112 95.9947 64.0026C96.3934 63.8476 96.54 63.9797 96.6528 64.3417C97.0245 65.5343 97.6632 66.5776 98.561 67.4388C99.5771 68.4136 100.797 69.0561 102.233 69.3959C101.739 68.6898 101.244 67.9836 100.75 67.2774C100.787 67.2436 100.825 67.2098 100.862 67.176C101.095 67.3524 101.323 67.5365 101.563 67.7038C102.173 68.1293 102.786 68.5503 103.402 68.9674C103.843 69.2667 104.287 69.5632 104.738 69.8491C105.254 70.1765 105.852 70.3038 106.389 70.0575C106.932 69.8085 107.242 70.0532 107.573 70.3583C109.287 71.9342 111.33 72.8504 113.574 73.357C114.299 73.5206 115.029 73.6652 115.763 73.7771C116.725 73.9237 117.041 73.6209 117.089 72.4828C117.385 72.7101 117.653 72.889 117.89 73.1029C119.614 74.6584 120.986 76.4732 121.936 78.6015C122.66 80.2227 123.113 81.9264 123.515 83.6467C123.579 83.921 123.319 84.2211 123.014 84.1899C122.399 84.1268 121.787 84.026 121.176 83.9261C120.191 83.7652 119.209 83.5942 118.226 83.4238C117.105 83.2294 115.984 83.0333 114.864 82.8334C114.048 82.688 113.226 82.5678 112.421 82.378C111.268 82.1064 110.267 81.5057 109.332 80.7978C108.688 80.3094 108.067 79.7898 107.41 79.3109C107.95 80.7764 108.758 82.0627 110.167 82.7843C110.91 83.1649 111.782 83.316 112.611 83.5004C113.911 83.7895 115.222 84.0368 116.534 84.2688C117.822 84.4965 119.117 84.6802 120.409 84.8885C121.407 85.0497 122.403 85.2311 123.404 85.3811C124.324 85.519 125.249 85.6241 126.17 85.7488C127.176 85.8848 128.179 86.0369 129.185 86.163C130.026 86.2684 130.871 86.3442 131.714 86.437C132.725 86.5482 133.734 86.6692 134.745 86.7748C135.407 86.8441 136.07 86.896 136.733 86.9517C138.117 87.0678 139.501 87.1826 140.885 87.2952C141.309 87.3297 141.733 87.3637 142.158 87.3832C142.927 87.4185 143.696 87.4606 144.465 87.4671C145.505 87.476 145.802 87.1585 145.907 86.131C146.053 84.6982 146.252 83.271 146.408 81.8391C146.515 80.854 146.594 79.8656 146.674 78.8779C146.795 77.4082 146.911 75.9381 147.019 74.4674C147.087 73.5468 147.138 72.625 147.192 71.7035C147.539 65.7792 147.291 59.8491 147.358 53.922C147.362 53.5408 147.337 53.151 147.26 52.7788C147.098 51.9983 146.479 51.7602 145.792 51.5787C145.133 51.4044 144.492 51.1599 143.843 50.9438C143.711 50.8996 143.573 50.8598 143.452 50.7916C143.233 50.6675 143.19 50.7844 143.145 50.9694C142.719 52.7558 142.268 54.5366 141.862 56.3275C141.598 57.4906 141.425 58.674 141.161 59.8372C140.823 61.3354 140.154 62.6716 139.028 63.7448C138.702 64.0562 138.339 64.3298 137.989 64.6162C136.26 66.0313 135.531 67.949 135.225 70.0854C134.833 72.8257 134.397 75.5558 133.543 78.2033C132.974 79.9689 132.394 81.7243 131.369 83.2921C130.433 84.7243 129.118 85.501 127.401 85.2888C126.587 85.1882 125.796 84.8194 125.028 84.4932C124.835 84.4113 124.691 84.0353 124.66 83.7782C124.431 81.8593 124.018 79.9859 123.355 78.1701C123.183 77.6967 123.011 77.2158 122.769 76.7765C122.37 76.0497 122.421 75.3827 122.892 74.7235C124.257 72.8141 125.655 70.927 126.975 68.9875C128.152 67.2592 129.257 65.4813 130.367 63.7085C130.995 62.7064 131.487 61.6339 131.787 60.4838C132.099 59.2854 132.199 58.0847 131.981 56.8447C131.644 54.9253 132.018 53.1264 133.003 51.4312C133.725 50.1892 134.654 49.1159 135.567 48.0265C136.404 47.0289 136.036 46.6706 135.278 46.1155C133.315 44.6794 131.796 42.8864 130.637 40.7625C129.132 38.0026 128.23 35.0314 127.577 31.9797C127.236 30.3868 126.993 28.7729 126.72 27.1659C126.657 26.7902 126.678 26.4003 126.62 26.0233C126.483 25.1332 126.153 24.7546 125.09 24.5693C123.498 24.2917 121.902 24.0327 120.304 23.7932C118.828 23.572 117.348 23.3695 115.866 23.191C114.477 23.0237 113.084 22.881 111.69 22.7602C110.417 22.6499 109.142 22.5531 107.866 22.5046C105.713 22.4227 103.557 22.3792 101.402 22.3324C101.153 22.327 100.892 22.3712 100.655 22.4492C100.238 22.5864 100.029 22.8944 100.033 23.3456C100.039 24.0373 100.07 24.7314 100.027 25.4204C99.9348 26.8949 100.794 27.6919 101.935 28.1641C103.855 28.9586 105.361 30.2084 106.411 32.0029C106.61 32.3429 106.802 32.6872 106.989 33.0341C107.338 33.6843 107.857 34.1884 108.547 34.3926C109.72 34.7393 110.695 35.397 111.673 36.0907C113.712 37.5382 115.962 38.5208 118.416 39.0296C118.665 39.0812 118.893 39.2371 119.222 39.3861C118.342 39.9779 117.543 40.5153 116.727 41.0638C116.993 41.7389 117.538 42.0233 118.213 42.1189C118.521 42.1625 118.836 42.158 119.14 42.2164C119.908 42.3637 120.254 43.0329 120.077 43.939C119.871 44.99 119.339 45.8666 118.67 46.6783C118.438 46.9596 118.226 47.2584 118.018 47.5582C117.884 47.7513 117.736 47.8032 117.526 47.6871C116.036 46.8637 114.416 46.5731 112.737 46.5025C112.073 46.4745 111.41 46.4042 110.748 46.3336C109.44 46.1938 108.63 46.8744 108.017 47.9319C107.4 48.9977 107.15 50.1465 107.274 51.3548C107.404 52.6218 108.302 54.0948 109.62 54.2863C110.344 54.3913 111.112 54.2335 111.854 54.1481C112.846 54.0341 113.832 53.8673 114.822 53.739C115.397 53.6646 115.976 53.6167 116.553 53.5655C116.951 53.5302 117.187 53.6933 117.157 54.1221C117.081 55.2131 117.022 56.306 116.912 57.3937C116.83 58.2056 116.658 59.0081 116.563 59.8191C116.484 60.4953 116.294 60.7028 115.608 60.7042C114.073 60.7074 112.539 60.7127 111.004 60.703C110.304 60.6985 109.641 60.8787 109.089 61.2696C107.897 62.1148 106.617 62.1434 105.292 61.7827C103.644 61.3337 102.271 60.3996 101.124 59.1578C100.022 57.9643 99.1985 56.5928 98.9435 54.9592C98.8663 54.4641 98.9607 53.9406 98.9906 53.4309C99.0131 53.0465 99.0679 52.664 99.0904 52.2797C99.1155 51.8509 98.7609 51.828 98.5063 51.8619C98.124 51.9128 97.76 52.089 97.38 52.1757C97.1753 52.2224 96.8599 52.2816 96.7617 52.1775C96.6242 52.0317 96.5466 51.7051 96.613 51.5153C96.787 51.0181 97.0506 50.5518 97.2836 50.0757C97.3817 49.8752 97.4925 49.681 97.6597 49.3674C96.8394 49.497 96.1212 49.5947 95.4099 49.7284C94.9157 49.8213 94.788 49.7404 94.7847 49.2351C94.7846 49.2208 94.785 49.2065 94.785 49.1921C94.7839 48.4928 94.7853 48.4798 94.1198 48.4034C92.942 48.2681 91.9257 47.7538 91.091 46.9582C90.3903 46.2903 90.0059 45.4202 89.8692 44.4289C89.6965 43.1776 90.1049 42.1199 90.9607 41.2944C91.5989 40.6789 92.3648 40.1252 93.1736 39.7731C94.5404 39.1781 95.9861 38.7644 97.4374 38.261C97.3978 37.867 97.0521 37.6474 96.6354 37.4635C96.3436 37.3347 96.0715 37.1552 95.8064 36.9751C95.7282 36.922 95.6494 36.7753 95.6702 36.6981C95.6901 36.6241 95.8337 36.5495 95.9315 36.5357C96.6298 36.4376 97.3319 36.3656 98.0298 36.2645C98.767 36.1576 99.504 36.0435 100.235 35.9012C100.611 35.8281 100.72 35.5504 100.558 35.191C100.449 34.9494 100.321 34.7167 100.202 34.4792C100.052 34.1765 100.221 34.0343 100.485 34.0372C101.354 34.0465 102.223 34.094 103.093 34.1112C103.767 34.1245 104.441 34.1322 105.115 34.1085C105.533 34.0938 105.813 33.6715 105.704 33.244C105.335 31.7884 104.546 30.6164 103.255 29.8329C102.111 29.1386 100.856 28.8104 99.4798 28.8726C99.5577 29.1223 99.6316 29.3568 99.7039 29.5918C99.8173 29.9605 99.6258 30.2763 99.2518 30.2323C98.6556 30.1623 98.0565 30.0602 97.479 29.8988C95.8612 29.4464 94.2653 28.9113 92.6387 28.4953C91.1655 28.1186 89.7092 28.2137 88.3657 29.0331C88.3062 29.0694 88.2416 29.0993 88.1885 29.1432C88.1496 29.1753 88.1256 29.2255 88.0738 29.2969C89.2512 29.7727 90.5933 29.8932 91.418 31.1224C91.2008 31.0887 91.0333 31.0468 90.8644 31.0391C89.3847 30.9719 87.9035 30.8446 86.4254 30.8739C85.5989 30.8903 84.7274 31.0513 84.0574 31.6293C83.8384 31.8182 83.715 32.1441 83.6097 32.43C83.5296 32.6476 83.5428 32.9008 83.5225 33.1388C83.4604 33.8669 82.9975 34.2257 82.3465 34.3856C81.1452 34.6807 80.159 35.3939 79.1521 36.0484C78.0416 36.7703 77.0703 37.6534 76.4834 38.8913C76.6946 39.2449 77.0501 39.1744 77.3857 39.1989C77.7099 39.2225 78.0305 39.2951 78.3682 39.3486C77.8961 40.9077 76.5486 41.6051 75.5355 42.6551C75.7072 42.7249 75.8186 42.7725 75.9316 42.8157C76.6555 43.0926 76.7599 43.3883 76.3512 44.055C76.0502 44.546 75.7018 45.0106 75.4331 45.518C74.7895 46.7335 74.1784 47.9665 73.5615 49.196C73.5215 49.2758 73.5433 49.3865 73.528 49.599C74.1662 49.4779 74.7521 49.3561 75.3424 49.2605C75.5545 49.2261 75.7769 49.255 76.0026 49.3096C74.4664 51.1829 73.132 53.1093 72.3838 55.5134C74.3468 54.4241 76.0789 53.078 78.2777 52.5075C77.8326 53.0022 77.4107 53.4222 77.0457 53.8868C76.1766 54.9932 75.3392 56.1244 74.48 57.2387C73.6026 58.3766 72.7717 59.5577 71.8139 60.6243C70.9457 61.5912 69.8525 62.3099 68.5929 62.8322C68.9604 63.2797 69.4669 63.4526 69.9579 63.6255C71.323 64.1062 72.5208 63.6679 73.5838 62.8316C75.0109 61.7087 76.1001 60.2562 77.2928 58.903C78.1529 57.927 79.06 56.9665 80.4025 56.6283C80.5007 56.6036 80.6016 56.5901 80.8319 56.5469C78.0645 59.2883 75.3907 61.935 73.0949 64.9743C74.565 65.2203 75.415 64.1303 76.5405 63.5577C76.5456 65.0876 76.3789 66.6199 77.5694 67.8794C78.9697 65.3838 80.4014 62.9391 82.8813 61.1921C82.5213 61.8426 82.2214 62.4064 81.9013 62.9585C81.0125 64.4918 80.1606 66.0456 79.837 67.812C79.533 69.4707 79.7609 71.0675 80.5944 72.6797C81.2476 71.0691 81.2045 69.3147 82.1488 67.9679C82.1488 70.4703 82.1488 73.02 82.1488 75.5934C82.001 75.4334 81.8144 75.2426 81.6408 75.0407C81.361 74.7153 81.1352 74.7304 80.9501 75.1131C79.6698 77.7607 78.3935 80.4101 77.1174 83.0596C77.0875 83.1217 77.0924 83.206 77.0521 83.2569C76.0921 84.4686 76.6772 85.5438 77.2956 86.6598C78.0861 88.0865 78.8014 89.5547 79.5559 91.0015C80.1983 92.2333 80.8503 93.4602 81.5205 94.7318C83.2588 92.5606 84.9793 90.4114 86.7793 88.1629C86.9093 88.8415 87.0301 89.4075 87.1246 89.9778C87.4066 91.6796 87.5066 93.3941 87.4755 95.1182C87.4702 95.4134 87.5691 95.7126 87.5482 96.0049C87.4908 96.8102 87.3766 96.9849 86.5248 97.0094C85.7142 97.0328 84.901 96.9492 84.0887 96.9382C83.0275 96.9238 81.966 96.9438 80.9048 96.9328C78.7444 96.9105 76.584 96.8822 74.4238 96.8465C73.4964 96.8312 72.5694 96.7942 71.6424 96.7611C71.2809 96.7482 70.9825 96.5908 70.9463 96.2114C70.8668 95.3802 70.7361 94.5369 70.8018 93.7125C70.9158 92.282 71.4583 90.9659 72.1488 89.7098C72.6003 88.8882 73.0945 88.0763 73.4267 87.2057C74.2163 85.1364 74.0506 83.1045 72.8886 81.2022C72.3264 80.2819 71.6452 79.4342 71.0849 78.513C70.399 77.3854 69.7848 76.2145 69.136 75.0643C68.9876 74.801 68.8248 74.5458 68.6415 74.242C67.8739 75.4292 67.1474 76.5588 66.4143 77.684C66.0746 78.2056 65.8501 78.2187 65.4261 77.7743C64.7357 77.0505 64.09 76.2741 63.337 75.6219C61.993 74.4581 60.5961 73.3539 59.195 72.2582C58.545 71.75 57.8303 71.325 57.1511 70.8534C56.8413 70.6383 56.7305 70.0991 56.9097 69.7023C57.6265 68.1156 58.3497 66.5317 59.0678 64.9455C59.3049 64.4216 59.539 63.8962 59.7649 63.3673C60.1072 62.5662 59.9346 61.8454 59.4685 61.1335C57.9918 58.8778 56.5384 56.607 55.0772 54.3412C54.8127 53.9311 54.8751 53.6727 55.3085 53.3877ZM141.802 105.408C141.826 106.049 141.401 106.495 141.124 106.986C140.228 108.576 139.299 110.148 138.379 111.724C138.081 112.233 137.824 112.865 137.196 112.963C136.656 113.048 136.022 113.006 135.533 112.788C135.174 112.629 134.896 112.129 134.731 111.72C133.922 109.722 133.172 107.701 132.382 105.695C132.098 104.975 132.226 104.326 132.585 103.681C133.384 102.243 134.177 100.803 134.967 99.3604C135.352 98.6585 135.711 97.9423 136.105 97.2465C136.511 96.5312 137.019 96.4379 137.863 96.7431C138.623 97.0179 138.77 97.6791 139.02 98.296C139.647 99.8406 140.272 101.386 140.904 102.929C141.153 103.538 141.428 104.138 141.669 104.751C141.75 104.956 141.76 105.188 141.802 105.408ZM128.607 105.461C127.903 106.728 127.23 108.011 126.55 109.291C126.173 109.998 125.801 110.709 125.442 111.425C125.24 111.829 124.867 111.909 124.49 111.934C123.73 111.984 122.966 112.046 122.209 112.009C121.229 111.961 120.623 111.311 120.124 110.535C119.473 109.523 118.98 108.442 118.707 107.271C118.428 106.075 118.656 104.967 119.432 104.005C120.036 103.258 120.715 102.569 121.287 101.799C122.233 100.526 122.774 99.0395 123.355 97.5794C123.561 97.062 123.764 96.5434 123.979 95.9996C125.559 98.5891 127.106 101.147 128.682 103.687C129.079 104.327 128.938 104.867 128.607 105.461ZM120.99 52.4911C121.489 51.6656 122.056 50.8776 122.646 50.1131C123.045 49.5962 123.295 49.5722 123.736 50.052C124.295 50.6605 124.796 51.3283 125.274 52.0046C125.862 52.8377 125.577 53.6287 125.059 54.3822C124.519 55.1669 123.982 55.9532 123.443 56.7382C123.398 56.8034 123.345 56.863 123.275 56.9515C122.494 55.7666 121.709 54.6276 120.994 53.4458C120.849 53.2056 120.846 52.7299 120.99 52.4911ZM139.099 76.7639C139.855 75.5495 140.615 74.338 141.398 73.0871C142.23 74.1847 142.975 75.2784 143.362 76.5553C143.675 77.5859 143.279 78.5248 142.741 79.3821C142.31 80.0676 141.799 80.7026 141.3 81.3938C140.536 80.119 139.806 78.8907 139.063 77.6708C138.866 77.3468 138.918 77.0549 139.099 76.7639ZM119.7 30.5111C119.323 31.462 118.736 32.2746 118.136 33.1294C117.509 32.3936 116.941 31.6763 116.318 31.01C115.8 30.4554 115.79 29.9152 116.164 29.2977C116.708 28.3981 117.234 27.4876 117.821 26.4914C118.368 27.092 118.903 27.6361 119.386 28.2225C119.951 28.9075 120.03 29.6764 119.7 30.5111ZM79.7389 106.769C79.3674 107.325 78.9638 107.86 78.5391 108.455C77.6223 107.373 76.6538 106.404 76.315 105.05C76.1403 104.351 76.4041 103.678 76.8033 103.093C77.3389 102.308 77.9095 101.548 78.5313 100.685C79.1076 101.516 79.6418 102.251 80.1371 103.011C81.0178 104.362 80.5263 105.589 79.7389 106.769ZM50.6965 54.4076C51.2935 54.4067 51.8891 54.229 52.4878 54.1504C52.7148 54.1206 52.9491 54.1456 53.2832 54.1456C52.2104 56.925 51.168 59.6277 50.119 62.3278C50.0985 62.3806 49.9998 62.403 49.9114 62.455C49.8653 61.9063 49.8056 61.4034 49.7842 60.8989C49.7426 59.9164 49.7353 58.9323 49.6889 57.95C49.6555 57.244 49.5834 56.5398 49.5251 55.835C49.4677 55.1411 49.6592 54.4091 50.6965 54.4076ZM52.5705 69.0262C51.8741 69.1052 51.1708 69.1893 50.473 69.1692C49.9789 69.155 49.8881 68.6787 49.8764 68.2858C49.8613 67.7772 49.9087 67.2644 49.9616 66.7568C50.0064 66.326 50.0972 65.9 50.1813 65.3895C51.0367 66.5057 51.8529 67.5706 52.6689 68.6356C52.8019 68.8091 52.7584 69.0048 52.5705 69.0262ZM44.5282 80.8061C44.2835 78.3555 45.1254 76.2457 46.5412 74.3193C47.6369 72.8286 48.9865 71.6065 50.6299 70.7486C51.7584 70.1595 52.9538 70.174 54.0968 70.7031C56.0429 71.6042 57.8435 72.7646 59.5413 74.0639C60.8761 75.0853 62.1358 76.2066 63.4076 77.3081C65.1313 78.8009 66.6398 80.4984 67.9925 82.329C68.7398 83.3403 69.1084 84.5318 69.2988 85.7572C69.4743 86.8874 69.6028 88.0322 69.6449 89.1745C69.7413 91.7869 69.803 94.4014 69.8178 97.0154C69.8263 98.4961 69.7201 99.9776 69.6546 101.458C69.6075 102.524 69.5377 103.588 69.4867 104.654C69.4235 105.977 69.3754 107.3 69.3089 108.623C69.2639 109.517 69.1926 110.409 69.1452 111.303C69.1292 111.606 69.1626 111.912 69.1518 112.216C69.1241 113 68.6033 113.373 67.9325 113.537C67.2669 113.7 66.5804 113.778 65.9019 113.885C65.5091 113.948 65.3457 113.735 65.3582 113.374C65.3778 112.805 65.4052 112.237 65.4513 111.67C65.4879 111.22 65.5761 110.775 65.6089 110.325C65.7051 109.008 65.7882 107.69 65.8706 106.372C65.9602 104.94 66.0504 103.508 66.1271 102.075C66.1948 100.81 66.2496 99.5441 66.2998 98.2783C66.3375 97.3233 66.3691 96.3678 66.3855 95.4121C66.4209 93.3524 66.5044 91.291 66.4535 89.2332C66.4165 87.7404 66.0301 86.295 65.4505 84.9049C64.6911 83.0837 63.6282 81.4434 62.3929 79.9297C61.2006 78.469 59.8944 77.1004 58.6217 75.7065C57.8931 74.9085 57.3499 74.9685 56.6914 75.7862C55.8009 76.8921 54.7211 77.7715 53.5308 78.5277C52.5471 79.1527 51.556 79.7664 50.5838 80.4087C49.6667 81.0146 49.2119 82.2113 49.4955 83.2746C49.8051 84.4353 50.1485 85.5869 50.4789 86.749C49.2944 86.5318 48.1829 86.1088 47.2055 85.3995C45.6449 84.267 44.7223 82.7505 44.5282 80.8061ZM55.2178 79.1527C54.1797 81.2985 53.1535 83.4197 52.0786 85.6416C51.673 84.5855 51.2098 83.6582 51.231 82.5731C51.2496 81.6226 51.7447 80.9488 52.4564 80.4805C53.2608 79.9514 54.1642 79.5726 55.0272 79.1336C55.0676 79.113 55.1336 79.1428 55.2178 79.1527ZM63.6213 121.244C63.4901 122.384 63.1428 123.499 63.0103 124.64C62.8982 125.605 62.9152 126.591 62.9502 127.565C62.9815 128.439 63.1491 129.308 63.1963 130.182C63.2801 131.732 63.369 133.285 63.367 134.837C63.358 142.075 63.3262 149.312 63.2819 156.549C63.2752 157.647 62.7327 158.12 61.5888 158.279C60.4418 158.438 59.2848 158.598 58.1304 158.612C57.0378 158.625 55.9327 158.516 54.8842 158.129C54.4752 157.978 54.117 158.026 53.7317 158.281C52.4172 159.153 50.9503 159.612 49.3835 159.752C48.0298 159.873 46.6729 159.963 45.3215 160.105C43.4767 160.299 41.6304 160.493 39.8764 161.172C39.3554 161.373 39.0558 161.154 39.0266 160.584C38.9808 159.688 38.9453 158.79 38.9403 157.892C38.9282 155.726 38.9465 153.561 38.9327 151.395C38.9239 150.024 38.9126 148.65 38.8417 147.281C38.7671 145.838 38.6287 144.398 38.5024 142.958C38.4011 141.804 38.2576 140.653 38.168 139.498C38.1062 138.702 38.1091 137.902 38.0741 137.105C38.0561 136.694 37.9903 136.284 37.9948 135.874C38.0107 134.402 38.0439 132.93 38.0776 131.459C38.0995 130.503 38.1009 129.545 38.171 128.593C38.2425 127.622 38.3889 126.657 38.4972 125.689C38.5178 125.505 38.5126 125.318 38.5218 125.132C38.5503 124.555 38.8786 124.207 39.3179 123.846C40.4068 122.951 40.3661 122.135 39.6516 120.882C39.1225 119.954 38.7455 119.023 38.6763 117.964C38.6514 117.582 38.6073 117.201 38.5948 116.818C38.5544 115.586 39.3455 115.084 40.3256 114.931C40.8706 114.846 41.4316 114.836 41.9852 114.839C44.0746 114.849 46.1299 114.593 48.1481 114.061C50.1651 113.531 52.1765 112.978 54.1865 112.421C54.6867 112.283 54.8903 112.023 54.8485 111.529C54.765 110.544 54.6376 109.562 54.527 108.58C54.4368 107.779 54.3497 106.978 54.2521 106.178C54.1462 105.31 54.0227 104.444 53.9198 103.576C53.8217 102.748 53.748 101.917 53.6497 101.089C53.5466 100.221 53.4206 99.3555 53.3168 98.4875C53.2195 97.6732 53.1446 96.8563 53.048 96.0419C52.9133 94.9072 52.7543 93.7752 52.6303 92.6395C52.5077 91.5166 52.4158 90.3905 52.3105 89.2658C52.3506 89.2579 52.3906 89.25 52.4307 89.2421C54.184 91.3437 55.9372 93.4453 57.7418 95.6085C58.0585 94.676 58.3511 93.8234 58.6378 92.9687C59.2086 91.2672 59.7789 89.5655 60.3436 87.862C60.5197 87.3305 60.7544 86.8013 60.8149 86.2548C60.8532 85.9085 60.6766 85.5005 60.4974 85.1745C59.7198 83.7594 58.9091 82.3625 58.1038 80.9627C57.6209 80.1233 57.1035 79.3029 56.6429 78.4516C56.2126 77.6561 56.7176 76.5914 57.5996 76.3799C57.9337 76.2999 58.179 76.4629 58.3916 76.7258C59.3417 77.9004 60.307 79.0626 61.2602 80.2347C61.9712 81.109 62.6759 81.9885 63.3755 82.872C63.6177 83.1779 63.6654 83.4991 63.4941 83.8844C63.0565 84.8688 63.1428 85.867 63.5747 86.8254C64.0181 87.8095 64.5901 88.7416 64.9651 89.7489C65.2847 90.6078 65.4748 91.532 65.593 92.444C65.7116 93.3593 65.6814 94.2951 65.6932 95.2222C65.6973 95.5454 65.6688 95.8786 65.5901 96.1909C65.4725 96.6578 65.1263 96.9457 64.6604 97.0093C63.8203 97.124 62.9725 97.1813 62.1302 97.2818C61.3193 97.3784 60.5127 97.5094 59.7019 97.6068C58.8457 97.7097 57.987 97.7913 57.1292 97.8811C56.5387 97.9429 55.9424 97.9706 55.359 98.0724C54.6847 98.1901 54.3981 98.7328 54.5134 99.4457C54.6507 100.294 54.7435 101.149 54.8544 102.002C54.9963 103.093 55.1453 104.183 55.2756 105.275C55.3778 106.132 55.455 106.992 55.5455 107.85C55.661 108.946 55.7572 110.044 55.9036 111.136C55.9842 111.738 56.3853 111.923 57.0355 111.815C58.1593 111.626 59.2889 111.472 60.4165 111.307C61.4336 111.158 62.4546 111.033 63.4677 110.861C64.0781 110.758 64.3427 111.044 64.3147 111.653C64.2887 112.217 64.1862 112.777 64.1554 113.34C64.1079 114.209 64.1192 115.081 64.0585 115.948C63.9347 117.715 63.8238 119.485 63.6213 121.244ZM61.5653 105.462C60.9217 106.378 60.2744 107.291 59.55 108.317C58.9157 107.554 58.291 106.878 57.7558 106.137C57.2639 105.456 57.211 104.68 57.5728 103.898C58.0668 102.83 58.8146 101.945 59.5755 101.058C60.2326 101.961 60.8776 102.839 61.5117 103.724C61.9144 104.286 61.9805 104.872 61.5653 105.462ZM111.715 164.957C111.661 165.407 111.474 165.916 111.178 166.249C110.196 167.353 109.169 168.421 108.099 169.439C107.209 170.285 106.258 171.075 105.287 171.828C103.931 172.881 102.458 173.759 100.907 174.503C99.8954 174.989 99.0154 174.575 98.1612 174.088C96.8317 173.329 95.4897 172.587 94.2045 171.758C92.3888 170.587 90.6077 169.36 88.8366 168.122C88.0069 167.542 87.2398 166.873 86.4359 166.255C85.8958 165.84 85.2539 165.651 84.5934 165.616C82.8725 165.524 81.3245 164.992 79.9282 163.978C78.8289 163.181 78.0791 162.107 77.3593 160.982C76.7313 160.001 76.0288 159.062 75.3035 158.149C74.8835 157.62 74.3435 157.189 73.8753 156.696C73.0382 155.816 72.2658 154.885 71.7252 153.721C72.697 154.006 73.4066 154.578 74.0877 155.193C74.6995 155.745 75.2929 156.319 75.9218 156.851C76.2327 157.114 76.3751 157.025 76.4589 156.618C76.5663 156.096 76.6758 155.573 76.8058 155.057C77.0406 154.124 77.7734 153.839 78.611 153.733C79.8567 153.576 81.1061 153.449 82.3525 153.297C83.2053 153.193 84.0534 153.046 84.9078 152.962C85.8056 152.873 86.1024 153.45 86.1625 154.075C86.2779 155.275 86.5492 156.435 86.9703 157.551C87.1992 158.158 87.5402 158.737 87.9136 159.271C88.2687 159.778 88.8727 159.898 89.4583 159.918C90.2915 159.947 91.1273 159.903 91.9604 159.932C92.7239 159.959 93.4953 159.983 94.2457 160.111C95.9312 160.398 97.1737 161.747 97.1774 163.286C97.1784 163.716 96.9873 164.154 96.8348 164.57C96.7918 164.688 96.58 164.762 96.4309 164.808C96.3973 164.819 96.2987 164.635 96.2364 164.536C96.1912 164.465 96.17 164.374 96.1143 164.314C96.0269 164.22 95.9194 164.145 95.8205 164.062C95.7626 164.176 95.6702 164.285 95.6529 164.406C95.5737 164.954 95.4993 165.518 95.0421 165.885C94.8395 166.048 94.522 166.157 94.2656 166.142C93.9153 166.121 94.0029 165.732 93.9334 165.496C93.8869 165.338 93.9132 165.154 93.9268 164.983C93.9607 164.555 93.7757 164.26 93.3725 164.037C93.2962 164.41 93.2182 164.757 93.1551 165.107C92.954 166.223 92.4404 166.387 91.438 166.454C90.5879 166.511 89.7309 166.466 88.8398 166.466C89.7341 167.573 97.9971 173.072 99.1739 173.341C99.1739 173.165 99.1739 173 99.1739 172.835C99.1743 168.088 99.1624 163.341 99.1831 158.595C99.189 157.243 99.2794 155.891 99.3515 154.54C99.3815 153.977 99.4478 153.415 99.531 152.857C99.5721 152.581 99.8387 152.509 100.016 152.655C101.058 153.517 102.226 154.237 103.068 155.33C103.481 155.866 103.509 156.432 103.176 156.984C102.669 157.825 102.106 158.631 101.579 159.459C101.338 159.837 101.088 160.216 100.906 160.623C100.5 161.53 100.814 162.342 101.298 163.127C102.536 165.134 103.763 167.148 105.001 169.156C105.221 169.512 105.473 169.85 105.784 170.303C107.451 167.831 109.054 165.452 110.672 163.051C111.24 163.566 111.814 164.114 111.715 164.957ZM93.2098 152.951C93.5465 152.553 94.0255 152.344 94.5388 152.462C95.1175 152.595 95.6347 152.897 95.7535 153.549C95.7999 153.805 95.7626 154.113 95.6585 154.351C95.2988 155.174 94.8929 155.977 94.4533 156.895C93.9051 155.974 93.3756 155.133 92.8987 154.263C92.6291 153.771 92.8973 153.321 93.2098 152.951ZM126.921 162.902C126.883 162.937 126.698 162.85 126.608 162.782C126.396 162.621 126.2 162.439 125.92 162.198C126.032 162.703 126.118 163.083 126.2 163.464C126.314 163.995 126.147 164.377 125.68 164.612C125.313 164.797 124.961 165.008 124.508 164.937C123.847 164.834 123.658 164.269 123.331 163.829C123.1 163.517 122.851 163.218 122.61 162.913C122.578 162.939 122.546 162.966 122.514 162.992C122.567 163.278 122.62 163.565 122.671 163.851C122.802 164.576 122.49 165.051 121.798 165.249C121.115 165.445 120.394 165.553 119.683 165.592C118.163 165.676 116.659 165.493 115.191 165.085C114.104 164.784 113.206 164.201 112.701 163.149C112.162 162.028 111.407 161.073 110.568 160.167C109.099 158.583 107.388 157.282 105.725 155.921C104.564 154.97 103.454 153.955 102.328 152.962C102.205 152.854 102.122 152.701 101.977 152.513C102.339 152.453 102.635 152.381 102.935 152.357C103.826 152.288 104.719 152.225 105.612 152.185C106.61 152.14 107.609 152.092 108.607 152.105C109.442 152.115 110.276 152.216 111.112 152.26C111.305 152.27 111.502 152.19 111.698 152.188C113.306 152.177 114.891 152.269 116.289 153.21C117.07 153.736 117.671 154.435 118.044 155.278C118.722 156.809 119.997 157.413 121.516 157.686C123.27 158.002 124.777 158.801 126.061 160.019C126.768 160.69 127.025 161.586 127.128 162.525C127.141 162.647 127.023 162.809 126.921 162.902ZM129.316 154.436C129.021 154.702 128.706 154.95 128.436 155.24C127.646 156.089 126.706 156.174 126.136 155.007C126.093 154.919 126.026 154.843 125.977 154.758C125.825 154.497 125.75 154.16 125.346 154.158C124.913 154.156 124.672 154.456 124.485 154.766C124.248 155.161 124.092 155.603 123.876 156.012C123.526 156.675 122.869 156.915 122.026 156.725C120.972 156.486 120.174 155.876 119.57 155.005C119.092 154.316 118.651 153.6 118.157 152.841C118.929 152.881 119.64 152.906 120.348 152.959C121.746 153.064 123.142 153.186 124.54 153.298C124.964 153.331 125.388 153.36 125.813 153.384C126.848 153.444 127.884 153.494 128.919 153.56C129.31 153.584 129.699 153.64 130.155 153.688C129.853 153.957 129.584 154.195 129.316 154.436ZM163.356 140.499C162.845 141.692 162.533 142.92 162.511 144.216C162.498 145.023 162.464 145.833 162.52 146.636C162.593 147.664 162.741 148.686 162.867 149.71C162.937 150.283 163.051 150.852 163.104 151.426C163.16 152.05 163.184 152.677 163.192 153.303C163.201 154.055 162.838 154.325 162.095 154.168C160.449 153.819 158.804 153.467 157.155 153.136C156.054 152.915 154.936 152.77 153.843 152.515C152.623 152.23 151.524 151.656 150.597 150.803C149.762 150.035 148.807 149.629 147.664 149.591C146.044 149.537 144.426 149.428 142.807 149.339C141.828 149.286 140.85 149.232 139.871 149.168C138.641 149.087 137.411 148.993 136.18 148.91C135.655 148.875 135.129 148.848 134.604 148.827C133.777 148.793 132.95 148.781 132.124 148.733C130.892 148.661 129.661 148.564 128.43 148.483C127.876 148.447 127.322 148.418 126.768 148.396C125.898 148.362 125.028 148.347 124.159 148.305C122.583 148.228 121.008 148.137 119.432 148.05C118.396 147.993 117.359 147.936 116.323 147.874C114.949 147.791 113.572 147.735 112.202 147.605C111.404 147.53 110.623 147.304 109.957 146.824C109.198 146.276 108.362 146.244 107.489 146.389C106.242 146.597 105 146.843 103.747 147.008C102.346 147.193 100.938 147.325 99.5292 147.442C98.4386 147.532 97.3435 147.571 96.2497 147.618C95.2948 147.658 94.339 147.704 93.3837 147.7C92.0124 147.695 90.6409 147.66 89.2701 147.615C87.9899 147.573 86.703 147.569 85.4328 147.426C84.0382 147.269 82.7103 147.563 81.3601 147.777C80.5377 147.906 79.7025 147.953 78.8746 148.05C77.7258 148.184 76.579 148.336 75.4302 148.469C74.8117 148.541 74.1903 148.588 73.571 148.654C72.5459 148.763 71.522 148.885 70.4965 148.99C69.5675 149.086 68.6365 149.162 67.7075 149.257C66.9489 149.334 66.1936 149.456 65.4335 149.504C64.7817 149.545 64.5013 149.232 64.4971 148.586C64.4685 144.16 64.4484 139.734 64.4014 135.308C64.3881 134.056 64.2819 132.805 64.2405 131.554C64.1965 130.226 64.0526 128.884 64.1797 127.571C64.361 125.698 64.7318 123.842 65.0578 121.986C65.1882 121.243 65.3905 120.51 65.6031 119.785C65.9335 118.659 66.3683 118.559 67.4359 118.455C67.8479 118.414 68.2671 118.448 68.683 118.448C68.6884 118.413 68.6937 118.377 68.699 118.342C69.5053 118.462 70.3283 118.52 71.1111 118.729C71.5322 118.841 71.8915 119.202 72.265 119.47C72.5298 119.66 72.7842 119.591 72.9514 119.395C73.7675 118.44 74.8626 118.201 76.0361 118.102C77.0627 118.015 78.085 117.88 79.1099 117.771C79.7295 117.706 80.349 117.632 80.9706 117.596C81.7958 117.548 82.623 117.531 83.4495 117.505C84.5051 117.473 85.5612 117.452 86.6167 117.413C87.4976 117.381 88.1764 117.708 88.6479 118.468C88.9118 118.893 89.3728 118.953 89.6922 118.584C90.459 117.699 91.4479 117.418 92.5726 117.411C94.2163 117.4 95.86 117.362 97.5035 117.328C98.4734 117.307 99.4429 117.272 100.413 117.243C101.368 117.215 102.323 117.186 103.279 117.157C104.22 117.129 105.162 117.099 106.103 117.072C107.13 117.042 108.157 117.012 109.185 116.987C110.441 116.956 111.698 116.914 112.954 116.904C117.438 116.867 121.921 116.825 126.405 116.823C127.986 116.822 129.567 116.92 131.148 116.989C132.07 117.029 132.993 117.07 133.911 117.164C135.638 117.342 137.367 117.517 139.084 117.77C140.889 118.036 142.684 118.382 144.48 118.712C145.374 118.876 146.112 119.274 146.511 120.163C146.642 120.453 146.883 120.578 147.249 120.446C148.147 120.124 149.045 119.794 150.03 119.819C151.144 119.848 152.07 120.302 152.888 121.012C153.167 121.253 153.399 121.548 153.65 121.821C153.939 122.135 154.208 122.148 154.509 121.843C155.049 121.294 155.684 120.893 156.459 120.878C156.955 120.868 157.469 120.984 157.951 121.125C159.132 121.469 160.313 121.821 161.467 122.246C162.407 122.591 162.754 123.413 162.851 124.348C163.002 125.811 163.141 127.277 163.277 128.742C163.321 129.223 163.356 129.705 163.367 130.188C163.403 131.946 163.406 133.706 163.467 135.464C163.491 136.166 163.604 136.869 163.729 137.563C163.915 138.588 163.754 139.568 163.356 140.499Z" fill="#6B080A"/>
<path d="M64.76 66.2396C65.7908 67.7791 66.8192 69.3204 67.8507 70.8595C68.1404 71.2918 68.5545 71.3379 68.9034 70.9616C69.0639 70.7884 69.1826 70.5762 69.3183 70.3804C70.0939 69.2612 70.8823 68.1505 71.6378 67.0178C71.9471 66.5542 72.1362 66.0538 71.8261 65.4772C71.5628 64.9874 71.1006 64.8554 70.6415 64.7614C69.5115 64.53 68.5257 64.0319 67.6457 63.3002C67.1188 62.8621 67.1093 62.4574 67.6789 62.176C69.0242 61.5114 70.2828 60.7387 71.4031 59.7211C72.1191 59.0708 72.2596 58.6439 71.7466 57.8466C70.3347 55.6523 68.9278 53.4548 67.4835 51.2033C66.881 52.4888 66.3034 53.7348 65.7144 54.9753C64.6777 57.1587 63.644 59.3437 62.5866 61.5171C62.2989 62.1085 62.3289 62.6302 62.6931 63.1646C63.3885 64.1852 64.0728 65.2134 64.76 66.2396Z" fill="#6B080A"/>
<path d="M76.2301 37.096C76.6843 36.6849 77.1164 36.2931 77.5493 35.9022C78.671 34.8894 79.9401 34.1361 81.3861 33.6771C81.626 33.601 81.9227 33.4567 82.0312 33.2563C82.5585 32.2815 83.0773 31.2967 83.5108 30.2779C84.0468 29.018 83.7784 27.8348 82.9869 26.7425C82.7164 26.3691 82.449 25.9819 82.2579 25.5653C81.9549 24.9049 81.7017 24.2201 81.4585 23.5346C81.3239 23.1551 81.0757 22.9552 80.6958 22.9329C80.304 22.9099 79.9847 23.0427 79.8126 23.4397C79.2215 24.803 78.6372 26.1695 78.0222 27.5221C77.1223 29.5009 76.1965 31.468 75.2851 33.4417C74.9596 34.1464 74.8239 34.8771 75.084 35.6318C75.2963 36.2477 75.6915 36.7337 76.2301 37.096Z" fill="#6B080A"/>
<path d="M110.943 38.9686C109.045 38.1519 107.105 37.7432 105.04 38.1003C106.23 40.9348 108.866 40.9017 110.943 38.9686Z" fill="#6B080A"/>
<path d="M93.8218 42.0291C93.1187 42.1604 92.2876 42.9306 92.2154 43.6384C92.1944 43.8451 92.2292 44.1681 92.358 44.2503C92.5057 44.3446 92.8098 44.2831 93.0052 44.1969C93.6475 43.9138 94.3153 43.7524 95.0093 43.7626C95.6282 43.7716 96.246 43.8548 96.897 43.9079C96.4241 42.8205 95.4649 41.7222 93.8218 42.0291Z" fill="#6B080A"/>
<path d="M111.502 134.84C111.379 133.535 111.398 132.214 111.407 130.901C111.411 130.327 111.492 129.741 111.631 129.183C112.016 127.635 112.056 126.105 111.665 124.547C111.447 123.678 111.352 122.777 111.223 121.886C111.135 121.277 110.807 120.949 110.188 120.95C109.871 120.95 109.676 120.831 109.5 120.561C109.275 120.216 109.03 119.845 108.703 119.611C107.91 119.046 107.049 118.773 106.045 119.122C104.574 119.634 103.326 120.502 102.092 121.414C101.579 121.793 101.193 122.221 101.151 122.886C101.095 123.793 101.051 124.7 100.974 125.605C100.933 126.094 100.864 126.586 100.752 127.064C100.521 128.05 99.8785 128.712 98.9967 129.169C98.4437 129.456 98.3453 129.695 98.5553 130.266C98.8852 130.128 99.1823 130.007 99.4774 129.88C100.047 129.637 100.278 129.742 100.472 130.336C100.497 130.416 100.539 130.493 100.548 130.574C100.666 131.67 100.818 132.765 100.884 133.864C100.958 135.103 100.948 136.348 100.983 137.59C100.994 137.943 101.117 138.313 101.045 138.644C100.908 139.283 100.704 139.914 100.463 140.523C100.145 141.329 100.001 141.373 99.1807 141.126C98.7076 140.984 98.2816 141.106 98.0211 141.513C97.8021 141.855 97.6294 142.227 97.4438 142.59C97.282 142.906 97.3551 143.181 97.6725 143.33C98.4166 143.68 99.1469 144.096 99.9302 144.318C101.306 144.708 102.586 144.111 103.238 142.92C104.032 141.471 104.253 139.865 104.499 138.272C104.615 137.518 104.654 136.748 104.675 135.983C104.703 135.019 104.757 134.045 104.654 133.091C104.527 131.91 104.352 130.74 104.599 129.56C104.815 128.523 105.217 127.56 106.002 126.826C106.64 126.229 107.356 125.715 108.009 125.132C108.303 124.871 108.549 124.788 108.858 125.064C109.058 125.244 109.319 125.385 109.45 125.605C109.713 126.048 109.861 126.214 109.366 126.626C109.183 126.779 108.986 126.915 108.794 127.056C108.329 127.398 107.85 127.722 107.405 128.087C107.214 128.243 107.044 128.476 107.28 128.748C107.916 129.481 108.089 130.372 108.116 131.301C108.139 132.089 108.07 132.883 108.141 133.665C108.273 135.105 108.295 136.529 107.804 137.907C107.599 138.481 107.29 139.018 107.02 139.589C107.261 139.628 107.494 139.695 107.728 139.698C108.877 139.716 110.009 139.842 111.127 140.122C111.805 140.292 112.154 140.036 112.19 139.371C112.205 139.11 112.166 138.843 112.123 138.584C111.914 137.336 111.62 136.096 111.502 134.84ZM108.046 123.098C108.002 123.606 107.853 124.057 107.369 124.329C106.722 124.693 106.096 125.099 105.426 125.413C104.915 125.652 104.649 125.456 104.598 124.905C104.501 123.859 104.574 122.831 104.941 121.834C105.113 121.368 105.365 121.193 105.852 121.296C106.261 121.383 106.667 121.497 107.061 121.638C107.628 121.842 108.117 122.588 108.046 123.098Z" fill="black"/>
<path d="M137.311 139.823C137.214 138.517 137.134 137.206 137.132 135.898C137.13 132.9 137.026 129.899 137.38 126.91C137.501 125.887 137.568 124.854 137.737 123.839C137.91 122.8 138.229 122.181 139.347 122.03C139.629 121.991 139.916 121.985 140.201 121.963C138.892 120.915 132.739 120.837 131.707 121.636C132.157 122.129 132.651 122.589 133.046 123.122C133.808 124.149 134.052 125.305 133.678 126.552C133.498 127.154 132.889 127.517 132.276 127.489C131.588 127.457 130.885 127.404 130.208 127.5C128.809 127.697 127.85 128.54 127.325 129.828C126.831 131.043 126.572 132.322 126.439 133.631C126.29 135.1 126.281 136.572 126.578 138.008C126.835 139.25 127.283 140.453 127.664 141.668C127.825 142.179 128.268 142.53 128.789 142.437C129.315 142.343 129.821 142.108 130.318 141.895C130.917 141.638 131.487 141.517 132.154 141.713C132.795 141.902 133.483 141.936 134.152 142.025C134.809 142.113 135.481 142.129 136.123 142.277C136.877 142.45 137.606 142.733 138.348 142.969C138.358 142.265 137.99 141.632 137.679 140.973C137.508 140.61 137.34 140.214 137.311 139.823ZM133.412 134.534C133.307 135.37 133.179 136.208 132.981 137.026C132.798 137.785 132.519 138.522 132.266 139.264C132.155 139.589 131.881 139.78 131.558 139.772C131.233 139.763 130.991 139.566 130.922 139.204C130.729 138.199 130.511 137.199 130.33 136.192C130.252 135.761 130.243 135.318 130.202 134.88C130.154 133.502 130.558 132.229 131.08 130.988C131.458 130.088 132.089 130 132.844 130.251C133.193 130.366 133.305 130.671 133.337 131.015C133.389 131.578 133.485 132.139 133.497 132.702C133.511 133.312 133.489 133.929 133.412 134.534Z" fill="black"/>
<path d="M98.3615 125.366C97.5279 125.591 96.6924 125.819 95.8557 126.042C95.4056 126.162 95.1507 125.974 95.1298 125.513C95.1214 125.328 95.1359 125.14 95.1111 124.957C94.9727 123.935 94.9422 122.92 95.4086 121.968C95.5102 121.761 95.7608 121.538 95.9725 121.504C96.1159 121.48 96.3324 121.755 96.476 121.929C96.5786 122.054 96.6152 122.233 96.6801 122.389C96.9402 123.011 97.5167 123.309 97.9751 122.995C98.5088 122.629 99.012 122.212 99.4913 121.776C99.8044 121.491 99.8219 121.013 99.6174 120.661C99.053 119.688 97.8875 119.399 97.0171 119.499C95.8243 119.635 94.7346 120.089 93.8134 120.869C92.8949 121.648 92.1073 122.546 91.8652 123.77C91.7208 124.501 91.6657 125.251 91.6084 125.996C91.4883 127.555 90.7683 128.714 89.3899 129.464C89.3005 129.513 89.2021 129.655 89.2109 129.744C89.2204 129.838 89.3455 129.984 89.4331 129.994C89.7064 130.025 89.9935 130.044 90.2614 129.994C90.8417 129.885 91.19 130.026 91.2705 130.561C91.3692 131.217 91.4026 131.885 91.4241 132.55C91.4686 133.92 91.5088 135.291 91.5089 136.662C91.5091 138.004 91.4588 139.347 91.4253 140.689C91.423 140.783 91.3909 140.882 91.3493 140.968C91.0465 141.591 90.063 142.075 89.3757 141.994C88.8854 141.936 88.7646 141.591 88.6831 141.216C88.6032 140.848 88.3416 140.836 88.1065 140.938C87.1826 141.34 87.0188 142.189 87.6218 143.008C88.2483 143.859 89.0865 144.286 90.1001 144.459C91.304 144.666 92.376 144.402 93.2749 143.573C94.6344 142.318 95.1717 140.695 95.202 138.9C95.2192 137.88 95.0638 136.857 95.0517 135.835C95.0261 133.685 95.0199 131.534 95.0563 129.384C95.0698 128.59 95.2829 128.127 96.2632 127.999C97.8457 127.793 98.4177 126.706 98.3615 125.366Z" fill="black"/>
<path d="M124.284 138.529C124.438 137.726 124.535 136.902 124.548 136.086C124.582 133.835 124.564 131.583 124.555 129.332C124.554 128.95 124.526 128.564 124.461 128.188C124.352 127.553 124.062 126.998 123.366 126.91C122.932 126.855 122.446 126.907 122.035 127.054C121.287 127.321 120.577 127.697 119.85 128.023C119.099 128.36 118.714 128.11 118.708 127.286C118.706 126.997 118.708 126.707 118.708 126.361C117.502 127.165 116.369 127.917 115.239 128.674C114.484 129.18 114.355 129.754 114.886 130.492C115.177 130.897 115.211 131.322 115.172 131.78C115.153 132.004 115.089 132.229 115.099 132.452C115.142 133.345 115.234 134.237 115.254 135.13C115.269 135.855 115.246 136.586 115.169 137.307C115.065 138.274 114.833 139.214 114.283 140.043C113.999 140.47 113.712 140.895 113.415 141.336C113.515 141.331 113.604 141.341 113.683 141.319C115.272 140.87 116.858 140.413 118.449 139.969C119.038 139.804 119.19 139.56 118.954 138.994C118.438 137.753 118.278 136.484 118.435 135.141C118.61 133.65 118.677 132.147 118.796 130.649C118.82 130.341 118.921 130.066 119.26 129.975C119.514 129.907 119.773 129.843 120.033 129.811C120.426 129.763 120.598 129.969 120.606 130.36C120.62 131.131 120.691 131.901 120.696 132.672C120.703 133.692 120.713 134.716 120.64 135.732C120.563 136.799 120.38 137.858 120.261 138.922C120.21 139.373 120.192 139.829 120.178 140.283C120.164 140.716 120.175 141.15 120.175 141.665C122.087 140.794 123.969 140.812 125.876 141.388C125.904 141.334 125.932 141.281 125.959 141.228C125.565 140.806 125.167 140.389 124.779 139.962C124.411 139.558 124.166 139.142 124.284 138.529Z" fill="black"/>
<path d="M148.636 134.778C148.671 134.772 148.706 134.767 148.741 134.761C148.741 134.56 148.751 134.359 148.738 134.159C148.724 133.963 148.687 133.769 148.658 133.574C148.394 131.787 147.44 130.395 146.067 129.302C144.87 128.349 143.455 128.185 142.022 128.623C140.729 129.017 139.771 129.842 139.438 131.224C139.267 131.932 139.105 132.647 139.01 133.368C138.815 134.836 138.665 136.309 138.503 137.781C138.48 137.994 138.524 138.216 138.486 138.424C138.302 139.428 138.512 140.357 139.028 141.213C139.713 142.349 140.758 143.036 141.979 143.489C143.29 143.976 144.548 143.855 145.671 143.038C146.837 142.188 147.787 141.11 148.457 139.824C148.892 138.988 149.088 138.07 148.985 137.123C148.899 136.338 148.754 135.559 148.636 134.778ZM144.681 140.59C144.532 140.957 144.342 141.36 143.859 141.326C143.363 141.292 143.02 140.962 142.898 140.5C142.714 139.798 142.549 139.083 142.47 138.363C142.363 137.377 142.295 136.381 142.298 135.39C142.302 133.978 142.57 132.593 142.97 131.242C143.043 130.994 143.26 130.686 143.482 130.61C143.832 130.488 144.026 130.855 144.175 131.116C144.699 132.035 145.097 133.002 145.219 134.069C145.305 134.826 145.418 135.579 145.488 136.097C145.408 137.794 145.231 139.229 144.681 140.59Z" fill="black"/>
<path d="M88.8427 126.505C87.8156 126.927 86.8152 127.323 85.8263 127.746C84.5479 128.293 83.7545 129.167 83.8358 130.668C83.8505 130.938 83.672 131.27 83.4845 131.49C83.0621 131.984 82.443 131.975 82.1645 131.49C81.7952 130.846 81.4383 130.192 81.1352 129.515C80.5939 128.307 80.8705 127.238 81.796 126.322C81.9646 126.155 82.1639 126.019 82.3491 125.869C82.3138 125.824 82.2785 125.779 82.2432 125.735C81.965 125.853 81.6878 125.974 81.4085 126.089C80.1812 126.598 78.9954 127.195 77.6844 127.51C76.8895 127.7 76.4416 128.081 76.8917 129.113C77.4865 130.477 78.1567 131.809 78.7315 133.181C79.2396 134.393 79.7152 135.625 80.1055 136.88C80.4706 138.053 80.2896 139.188 79.2768 139.996C78.7257 140.435 78.0785 140.792 77.4221 141.054C76.1733 141.553 74.8886 141.965 73.5391 142.117C72.685 142.214 71.8312 142.312 70.9479 142.412C70.9765 142.479 70.9966 142.543 71.0288 142.6C71.6727 143.735 72.6158 144.571 73.7064 145.254C74.0784 145.487 74.4788 145.436 74.8341 145.229C76.5351 144.237 78.2141 143.217 79.7163 141.923C80.8 140.99 81.7828 139.971 82.4727 138.725C83.6445 136.609 84.7501 134.456 85.87 132.312C86.5674 130.976 87.2391 129.628 87.9241 128.286C88.2283 127.691 88.5371 127.098 88.8427 126.505Z" fill="black"/>
<path d="M158.311 130.15C157.934 129.66 157.391 129.347 156.732 129.381C156.061 129.415 155.391 129.482 154.707 129.536C154.683 129.429 154.646 129.237 154.599 129.048C154.468 128.527 154.284 128.422 153.786 128.583C153.653 128.626 153.514 128.663 153.395 128.733C152.403 129.314 151.42 129.912 150.423 130.485C149.996 130.73 149.864 131.079 149.942 131.537C150.011 131.938 150.104 132.335 150.159 132.738C150.352 134.146 150.555 135.554 150.708 136.968C150.757 137.427 150.697 137.907 150.627 138.368C150.498 139.213 150.398 140.073 150.151 140.886C149.875 141.793 149.449 142.654 149.036 143.664C150.339 143.664 151.618 143.571 152.877 143.691C154.114 143.808 155.331 144.14 156.556 144.379C156.586 144.349 156.615 144.319 156.645 144.289C156.253 143.909 155.875 143.513 155.465 143.153C155.07 142.806 154.656 142.491 154.589 141.914C154.45 140.723 154.22 139.536 154.183 138.342C154.13 136.673 154.21 134.999 154.26 133.327C154.267 133.075 154.392 132.813 154.509 132.58C154.709 132.182 155.069 132.028 155.559 132.138C155.908 132.217 156.038 132.495 156.06 132.838C156.077 133.119 156.125 133.398 156.139 133.68C156.18 134.489 156.724 134.872 157.492 134.626C157.585 134.596 157.682 134.575 157.771 134.536C158.521 134.207 159.208 133.674 159.158 132.578C159.117 131.678 158.851 130.852 158.311 130.15Z" fill="black"/>
<path d="M71.6213 139.809C71.4959 139.501 71.324 139.185 71.3071 138.865C71.2438 137.668 71.2096 136.469 71.2127 135.27C71.2171 133.556 71.2638 131.841 71.2929 130.127C71.2939 130.069 71.2887 130.008 71.3066 129.956C71.3859 129.725 71.5309 129.597 71.7718 129.743C71.9119 129.828 72.0599 129.932 72.147 130.066C72.4768 130.57 72.7914 131.085 73.0958 131.605C73.4061 132.135 73.5948 132.19 74.0993 131.863C74.1933 131.802 74.2951 131.754 74.3935 131.7C75.395 131.15 75.9917 129.854 75.217 128.731C74.8572 128.209 74.3306 127.806 73.9299 127.309C73.5541 126.842 72.7941 126.881 72.3595 127.23C72.1531 127.396 71.93 127.572 71.6849 127.648C71.4886 127.71 71.1804 127.709 71.0408 127.593C70.7721 127.369 70.5781 127.051 70.3707 126.76C70.1029 126.384 69.8514 126.337 69.5097 126.645C69.0763 127.036 68.6545 127.44 68.2268 127.837C67.8517 128.185 67.4684 128.525 67.1012 128.881C66.6441 129.325 66.1996 129.781 65.6729 130.309C66.1257 130.549 66.4893 130.755 66.8645 130.937C67.1958 131.098 67.3613 131.338 67.3358 131.711C67.3241 131.882 67.3306 132.055 67.3347 132.227C67.3632 133.44 67.3257 134.659 67.4411 135.863C67.566 137.167 67.4451 138.431 67.1217 139.682C66.9867 140.204 66.7624 140.703 66.5658 141.249C68.4053 141.276 70.1885 141.131 71.9647 140.419C71.8231 140.171 71.699 139.999 71.6213 139.809Z" fill="black"/>
<path d="M59.711 146.714C59.509 145.825 59.5031 144.89 59.4154 143.975C59.356 143.355 59.3082 142.734 59.2367 142.116C59.1055 140.98 59.0766 139.845 59.3152 138.722C59.4572 138.054 59.6943 137.406 59.8417 136.739C59.9658 136.176 59.6784 135.853 59.1223 135.926C58.133 136.056 57.1495 136.23 56.1628 136.381C55.273 136.517 54.3834 136.655 53.4914 136.776C52.7505 136.876 52.0005 136.92 51.2656 137.051C50.7379 137.144 50.2959 137.404 50.1463 137.999C49.9738 138.684 50.2923 139.223 50.8923 139.182C51.484 139.142 52.0745 139.079 52.6642 139.015C53.0587 138.971 53.1783 139.098 53.2287 139.473C53.3675 140.504 53.4884 141.541 53.716 142.554C54.0033 143.833 54.4038 145.083 54.3453 146.421C54.2922 147.633 54.2619 148.847 54.2619 150.06C54.2618 150.732 53.8749 151.136 53.3983 151.483C53.1338 151.676 52.8299 151.617 52.5764 151.402C52.4675 151.309 52.3812 151.188 52.2661 151.105C50.9515 150.162 50.0141 148.906 49.2548 147.5C48.4258 145.965 48.0043 144.296 47.6239 142.61C47.4539 141.857 47.1162 141.167 46.519 140.666C46.2287 140.422 46.0669 140.175 46.0803 139.811C46.1044 139.157 46.139 138.502 46.1642 137.848C46.1954 137.036 46.2141 136.223 46.2517 135.412C46.3023 134.318 46.3523 133.225 46.4277 132.133C46.4931 131.187 46.5485 130.236 46.6882 129.3C46.9411 127.604 47.2146 125.909 47.5568 124.23C47.7428 123.317 48.0265 122.412 48.3783 121.55C48.7406 120.661 50.2883 120.297 50.9599 121.132C51.8082 122.187 52.699 123.211 53.4997 124.301C54.0741 125.082 54.2906 126.005 53.9873 126.966C53.8505 127.4 53.6115 127.802 53.4197 128.216C55.1003 128.212 60.0252 124.244 60.8006 122.217C59.7512 122.518 58.9147 122.165 58.1756 121.541C57.5137 120.982 56.8901 120.378 56.2461 119.798C55.4236 119.057 54.6113 118.304 53.7684 117.587C53.1309 117.045 52.3979 116.859 51.588 117.198C50.5268 117.641 49.4496 118.051 48.4099 118.54C47.5068 118.964 46.7149 119.571 46.1417 120.406C45.3713 121.529 44.5641 122.633 43.8918 123.813C43.3035 124.846 42.8056 125.946 42.3997 127.063C41.675 129.059 41.5734 131.177 41.4535 133.27C41.3711 134.706 41.4431 136.157 41.5306 137.596C41.6103 138.905 41.7374 140.219 41.9651 141.509C42.2279 142.998 42.575 144.476 42.9744 145.934C43.4707 147.747 44.1329 149.508 44.9809 151.188C45.5934 152.401 46.2672 153.585 46.9472 154.762C47.2694 155.32 47.8566 155.565 48.4663 155.348C49.1729 155.096 49.8617 154.769 50.5154 154.399C51.6877 153.736 52.7951 152.953 53.9906 152.338C55.2078 151.712 56.5354 151.382 57.9186 151.314C58.4819 151.286 59.0539 151.256 59.6016 151.135C60.2911 150.982 60.9291 150.673 61.1101 149.898C61.2645 149.237 60.9367 148.709 60.5598 148.188C60.2271 147.727 59.8313 147.244 59.711 146.714Z" fill="black"/>
</svg>
