<svg width="227" height="204" viewBox="0 0 227 204" fill="none" xmlns="http://www.w3.org/2000/svg">
<rect width="227" height="204" fill="white"/>
<ellipse cx="116.905" cy="102.51" rx="64.695" ry="78.03" fill="#E0B60B"/>
<ellipse cx="89.0975" cy="64.77" rx="31.2125" ry="35.19" fill="#E0B60B"/>
<ellipse cx="144.712" cy="63.75" rx="31.2125" ry="35.19" fill="#E0B60B"/>
<ellipse cx="142.442" cy="135.15" rx="31.2125" ry="35.19" fill="#E0B60B"/>
<ellipse cx="85.6926" cy="137.19" rx="31.2125" ry="35.19" fill="#E0B60B"/>
<ellipse cx="52.2101" cy="114.24" rx="17.025" ry="17.34" fill="#E0B60B"/>
<ellipse cx="39.1575" cy="107.61" rx="5.1075" ry="5.61" fill="#E0B60B"/>
<ellipse cx="35.7525" cy="126.99" rx="5.1075" ry="5.61" fill="#E0B60B"/>
<ellipse cx="39.1575" cy="134.13" rx="5.1075" ry="5.61" fill="#E0B60B"/>
<ellipse cx="39.1575" cy="141.27" rx="5.1075" ry="5.61" fill="#E0B60B"/>
<ellipse cx="50.5075" cy="134.13" rx="5.1075" ry="5.61" fill="#E0B60B"/>
<ellipse cx="52.7775" cy="141.27" rx="5.1075" ry="5.61" fill="#E0B60B"/>
<ellipse cx="45.9675" cy="143.31" rx="5.1075" ry="5.61" fill="#E0B60B"/>
<ellipse cx="56.1826" cy="92.31" rx="5.1075" ry="5.61" fill="#E0B60B"/>
<ellipse cx="180.465" cy="94.86" rx="15.89" ry="14.28" fill="#E0B60B"/>
<ellipse cx="192.383" cy="93.33" rx="6.2425" ry="5.61" fill="#E0B60B"/>
<ellipse cx="193.518" cy="94.35" rx="6.2425" ry="5.61" fill="#E0B60B"/>
<ellipse cx="192.383" cy="98.43" rx="6.2425" ry="5.61" fill="#E0B60B"/>
<ellipse cx="191.247" cy="103.53" rx="6.2425" ry="5.61" fill="#E0B60B"/>
<ellipse cx="184.438" cy="109.65" rx="6.2425" ry="5.61" fill="#E0B60B"/>
<ellipse cx="184.438" cy="112.71" rx="6.2425" ry="5.61" fill="#E0B60B"/>
<ellipse cx="190.112" cy="110.67" rx="6.2425" ry="5.61" fill="#E0B60B"/>
<ellipse cx="191.247" cy="116.79" rx="6.2425" ry="5.61" fill="#E0B60B"/>
<ellipse cx="194.653" cy="122.91" rx="2.8375" ry="2.55" fill="#E0B60B"/>
<ellipse cx="187.842" cy="122.91" rx="2.8375" ry="2.55" fill="#E0B60B"/>
<ellipse cx="187.842" cy="126.99" rx="2.8375" ry="2.55" fill="#E0B60B"/>
<ellipse cx="191.248" cy="125.97" rx="2.8375" ry="2.55" fill="#E0B60B"/>
<ellipse cx="190.113" cy="128.01" rx="2.8375" ry="2.55" fill="#E0B60B"/>
<ellipse cx="188.978" cy="132.09" rx="2.8375" ry="2.55" fill="#E0B60B"/>
<ellipse cx="190.113" cy="134.13" rx="2.8375" ry="2.55" fill="#E0B60B"/>
<ellipse cx="192.383" cy="134.13" rx="2.8375" ry="2.55" fill="#E0B60B"/>
<ellipse cx="194.653" cy="133.11" rx="2.8375" ry="2.55" fill="#E0B60B"/>
<ellipse cx="194.653" cy="129.03" rx="2.8375" ry="2.55" fill="#E0B60B"/>
<rect width="2.26126" height="3.07453" transform="matrix(0.983607 -0.180328 0.221371 0.97519 48.7483 91.1878)" fill="#E0B60B"/>
<path d="M201.668 96.15C202.001 94.8682 201.497 93.1302 200.722 91.9442C197.064 86.3463 191.541 82.6187 184.994 80.0619C183.816 79.6018 183.476 79.0087 183.625 77.8548C184.768 68.991 185.796 60.115 186.969 51.2546C187.141 49.9541 186.74 49.2218 185.738 48.3291C180.357 43.5368 176.585 38.1999 179.208 30.9461C179.726 29.516 180.073 28.0342 180.639 26.6213C181.013 25.6862 180.783 25.1265 179.817 24.74C177.983 24.0056 176.222 23.0291 174.306 22.5714C163.946 20.096 153.556 17.724 143.158 15.3789C141.191 14.9353 138.968 14.9396 139.84 11.9826C130.741 12.5333 123.319 9.32608 116.56 4.59C110.177 11.2945 101.524 11.7348 92.786 12.1375C93.0019 13.0718 93.1849 13.8636 93.3152 14.4278C86.1323 16.22 79.0383 17.7846 72.0974 19.7795C65.1378 21.7798 58.0287 23.4858 51.9923 26.1179C52.817 28.9826 54.3984 31.5407 54.0648 33.8781C53.1373 40.3777 50.1925 45.7597 42.7848 47.3614C41.2459 47.6942 40.9648 48.3751 41.1787 49.6679C42.6977 58.8478 44.0566 68.05 45.6704 77.2161C46.5368 82.137 47.8072 87.0004 48.9326 92.0572C53.8678 91.1547 58.4332 90.3197 63.1427 89.4584C62.9408 86.5476 62.7477 83.765 62.5232 80.5289C65.3826 83.0273 67.8801 85.1783 70.3192 87.3815C70.6134 87.6472 70.82 88.277 70.6775 88.5984C70.0302 90.0578 69.3496 91.4341 66.9971 91.0902C65.3629 90.8512 63.6492 91.081 61.9731 91.0379C54.115 90.8358 47.4844 92.9562 42.7419 98.943C42.241 99.5753 40.9841 99.9754 40.0462 100.028C37.4595 100.174 34.8559 100.079 32.7572 100.079C32.7572 105.479 32.711 110.652 32.7876 115.823C32.8085 117.232 32.5379 118.062 30.8667 118.665C27.2798 119.96 25.0404 122.271 25.4016 126.045C25.4703 126.763 25.3821 127.492 25.4071 128.215C25.502 130.961 27.686 133.11 30.6984 133.453C31.5496 133.55 32.397 133.674 33.4555 133.813C33.014 138.968 32.5794 144.044 32.114 149.479C36.7787 149.479 41.2495 149.479 45.7328 149.479C46.0733 151.048 46.3212 152.29 46.6134 153.523C48.2306 160.345 51.5208 166.243 58.0398 170.401C59.8422 171.551 61.4385 172.967 63.2696 174.074C65.1422 175.205 67.0826 176.356 69.1754 177.063C76.3267 179.479 83.4657 181.984 90.7834 183.925C98.9137 186.082 105.356 190.133 110.52 196.047C111.532 197.205 112.731 198.23 113.903 199.374C115.112 198 116.24 196.873 117.176 195.629C122.021 189.187 128.955 185.191 136.961 182.959C144.881 180.75 153.052 179.249 161.146 177.568C165.455 176.673 169.269 175.116 172.216 172.086C174.07 170.181 175.74 168.111 177.755 166.357C180.835 163.676 182.012 160.393 181.962 156.719C181.828 146.834 181.564 136.95 181.375 127.066C181.328 124.61 181.368 122.153 181.368 119.677C183.108 119.621 183.912 120.23 183.848 122.01C183.708 125.866 183.8 129.73 183.803 133.59C183.805 135.962 187.538 139.416 190.177 139.499C194.942 139.649 199.149 135.779 198.8 131.521C198.268 125.026 197.809 118.523 197.086 112.044C196.826 109.715 197.351 107.686 198.249 105.569C199.558 102.482 200.835 99.3555 201.668 96.15ZM102.343 28.8601C103.001 28.8889 103.857 29.3328 104.233 29.8256C107.725 34.3948 111.142 39.0104 114.547 43.6328C114.86 44.0571 115.091 44.6203 115.098 45.1219C115.144 48.6747 115.122 52.2283 115.122 56.1512C114.524 55.5309 114.129 55.1784 113.807 54.7787C107.624 47.1211 101.434 39.4688 95.302 31.7788C94.709 31.035 94.4908 30.05 93.9359 28.8149C97.2557 28.8149 99.8043 28.7487 102.343 28.8601ZM62.7905 69.3833C62.207 68.7518 61.7895 67.8028 61.7593 66.9865C61.6418 63.8179 61.7114 60.6436 61.7114 56.8986C63.4622 58.2529 64.7334 59.2362 66.3434 60.4816C66.576 57.1512 66.7871 54.1294 66.9982 51.1075C63.8448 46.6751 68.5085 43.0826 68.2361 38.9597C68.4126 38.9302 68.5891 38.9008 68.7656 38.8713C72.7085 42.8659 76.6514 46.8605 80.7056 50.9678C82.5455 50.0186 84.3286 49.0987 86.3473 48.0572C82.4355 43.3498 78.6057 38.7412 74.6477 33.9782C77.253 33.0681 79.6667 32.2249 82.1673 31.3514C86.0938 35.1809 89.9927 38.9836 93.8719 42.767C94.0313 42.689 94.0994 42.6693 94.148 42.6301C98.0067 39.5158 97.6761 38.915 101.207 43.1189C104.832 47.4361 107.835 52.1728 111.188 56.6788C112.682 58.6851 114.367 60.5758 115.965 62.5189C116.249 62.4194 116.534 62.3199 116.818 62.2204C116.818 60.15 116.8 58.0794 116.821 56.0091C116.904 47.6864 117.036 39.3639 117.052 31.0411C117.055 29.6425 117.549 29.2029 119.06 29.0569C126.08 28.3778 132.985 29.3324 139.915 30.0552C146.735 30.7666 153.42 31.9082 159.726 34.4963C161.716 35.313 163.006 36.2914 163.389 38.4647C164.437 44.4019 168.061 49.277 171.913 54.0317C172.513 54.7727 173 55.8622 172.908 56.7375C172.24 63.1588 171.401 69.5655 170.645 75.9796C170.53 76.9503 170.399 77.5569 168.972 77.716C160.66 78.643 152.369 79.7196 144.065 80.7089C143.62 80.7619 142.98 80.6117 142.677 80.3368C139.378 77.338 136.127 74.2954 133.116 71.4988C133.475 70.2037 134.189 69.086 133.829 68.5436C133.415 67.9199 132.052 67.8052 130.868 67.3874C130.766 67.0347 130.663 66.2322 130.293 65.546C130.007 65.015 129.386 64.6295 128.914 64.1794C128.415 64.6885 127.827 65.1502 127.448 65.7235C127.199 66.1001 127.252 66.6378 127.122 67.3715C123.412 65.9675 119.851 64.6331 116.303 63.2696C115.247 62.8634 114.282 62.4115 113.142 63.2061C112.851 63.4084 111.948 63.2387 111.618 62.9605C111.292 62.686 111.087 61.9657 111.255 61.5991C112.545 58.7921 111.617 57.7066 108.109 58.0264C107.981 58.038 107.848 57.9992 107.496 57.9579C109.475 56.1772 108.49 54.4687 107.454 52.794C106.229 50.8138 104.944 48.8633 103.685 46.9C103.527 46.9491 103.368 46.9983 103.21 47.0474C103.21 47.6899 103.21 48.3323 103.21 49.2609C101.369 48.208 100.237 47.1892 100.11 45.3343C100.024 44.0837 99.7468 42.7 99.0339 41.6661C98.2314 40.5025 96.9323 40.7211 96.1821 41.9419C95.1836 43.5668 94.3057 45.2513 93.3209 46.8834C93.1314 47.1975 92.7302 47.4766 92.3548 47.6211C89.1631 48.8498 85.9074 49.9538 82.7722 51.2877C81.3087 51.9105 80.0684 51.951 78.5623 51.5013C75.8339 50.6867 73.0416 50.0382 70.2574 49.3844C68.6641 49.0102 67.7856 49.3725 67.8017 51.1372C67.8479 56.2021 67.5966 61.2709 67.7293 66.3326C67.77 67.8841 68.481 69.497 69.2236 70.9413C70.4868 73.3981 72.0509 75.7286 73.4164 78.1452C73.8031 78.8295 73.9394 79.628 74.1905 80.3742C74.0298 80.4445 73.8691 80.5148 73.7084 80.585C73.385 80.3331 73.0216 80.1123 72.7445 79.8243C69.4079 76.3581 66.048 72.9088 62.7905 69.3833ZM76.1593 70.7481C77.5992 72.4707 78.7902 74.3631 80.0532 76.2017C80.2756 76.5256 80.3207 76.9478 80.5941 77.759C77.1219 77.0864 75.0486 75.373 73.8501 73.0609C72.5074 70.4707 71.2461 67.7313 70.7236 64.9398C69.9387 60.7474 69.8276 56.4531 69.363 51.4854C70.9756 52.0647 72.2874 52.2105 73.0515 52.8693C75.7439 55.1904 78.8175 56.1802 82.5545 56.4015C87.8777 56.7168 92.5644 58.9292 97.0254 61.4456C99.2835 62.7194 100.049 65.9521 97.0287 67.5681C96.1219 68.0533 95.3438 68.7329 94.0021 69.6794C95.2607 70.2533 96.1608 70.9881 97.1047 71.0368C100.803 71.2279 103.225 73.3406 106.024 75.1102C108.045 76.3875 110.707 77.151 113.187 77.4535C115.913 77.7861 117.62 75.8482 119.019 73.9215C119.277 73.5652 119.547 73.2154 119.812 72.8627C119.997 72.9439 120.182 73.0252 120.367 73.1065C120.062 73.7478 119.868 74.459 119.432 75.0183C117.668 77.2828 115.792 79.0927 112.125 78.7573C105.86 78.1842 99.5459 78.0577 93.2579 77.6705C89.593 77.4449 86.7583 74.307 86.1628 71.0672C85.5816 67.9049 84.3428 64.8114 83.0896 61.7892C82.4173 60.1682 81.3372 60.1837 80.1304 61.5515C78.7159 63.1547 77.3257 64.7787 76.0087 66.447C74.8805 67.8762 74.913 69.2572 76.1593 70.7481ZM92.2579 54.2126C92.3863 54.0607 92.5146 53.9089 92.6429 53.757C97.8531 54.6391 101.861 57.3853 105.523 60.6146C108.44 63.1871 111.25 65.8584 114.141 68.4552C115.133 69.3457 115.573 69.8827 113.695 70.3031C112.862 70.4896 112.213 71.3389 111.128 72.1512C110.591 71.7842 109.587 71.3663 109.03 70.6626C107.793 69.1016 106.609 67.4688 105.712 65.7365C103.878 62.1981 101.422 59.2643 97.5044 57.3706C95.6594 56.4787 94.001 55.275 92.2579 54.2126ZM32.5431 127.975C32.2763 128.046 32.0095 128.118 31.7427 128.19C31.3497 127.597 30.4843 126.845 30.6526 126.44C31.1501 125.242 32.0561 124.182 32.8022 123.068C33.1418 123.193 33.4815 123.318 33.8211 123.444C33.3951 124.954 32.9691 126.464 32.5431 127.975ZM35.5598 143.902C35.9203 139.967 36.1892 136.023 36.6906 132.104C36.8672 130.723 37.8613 129.424 38.0138 128.045C38.119 127.095 37.3552 126.086 37.0994 125.078C36.8875 124.244 36.7659 123.37 36.8124 122.523C36.821 122.367 38.0078 121.994 38.3328 122.177C39.0396 122.575 40.0125 123.242 40.0521 123.844C40.3764 128.76 40.9169 133.713 40.5057 138.595C40.3386 140.579 37.9764 142.414 36.6129 144.316C36.2619 144.178 35.9109 144.04 35.5598 143.902ZM41.1424 145.341C40.6458 145.323 40.1556 145.165 39.0324 144.953C40.0654 144.272 40.5947 143.787 41.2371 143.524C43.9798 142.402 46.7557 141.346 49.5201 140.268C51.5656 139.469 51.4299 139.331 50.4215 137.585C49.6483 136.246 49.2774 134.638 49.1149 133.116C48.8914 131.023 49.0606 128.899 49.0091 126.789C48.977 125.468 49.386 124.929 51.0323 125.283C55.965 126.343 55.8879 126.294 55.8722 130.796C55.8586 134.646 55.3398 138.351 53.2544 141.785C52.9686 142.256 52.8123 142.792 52.6134 143.303C52.572 143.409 52.6074 143.539 52.6074 144.03C57.7316 143.13 61.7181 140.144 66.661 138.867C63.7769 134.593 60.6768 130.647 66.458 126.734C66.2679 126.483 66.1696 126.232 65.9724 126.11C63.2277 124.413 63.0607 122.033 63.3041 119.292C63.7187 114.623 63.7559 109.926 63.9572 105.111C59.8258 105.277 56.5132 107.007 53.0398 109.032C56.2682 112.864 55.3074 117.239 55.4333 121.439C55.0669 121.552 54.9401 121.628 54.818 121.623C49.5397 121.382 49.5398 121.381 49.5412 116.561C49.5416 114.933 49.5699 113.304 49.5335 111.677C49.4941 109.912 49.453 108.188 51.0319 106.798C51.3929 106.481 51.4037 105.842 51.7554 104.838C47.1233 106.178 42.8111 106.973 39.138 109.271C38.7677 109.503 38.7201 110.541 38.9343 111.071C39.9047 113.468 40.6486 115.864 40.1052 118.598C38.6746 118.297 37.3297 118.014 35.8571 117.704C35.8571 113.331 35.8257 109.055 35.8768 104.78C35.8915 103.544 36.6081 102.758 38.1385 102.783C38.7398 102.793 39.3453 102.659 39.9449 102.68C43.1069 102.794 45.8962 102.37 46.8105 99.0526C46.8374 98.955 46.9877 98.8724 47.0992 98.8095C47.2057 98.7495 47.3366 98.7243 47.7875 98.5723C47.2825 100.005 46.0541 101.261 47.8316 102.438C48.8676 103.124 49.6127 103.176 50.1703 101.995C50.7727 100.719 51.4156 99.4585 52.0409 98.1911C52.2386 98.2278 52.4363 98.2644 52.6341 98.301C52.6085 98.8259 52.6007 99.3521 52.5529 99.8754C52.4986 100.47 52.2232 101.107 52.3865 101.641C52.5495 102.174 53.1367 102.602 53.5379 103.076C54.0415 102.693 54.739 102.395 55.0059 101.907C55.4725 101.054 55.6329 100.07 56.0046 99.1689C56.1954 98.7061 56.5655 98.303 57.3312 97.9902C57.1976 99.5973 57.0638 101.204 56.9315 102.795C61.4527 104.17 60.2256 100.134 61.7751 98.8356C61.9907 98.9548 62.2061 99.0422 62.1965 99.073C61.5318 101.209 62.1679 102.463 64.7831 103.058C65.6314 103.252 66.2186 104.68 66.734 105.627C67.0419 106.193 67.0601 106.921 67.0702 107.578C67.235 118.31 67.4468 129.042 67.4963 139.775C67.5212 145.163 66.6282 146.01 60.6107 145.984C54.1202 145.955 47.6313 145.582 41.1424 145.341ZM112.278 177.427C109.305 176.068 106.778 174.622 104.029 173.724C99.8324 172.353 95.5162 171.244 91.1893 170.236C84.6018 168.702 78.0988 166.833 72.3238 163.657C66.7211 160.576 64.0945 155.473 63.104 149.61C64.497 149.361 65.8147 149.191 67.0905 148.881C68.6934 148.492 70.1492 147.915 70.1137 146.05C70.0715 143.834 71.4859 142.954 73.7506 142.347C80.2277 140.611 86.6249 138.633 93.32 136.673C94.3246 138.567 95.3169 140.211 96.0796 141.937C96.9278 143.857 96.2067 145.622 94.3146 146.78C93.0963 147.526 92.0416 147.866 90.945 146.432C89.9567 145.14 88.8188 145.435 88.3721 147.064C87.9944 148.441 87.725 149.66 85.6025 149.334C85.3262 149.292 84.5208 150.206 84.5623 150.629C84.7615 152.659 85.1676 154.674 85.5134 156.773C85.7882 156.704 86.1344 156.616 86.4678 156.532C87.2719 158.37 88.7347 159.09 90.9149 158.738C92.3305 158.51 93.8317 160.569 93.5566 161.953C92.5376 162.488 91.724 162.915 90.9104 163.342C91.7406 163.877 92.5709 164.411 92.9902 164.681C93.9525 165.733 94.6552 166.501 95.3578 167.269C96.052 166.395 96.7461 165.522 97.6354 164.404C98.4409 164.67 99.5716 164.676 99.1317 162.777C98.4352 162.777 97.8054 162.777 97.1934 162.777C96.5202 160.711 96.7748 160.259 98.97 159.854C100.808 159.515 102.655 159.173 104.517 158.994C107.159 158.74 109.223 157.75 110.658 155.709C111.031 155.178 111.559 154.735 112.278 153.975C112.278 162.056 112.278 169.702 112.278 177.427ZM108.191 134.786C107.591 134.684 107.127 133.94 106.011 132.992C108.688 131.915 110.972 131.12 113.127 130.104C117.953 127.827 121.809 129.094 124.931 132.683C127.959 136.164 130.794 139.78 133.453 143.622C127.2 143.568 121.081 143.823 116.21 139.673C113.844 137.657 111.683 135.376 108.191 134.786ZM126.707 150.598C125.472 151.513 124.237 152.429 123.062 153.3C122.762 153.175 122.592 153.155 122.532 153.072C121.997 152.314 121.481 151.546 120.96 150.78C121.97 150.52 122.966 150.186 123.996 150.022C124.765 149.9 125.578 149.998 126.371 149.998C126.483 150.198 126.595 150.398 126.707 150.598ZM126.793 172.786C126.487 172.905 125.819 172.551 125.472 172.264C122.116 169.49 118.777 166.699 115.479 163.87C115.04 163.493 114.623 162.886 114.597 162.369C114.497 160.329 114.556 158.283 114.556 155.826C120.174 160.982 125.451 165.825 130.964 170.885C129.696 171.479 128.281 172.208 126.793 172.786ZM172.591 133.294C171.815 135.213 171.073 137.215 169.836 138.895C167.259 142.396 166.647 146.234 166.644 150.265C166.643 153.44 166.279 156.509 163.899 159.114C162.311 160.853 161.456 161.061 159.344 159.896C154.182 157.047 154.182 157.045 148.738 159.471C148.096 159.757 147.465 160.064 146.61 160.464C147.489 161.343 148.235 162.093 148.987 162.839C150.509 164.35 150.408 164.813 148.341 165.448C146.124 166.129 143.748 167.525 141.705 167.213C139.686 166.904 137.98 164.872 136.169 163.558C134.772 162.543 133.276 162.114 131.422 161.986C128.994 161.818 126.605 161.101 124.224 160.533C123.541 160.371 122.947 159.908 122.615 159.259C123.693 159.147 124.768 158.392 125.244 159.703C125.272 159.782 126.567 159.715 126.97 159.401C127.488 158.998 127.699 158.277 128.169 157.478C128.431 158.845 128.657 160.025 128.884 161.204C129.112 161.263 129.34 161.322 129.568 161.381C130.58 160.43 131.591 159.48 132.663 158.472C132.561 159.39 132.467 160.239 132.312 161.626C136.585 160.921 140.615 160.433 144.54 159.565C149.944 158.369 154.209 155.346 157.614 151.566C161.572 147.172 165.187 142.516 168.729 137.839C169.827 136.389 170.341 134.533 170.878 132.802C171.526 130.712 170.049 129.458 167.719 130.162C166.024 130.674 164.467 131.552 162.851 132.271C161.197 133.007 159.546 133.748 157.497 134.663C157.497 132.11 157.484 130.032 157.501 127.955C157.517 125.784 157.528 123.612 157.629 121.444C157.645 121.092 158.114 120.758 158.374 120.415C158.694 120.763 159.277 121.102 159.292 121.46C159.412 124.171 159.415 126.886 159.466 129.599C159.478 130.24 159.534 130.879 159.595 131.963C161.588 131.142 163.373 130.617 164.894 129.728C166.846 128.587 168.889 128.789 170.908 129.048C172.564 129.261 173.382 131.342 172.591 133.294ZM162.313 137.774C161.729 139.882 160.574 141.459 158.298 142.626C158.114 140.155 159.569 138.455 162.313 137.774ZM193.814 135.637C192.436 136.763 190.425 136.735 188.708 135.564C187.18 134.522 186.449 132.352 187.29 131.058C187.504 130.729 188.189 130.333 188.479 130.424C189.025 130.596 189.629 131.025 189.861 131.488C190.114 131.992 189.973 132.657 190.008 133.343C194.492 133.14 193.281 129.616 194.468 127.298C197.302 130.941 197.113 132.939 193.814 135.637ZM186.924 121.286C188.839 122.645 190.462 123.609 191.793 124.831C192.355 125.347 192.701 126.553 192.418 127.179C192.094 127.898 191.027 128.44 190.156 128.831C189.619 129.072 188.802 129.016 188.192 128.851C187.705 128.719 187.001 128.235 186.98 127.881C186.864 125.856 186.924 123.824 186.924 121.286ZM196 104.798C195.632 105.992 195.296 107.251 195.321 108.474C195.419 113.238 195.67 117.999 195.859 122.761C195.877 123.219 195.861 123.678 195.861 124.431C194.929 123.742 194.191 123.257 193.53 122.7C187.228 117.387 179.608 115.824 171.233 116.221C150.513 117.202 130.563 121.605 110.855 127.097C102.149 129.522 93.4512 131.974 84.7733 134.48C81.2024 135.511 77.6973 136.725 74.1531 137.833C73.1484 138.147 72.1116 138.377 70.8683 138.705C70.8683 136.235 70.8158 134.011 70.8775 131.79C71.1288 122.744 71.4454 113.7 71.6544 104.653C71.6843 103.359 72.1428 102.753 73.5135 102.344C78.1432 100.959 82.7275 99.4525 87.4657 97.9491C84.7282 94.7518 84.7191 91.2564 85.8895 87.8065C86.6042 85.6998 88.4127 84.1769 90.906 83.4533C95.4739 82.1278 100.094 81.2266 104.981 81.9541C102.584 82.304 100.169 82.5758 97.7968 83.028C95.8436 83.4003 93.8427 83.7889 92.0343 84.515C86.7852 86.6226 85.7239 88.1817 86.4882 93.2188C86.6867 94.5264 87.9451 95.8542 89.0848 96.8228C89.5446 97.2136 90.9923 96.6657 91.9905 96.5449C91.8782 95.8581 91.8277 95.1568 91.6341 94.489C91.4788 93.953 91.1502 93.4575 91.0517 92.8505C92.5538 93.9034 93.2117 96.3047 95.7359 95.307C96.338 95.069 96.3169 93.5576 96.5408 92.7771C96.9168 93.0661 97.4803 93.6686 98.198 94.0079C99.0895 94.4293 99.9358 94.4354 100.497 93.3452C100.736 92.8804 101.517 92.4886 102.13 92.3576C104.782 91.7903 107.569 91.6011 110.115 90.7895C125.718 85.8164 141.666 81.992 158.107 80.3539C165.699 79.5976 173.641 79.0255 181.079 81.2051C187.945 83.2168 194.198 86.5146 198.386 92.1372C198.976 92.9298 199.345 94.1951 199.105 95.087C198.225 98.3577 197.003 101.552 196 104.798Z" fill="black"/>
<path d="M201.668 96.15C202.001 94.8682 201.497 93.1302 200.722 91.9442C197.064 86.3463 191.541 82.6187 184.994 80.0619C183.816 79.6018 183.476 79.0087 183.625 77.8548C184.768 68.991 185.796 60.115 186.969 51.2546C187.141 49.9541 186.74 49.2218 185.738 48.3291C180.357 43.5368 176.585 38.1999 179.208 30.9461C179.726 29.516 180.073 28.0342 180.639 26.6213C181.013 25.6862 180.783 25.1265 179.817 24.74C177.983 24.0056 176.222 23.0291 174.306 22.5714C163.946 20.096 153.556 17.724 143.158 15.3789C141.191 14.9353 138.968 14.9396 139.84 11.9826C130.741 12.5333 123.319 9.32608 116.56 4.59C110.177 11.2945 101.524 11.7348 92.786 12.1375C93.0019 13.0718 93.1849 13.8636 93.3152 14.4278C86.1323 16.22 79.0383 17.7846 72.0974 19.7795C65.1378 21.7798 58.0287 23.4858 51.9923 26.1179C52.817 28.9826 54.3984 31.5407 54.0648 33.8781C53.1373 40.3777 50.1925 45.7597 42.7848 47.3614C41.2459 47.6942 40.9648 48.3751 41.1787 49.6679C42.6977 58.8478 44.0566 68.05 45.6704 77.2161C46.5368 82.137 47.8072 87.0004 48.9326 92.0572C53.8678 91.1547 58.4332 90.3197 63.1427 89.4584C62.9408 86.5476 62.7477 83.765 62.5232 80.5289C65.3826 83.0273 67.8801 85.1783 70.3192 87.3815C70.6134 87.6472 70.82 88.277 70.6775 88.5984C70.0302 90.0578 69.3496 91.4341 66.9971 91.0902C65.3629 90.8512 63.6492 91.081 61.9731 91.0379C54.115 90.8358 47.4844 92.9562 42.7419 98.943C42.241 99.5753 40.9841 99.9754 40.0462 100.028C37.4595 100.174 34.8559 100.079 32.7572 100.079C32.7572 105.479 32.711 110.652 32.7876 115.823C32.8085 117.232 32.5379 118.062 30.8667 118.665C27.2798 119.96 25.0404 122.271 25.4016 126.045C25.4703 126.763 25.3821 127.492 25.4071 128.215C25.502 130.961 27.686 133.11 30.6984 133.453C31.5496 133.55 32.397 133.674 33.4555 133.813C33.014 138.968 32.5794 144.044 32.114 149.479C36.7787 149.479 41.2495 149.479 45.7328 149.479C46.0733 151.048 46.3212 152.29 46.6134 153.523C48.2306 160.345 51.5208 166.243 58.0398 170.401C59.8422 171.551 61.4385 172.967 63.2696 174.074C65.1422 175.205 67.0826 176.356 69.1754 177.063C76.3267 179.479 83.4657 181.984 90.7834 183.925C98.9137 186.082 105.356 190.133 110.52 196.047C111.532 197.205 112.731 198.23 113.903 199.374C115.112 198 116.24 196.873 117.176 195.629C122.021 189.187 128.955 185.191 136.961 182.959C144.881 180.75 153.052 179.249 161.146 177.568C165.455 176.673 169.269 175.116 172.216 172.086C174.07 170.181 175.74 168.111 177.755 166.357C180.835 163.676 182.012 160.393 181.962 156.719C181.828 146.834 181.564 136.95 181.375 127.066C181.328 124.61 181.368 122.153 181.368 119.677C183.108 119.621 183.912 120.23 183.848 122.01C183.708 125.866 183.8 129.73 183.803 133.59C183.805 135.962 187.538 139.416 190.177 139.499C194.942 139.649 199.149 135.779 198.8 131.521C198.268 125.026 197.809 118.523 197.086 112.044C196.826 109.715 197.351 107.686 198.249 105.569C199.558 102.482 200.835 99.3555 201.668 96.15ZM102.343 28.8601C103.001 28.8889 103.857 29.3328 104.233 29.8256C107.725 34.3948 111.142 39.0104 114.547 43.6328C114.86 44.0571 115.091 44.6203 115.098 45.1219C115.144 48.6747 115.122 52.2283 115.122 56.1512C114.524 55.5309 114.129 55.1784 113.807 54.7787C107.624 47.1211 101.434 39.4688 95.302 31.7788C94.709 31.035 94.4908 30.05 93.9359 28.8149C97.2557 28.8149 99.8043 28.7487 102.343 28.8601ZM62.7905 69.3833C62.207 68.7518 61.7895 67.8028 61.7593 66.9865C61.6418 63.8179 61.7114 60.6436 61.7114 56.8986C63.4622 58.2529 64.7334 59.2362 66.3434 60.4816C66.576 57.1512 66.7871 54.1294 66.9982 51.1075C63.8448 46.6751 68.5085 43.0826 68.2361 38.9597C68.4126 38.9302 68.5891 38.9008 68.7656 38.8713C72.7085 42.8659 76.6514 46.8605 80.7056 50.9678C82.5455 50.0186 84.3286 49.0987 86.3473 48.0572C82.4355 43.3498 78.6057 38.7412 74.6477 33.9782C77.253 33.0681 79.6667 32.2249 82.1673 31.3514C86.0938 35.1809 89.9927 38.9836 93.8719 42.767C94.0313 42.689 94.0994 42.6693 94.148 42.6301C98.0067 39.5158 97.6761 38.915 101.207 43.1189C104.832 47.4361 107.835 52.1728 111.188 56.6788C112.682 58.6851 114.367 60.5758 115.965 62.5189C116.249 62.4194 116.534 62.3199 116.818 62.2204C116.818 60.15 116.8 58.0794 116.821 56.0091C116.904 47.6864 117.036 39.3639 117.052 31.0411C117.055 29.6425 117.549 29.2029 119.06 29.0569C126.08 28.3778 132.985 29.3324 139.915 30.0552C146.735 30.7666 153.42 31.9082 159.726 34.4963C161.716 35.313 163.006 36.2914 163.389 38.4647C164.437 44.4019 168.061 49.277 171.913 54.0317C172.513 54.7727 173 55.8622 172.908 56.7375C172.24 63.1588 171.401 69.5655 170.645 75.9796C170.53 76.9503 170.399 77.5569 168.972 77.716C160.66 78.643 152.369 79.7196 144.065 80.7089C143.62 80.7619 142.98 80.6117 142.677 80.3368C139.378 77.338 136.127 74.2954 133.116 71.4988C133.475 70.2037 134.189 69.086 133.829 68.5436C133.415 67.9199 132.052 67.8052 130.868 67.3874C130.766 67.0347 130.663 66.2322 130.293 65.546C130.007 65.015 129.386 64.6295 128.914 64.1794C128.415 64.6885 127.827 65.1502 127.448 65.7235C127.199 66.1001 127.252 66.6378 127.122 67.3715C123.412 65.9675 119.851 64.6331 116.303 63.2696C115.247 62.8634 114.282 62.4115 113.142 63.2061C112.851 63.4084 111.948 63.2387 111.618 62.9605C111.292 62.686 111.087 61.9657 111.255 61.5991C112.545 58.7921 111.617 57.7066 108.109 58.0264C107.981 58.038 107.848 57.9992 107.496 57.9579C109.475 56.1772 108.49 54.4687 107.454 52.794C106.229 50.8138 104.944 48.8633 103.685 46.9C103.527 46.9491 103.368 46.9983 103.21 47.0474C103.21 47.6899 103.21 48.3323 103.21 49.2609C101.369 48.208 100.237 47.1892 100.11 45.3343C100.024 44.0837 99.7468 42.7 99.0339 41.6661C98.2314 40.5025 96.9323 40.7211 96.1821 41.9419C95.1836 43.5668 94.3057 45.2513 93.3209 46.8834C93.1314 47.1975 92.7302 47.4766 92.3548 47.6211C89.1631 48.8498 85.9074 49.9538 82.7722 51.2877C81.3087 51.9105 80.0684 51.951 78.5623 51.5013C75.8339 50.6867 73.0416 50.0382 70.2574 49.3844C68.6641 49.0102 67.7856 49.3725 67.8017 51.1372C67.8479 56.2021 67.5966 61.2709 67.7293 66.3326C67.77 67.8841 68.481 69.497 69.2236 70.9413C70.4868 73.3981 72.0509 75.7286 73.4164 78.1452C73.8031 78.8295 73.9394 79.628 74.1905 80.3742C74.0298 80.4445 73.8691 80.5148 73.7084 80.585C73.385 80.3331 73.0216 80.1123 72.7445 79.8243C69.4079 76.3581 66.048 72.9088 62.7905 69.3833ZM76.1593 70.7481C77.5992 72.4707 78.7902 74.3631 80.0532 76.2017C80.2756 76.5256 80.3207 76.9478 80.5941 77.759C77.1219 77.0864 75.0486 75.373 73.8501 73.0609C72.5074 70.4707 71.2461 67.7313 70.7236 64.9398C69.9387 60.7474 69.8276 56.4531 69.363 51.4854C70.9756 52.0647 72.2874 52.2105 73.0515 52.8693C75.7439 55.1904 78.8175 56.1802 82.5545 56.4015C87.8777 56.7168 92.5644 58.9292 97.0254 61.4456C99.2835 62.7194 100.049 65.9521 97.0287 67.5681C96.1219 68.0533 95.3438 68.7329 94.0021 69.6794C95.2607 70.2533 96.1608 70.9881 97.1047 71.0368C100.803 71.2279 103.225 73.3406 106.024 75.1102C108.045 76.3875 110.707 77.151 113.187 77.4535C115.913 77.7861 117.62 75.8482 119.019 73.9215C119.277 73.5652 119.547 73.2154 119.812 72.8627C119.997 72.9439 120.182 73.0252 120.367 73.1065C120.062 73.7478 119.868 74.459 119.432 75.0183C117.668 77.2828 115.792 79.0927 112.125 78.7573C105.86 78.1842 99.5459 78.0577 93.2579 77.6705C89.593 77.4449 86.7583 74.307 86.1628 71.0672C85.5816 67.9049 84.3428 64.8114 83.0896 61.7892C82.4173 60.1682 81.3372 60.1837 80.1304 61.5515C78.7159 63.1547 77.3257 64.7787 76.0087 66.447C74.8805 67.8762 74.913 69.2572 76.1593 70.7481ZM92.2579 54.2126C92.3863 54.0607 92.5146 53.9089 92.6429 53.757C97.8531 54.6391 101.861 57.3853 105.523 60.6146C108.44 63.1871 111.25 65.8584 114.141 68.4552C115.133 69.3457 115.573 69.8827 113.695 70.3031C112.862 70.4896 112.213 71.3389 111.128 72.1512C110.591 71.7842 109.587 71.3663 109.03 70.6626C107.793 69.1016 106.609 67.4688 105.712 65.7365C103.878 62.1981 101.422 59.2643 97.5044 57.3706C95.6594 56.4787 94.001 55.275 92.2579 54.2126ZM32.5431 127.975C32.2763 128.046 32.0095 128.118 31.7427 128.19C31.3497 127.597 30.4843 126.845 30.6526 126.44C31.1501 125.242 32.0561 124.182 32.8022 123.068C33.1418 123.193 33.4815 123.318 33.8211 123.444C33.3951 124.954 32.9691 126.464 32.5431 127.975ZM35.5598 143.902C35.9203 139.967 36.1892 136.023 36.6906 132.104C36.8672 130.723 37.8613 129.424 38.0138 128.045C38.119 127.095 37.3552 126.086 37.0994 125.078C36.8875 124.244 36.7659 123.37 36.8124 122.523C36.821 122.367 38.0078 121.994 38.3328 122.177C39.0396 122.575 40.0125 123.242 40.0521 123.844C40.3764 128.76 40.9169 133.713 40.5057 138.595C40.3386 140.579 37.9764 142.414 36.6129 144.316C36.2619 144.178 35.9109 144.04 35.5598 143.902ZM41.1424 145.341C40.6458 145.323 40.1556 145.165 39.0324 144.953C40.0654 144.272 40.5947 143.787 41.2371 143.524C43.9798 142.402 46.7557 141.346 49.5201 140.268C51.5656 139.469 51.4299 139.331 50.4215 137.585C49.6483 136.246 49.2774 134.638 49.1149 133.116C48.8914 131.023 49.0606 128.899 49.0091 126.789C48.977 125.468 49.386 124.929 51.0323 125.283C55.965 126.343 55.8879 126.294 55.8722 130.796C55.8586 134.646 55.3398 138.351 53.2544 141.785C52.9686 142.256 52.8123 142.792 52.6134 143.303C52.572 143.409 52.6074 143.539 52.6074 144.03C57.7316 143.13 61.7181 140.144 66.661 138.867C63.7769 134.593 60.6768 130.647 66.458 126.734C66.2679 126.483 66.1696 126.232 65.9724 126.11C63.2277 124.413 63.0607 122.033 63.3041 119.292C63.7187 114.623 63.7559 109.926 63.9572 105.111C59.8258 105.277 56.5132 107.007 53.0398 109.032C56.2682 112.864 55.3074 117.239 55.4333 121.439C55.0669 121.552 54.9401 121.628 54.818 121.623C49.5397 121.382 49.5398 121.381 49.5412 116.561C49.5416 114.933 49.5699 113.304 49.5335 111.677C49.4941 109.912 49.453 108.188 51.0319 106.798C51.3929 106.481 51.4037 105.842 51.7554 104.838C47.1233 106.178 42.8111 106.973 39.138 109.271C38.7677 109.503 38.7201 110.541 38.9343 111.071C39.9047 113.468 40.6486 115.864 40.1052 118.598C38.6746 118.297 37.3297 118.014 35.8571 117.704C35.8571 113.331 35.8257 109.055 35.8768 104.78C35.8915 103.544 36.6081 102.758 38.1385 102.783C38.7398 102.793 39.3453 102.659 39.9449 102.68C43.1069 102.794 45.8962 102.37 46.8105 99.0526C46.8374 98.955 46.9877 98.8724 47.0992 98.8095C47.2057 98.7495 47.3366 98.7243 47.7875 98.5723C47.2825 100.005 46.0541 101.261 47.8316 102.438C48.8676 103.124 49.6127 103.176 50.1703 101.995C50.7727 100.719 51.4156 99.4585 52.0409 98.1911C52.2386 98.2278 52.4363 98.2644 52.6341 98.301C52.6085 98.8259 52.6007 99.3521 52.5529 99.8754C52.4986 100.47 52.2232 101.107 52.3865 101.641C52.5495 102.174 53.1367 102.602 53.5379 103.076C54.0415 102.693 54.739 102.395 55.0059 101.907C55.4725 101.054 55.6329 100.07 56.0046 99.1689C56.1954 98.7061 56.5655 98.303 57.3312 97.9902C57.1976 99.5973 57.0638 101.204 56.9315 102.795C61.4527 104.17 60.2256 100.134 61.7751 98.8356C61.9907 98.9548 62.2061 99.0422 62.1965 99.073C61.5318 101.209 62.1679 102.463 64.7831 103.058C65.6314 103.252 66.2186 104.68 66.734 105.627C67.0419 106.193 67.0601 106.921 67.0702 107.578C67.235 118.31 67.4468 129.042 67.4963 139.775C67.5212 145.163 66.6282 146.01 60.6107 145.984C54.1202 145.955 47.6313 145.582 41.1424 145.341ZM112.278 177.427C109.305 176.068 106.778 174.622 104.029 173.724C99.8324 172.353 95.5162 171.244 91.1893 170.236C84.6018 168.702 78.0988 166.833 72.3238 163.657C66.7211 160.576 64.0945 155.473 63.104 149.61C64.497 149.361 65.8147 149.191 67.0905 148.881C68.6934 148.492 70.1492 147.915 70.1137 146.05C70.0715 143.834 71.4859 142.954 73.7506 142.347C80.2277 140.611 86.6249 138.633 93.32 136.673C94.3246 138.567 95.3169 140.211 96.0796 141.937C96.9278 143.857 96.2067 145.622 94.3146 146.78C93.0963 147.526 92.0416 147.866 90.945 146.432C89.9567 145.14 88.8188 145.435 88.3721 147.064C87.9944 148.441 87.725 149.66 85.6025 149.334C85.3262 149.292 84.5208 150.206 84.5623 150.629C84.7615 152.659 85.1676 154.674 85.5134 156.773C85.7882 156.704 86.1344 156.616 86.4678 156.532C87.2719 158.37 88.7347 159.09 90.9149 158.738C92.3305 158.51 93.8317 160.569 93.5566 161.953C92.5376 162.488 91.724 162.915 90.9104 163.342C91.7406 163.877 92.5709 164.411 92.9902 164.681C93.9525 165.733 94.6552 166.501 95.3578 167.269C96.052 166.395 96.7461 165.522 97.6354 164.404C98.4409 164.67 99.5716 164.676 99.1317 162.777C98.4352 162.777 97.8054 162.777 97.1934 162.777C96.5202 160.711 96.7748 160.259 98.97 159.854C100.808 159.515 102.655 159.173 104.517 158.994C107.159 158.74 109.223 157.75 110.658 155.709C111.031 155.178 111.559 154.735 112.278 153.975C112.278 162.056 112.278 169.702 112.278 177.427ZM108.191 134.786C107.591 134.684 107.127 133.94 106.011 132.992C108.688 131.915 110.972 131.12 113.127 130.104C117.953 127.827 121.809 129.094 124.931 132.683C127.959 136.164 130.794 139.78 133.453 143.622C127.2 143.568 121.081 143.823 116.21 139.673C113.844 137.657 111.683 135.376 108.191 134.786ZM126.707 150.598C125.472 151.513 124.237 152.429 123.062 153.3C122.762 153.175 122.592 153.155 122.532 153.072C121.997 152.314 121.481 151.546 120.96 150.78C121.97 150.52 122.966 150.186 123.996 150.022C124.765 149.9 125.578 149.998 126.371 149.998C126.483 150.198 126.595 150.398 126.707 150.598ZM126.793 172.786C126.487 172.905 125.819 172.551 125.472 172.264C122.116 169.49 118.777 166.699 115.479 163.87C115.04 163.493 114.623 162.886 114.597 162.369C114.497 160.329 114.556 158.283 114.556 155.826C120.174 160.982 125.451 165.825 130.964 170.885C129.696 171.479 128.281 172.208 126.793 172.786ZM172.591 133.294C171.815 135.213 171.073 137.215 169.836 138.895C167.259 142.396 166.647 146.234 166.644 150.265C166.643 153.44 166.279 156.509 163.899 159.114C162.311 160.853 161.456 161.061 159.344 159.896C154.182 157.047 154.182 157.045 148.738 159.471C148.096 159.757 147.465 160.064 146.61 160.464C147.489 161.343 148.235 162.093 148.987 162.839C150.509 164.35 150.408 164.813 148.341 165.448C146.124 166.129 143.748 167.525 141.705 167.213C139.686 166.904 137.98 164.872 136.169 163.558C134.772 162.543 133.276 162.114 131.422 161.986C128.994 161.818 126.605 161.101 124.224 160.533C123.541 160.371 122.947 159.908 122.615 159.259C123.693 159.147 124.768 158.392 125.244 159.703C125.272 159.782 126.567 159.715 126.97 159.401C127.488 158.998 127.699 158.277 128.169 157.478C128.431 158.845 128.657 160.025 128.884 161.204C129.112 161.263 129.34 161.322 129.568 161.381C130.58 160.43 131.591 159.48 132.663 158.472C132.561 159.39 132.467 160.239 132.312 161.626C136.585 160.921 140.615 160.433 144.54 159.565C149.944 158.369 154.209 155.346 157.614 151.566C161.572 147.172 165.187 142.516 168.729 137.839C169.827 136.389 170.341 134.533 170.878 132.802C171.526 130.712 170.049 129.458 167.719 130.162C166.024 130.674 164.467 131.552 162.851 132.271C161.197 133.007 159.546 133.748 157.497 134.663C157.497 132.11 157.484 130.032 157.501 127.955C157.517 125.784 157.528 123.612 157.629 121.444C157.645 121.092 158.114 120.758 158.374 120.415C158.694 120.763 159.277 121.102 159.292 121.46C159.412 124.171 159.415 126.886 159.466 129.599C159.478 130.24 159.534 130.879 159.595 131.963C161.588 131.142 163.373 130.617 164.894 129.728C166.846 128.587 168.889 128.789 170.908 129.048C172.564 129.261 173.382 131.342 172.591 133.294ZM162.313 137.774C161.729 139.882 160.574 141.459 158.298 142.626C158.114 140.155 159.569 138.455 162.313 137.774ZM193.814 135.637C192.436 136.763 190.425 136.735 188.708 135.564C187.18 134.522 186.449 132.352 187.29 131.058C187.504 130.729 188.189 130.333 188.479 130.424C189.025 130.596 189.629 131.025 189.861 131.488C190.114 131.992 189.973 132.657 190.008 133.343C194.492 133.14 193.281 129.616 194.468 127.298C197.302 130.941 197.113 132.939 193.814 135.637ZM186.924 121.286C188.839 122.645 190.462 123.609 191.793 124.831C192.355 125.347 192.701 126.553 192.418 127.179C192.094 127.898 191.027 128.44 190.156 128.831C189.619 129.072 188.802 129.016 188.192 128.851C187.705 128.719 187.001 128.235 186.98 127.881C186.864 125.856 186.924 123.824 186.924 121.286ZM196 104.798C195.632 105.992 195.296 107.251 195.321 108.474C195.419 113.238 195.67 117.999 195.859 122.761C195.877 123.219 195.861 123.678 195.861 124.431C194.929 123.742 194.191 123.257 193.53 122.7C187.228 117.387 179.608 115.824 171.233 116.221C150.513 117.202 130.563 121.605 110.855 127.097C102.149 129.522 93.4512 131.974 84.7733 134.48C81.2024 135.511 77.6973 136.725 74.1531 137.833C73.1484 138.147 72.1116 138.377 70.8683 138.705C70.8683 136.235 70.8158 134.011 70.8775 131.79C71.1288 122.744 71.4454 113.7 71.6544 104.653C71.6843 103.359 72.1428 102.753 73.5135 102.344C78.1432 100.959 82.7275 99.4525 87.4657 97.9491C84.7282 94.7518 84.7191 91.2564 85.8895 87.8065C86.6042 85.6998 88.4127 84.1769 90.906 83.4533C95.4739 82.1278 100.094 81.2266 104.981 81.9541C102.584 82.304 100.169 82.5758 97.7968 83.028C95.8436 83.4003 93.8427 83.7889 92.0343 84.515C86.7852 86.6226 85.7239 88.1817 86.4882 93.2188C86.6867 94.5264 87.9451 95.8542 89.0848 96.8228C89.5446 97.2136 90.9923 96.6657 91.9905 96.5449C91.8782 95.8581 91.8277 95.1568 91.6341 94.489C91.4788 93.953 91.1502 93.4575 91.0517 92.8505C92.5538 93.9034 93.2117 96.3047 95.7359 95.307C96.338 95.069 96.3169 93.5576 96.5408 92.7771C96.9168 93.0661 97.4803 93.6686 98.198 94.0079C99.0895 94.4293 99.9358 94.4354 100.497 93.3452C100.736 92.8804 101.517 92.4886 102.13 92.3576C104.782 91.7903 107.569 91.6011 110.115 90.7895C125.718 85.8164 141.666 81.992 158.107 80.3539C165.699 79.5976 173.641 79.0255 181.079 81.2051C187.945 83.2168 194.198 86.5146 198.386 92.1372C198.976 92.9298 199.345 94.1951 199.105 95.087C198.225 98.3577 197.003 101.552 196 104.798Z" fill="black"/>
<path d="M104.295 102.205C103.954 99.5954 104.061 99.3667 106.459 99.0154C107.879 98.8074 107.89 97.9297 107.921 97.0205C107.957 95.9449 108.15 94.4358 106.591 94.4073C104.671 94.3721 102.385 94.5234 100.905 95.4392C99.3874 96.3777 98.0582 96.7453 96.3515 96.7418C95.3241 96.7397 94.0416 96.6932 93.3138 97.1886C90.6043 99.0332 88.6795 101.384 88.8611 104.669C88.9989 107.162 88.0856 108.949 85.1546 109.645C84.2132 109.868 83.4247 110.567 82.5057 110.922C81.2956 111.389 80.8508 112.08 80.9063 113.294C81.0192 115.763 80.9714 118.241 80.8911 120.712C80.8751 121.205 80.4177 121.685 80.1639 122.171C79.8578 121.676 79.3385 121.199 79.2826 120.682C79.0427 118.462 78.9781 116.226 78.7574 114.004C78.7046 113.473 78.4541 112.708 78.025 112.501C76.4556 111.741 73.5878 113.343 73.6359 114.923C73.7404 118.358 73.8651 121.795 74.1196 125.223C74.2993 127.644 75.6307 128.368 78.0056 127.396C79.479 126.793 80.757 125.766 82.5544 126.771C82.8969 126.963 84.0275 126.587 84.3011 126.195C84.9864 125.213 85.7035 124.103 85.8429 122.988C86.194 120.178 86.1556 117.33 86.4444 114.512C86.5321 113.656 87.1784 112.847 87.5688 112.016C87.7902 112.077 88.0115 112.137 88.2329 112.198C88.3178 112.531 88.4731 112.864 88.4768 113.199C88.5171 116.878 88.5135 120.558 88.5654 124.237C88.5924 126.155 88.0914 127.768 86.1599 128.907C85.683 129.188 85.6 130.009 85.3358 130.582C86.1228 130.761 86.9714 131.197 87.6823 131.06C88.7661 130.85 89.8009 130.312 90.7735 129.789C92.4662 128.878 93.5509 127.648 93.5015 125.701C93.3931 121.419 93.4654 117.135 93.3624 112.853C93.3136 110.826 93.2403 108.943 95.5883 107.708C96.2527 107.359 96.4935 106.359 96.9286 105.657C96.1336 105.468 95.2754 105.389 94.5608 105.06C93.793 104.705 93.16 104.115 92.4682 103.628C93.1553 103.015 93.7335 102.097 94.5549 101.86C95.761 101.513 97.1408 101.652 98.598 101.577C98.5489 102.178 98.8122 103.269 98.3326 103.911C97.4033 105.155 97.6909 106.101 98.4015 107.236C98.7441 107.783 98.9074 108.497 98.9007 109.133C98.8557 113.355 98.7513 117.577 98.6471 121.798C98.6092 123.336 98.3334 124.757 96.8399 125.835C96.292 126.23 96.121 127.047 95.7487 127.725C99.9506 128.313 101.913 127.182 102.717 123.846C102.858 123.259 102.941 122.656 102.989 122.055C103.349 117.545 103.635 113.028 104.094 108.525C104.18 107.677 104.877 106.855 105.386 106.07C106.108 104.958 106.916 103.891 107.869 102.549C106.213 102.39 105.237 102.296 104.295 102.205Z" fill="black"/>
<path d="M139.461 91.0204C136.161 90.7889 133.384 91.7454 131.273 94.3411C129.85 96.0914 130.698 97.7079 130.649 99.444C130.447 106.574 131.763 113.786 129.204 121.312C132.047 120.155 134.509 119.237 136.881 118.161C138.758 117.31 138.821 116.423 137.606 114.869C137.059 114.169 136.536 113.289 136.489 112.468C136.262 108.499 136.313 108.479 140.446 107.12C142.539 106.432 144.285 105.254 144.482 103.256C144.839 99.629 144.467 95.983 142.413 92.7423C141.885 91.9093 140.511 91.0941 139.461 91.0204ZM139.926 102.979C139.774 103.962 138.247 104.774 136.945 105.51C136.742 102.041 136.055 98.6863 137.471 95.3948C139.883 97.6183 140.341 100.3 139.926 102.979Z" fill="black"/>
<path d="M184.685 92.1275C182.25 91.9093 181.614 90.9253 182.55 88.4136C182.982 88.7753 183.353 88.9691 183.534 89.2587C184.154 90.2526 184.915 90.7654 186.087 89.9523C187.154 89.2119 187.275 88.2548 186.634 87.2248C186.341 86.7535 185.96 86.3266 185.632 85.8723C184.582 84.4187 182.142 83.5077 180.229 83.8609C178.201 84.2353 176.936 85.3765 176.734 87.521C176.378 91.2949 173.897 95.0189 176.301 98.8782C176.33 98.9249 176.31 98.997 176.31 99.0573C176.306 101.59 176.412 104.128 176.258 106.653C176.158 108.292 176.088 110.065 173.797 110.805C173.408 110.931 172.997 111.988 173.183 112.402C174.2 114.668 178.195 115.198 179.837 113.224C180.632 112.267 181.195 110.962 181.303 109.774C181.649 105.93 181.687 102.065 181.957 98.2148C182.024 97.2597 182.077 96.0173 183.645 95.8924C185.073 95.7785 185.742 96.541 186.227 97.7034C186.816 99.1161 187.84 100.172 189.955 99.5703C189.955 98.7916 189.961 98.075 189.954 97.3587C189.924 94.1411 188.213 92.4437 184.685 92.1275Z" fill="black"/>
<path d="M184.685 92.1275C182.25 91.9093 181.614 90.9253 182.55 88.4135C182.982 88.7753 183.353 88.969 183.534 89.2587C184.154 90.2526 184.915 90.7654 186.087 89.9523C187.154 89.2119 187.275 88.2547 186.634 87.2248C186.341 86.7535 185.96 86.3266 185.632 85.8722C184.582 84.4187 182.142 83.5077 180.229 83.8608C178.201 84.2353 176.936 85.3765 176.734 87.521C176.378 91.2949 173.897 95.0189 176.301 98.8782C176.33 98.9248 176.31 98.997 176.31 99.0573C176.306 101.59 176.412 104.128 176.258 106.653C176.158 108.292 176.088 110.065 173.797 110.805C173.408 110.931 172.997 111.988 173.183 112.402C174.2 114.668 178.195 115.198 179.837 113.224C180.632 112.267 181.195 110.962 181.303 109.774C181.649 105.93 181.687 102.065 181.957 98.2148C182.024 97.2597 182.077 96.0173 183.645 95.8924C185.073 95.7785 185.742 96.541 186.227 97.7034C186.816 99.116 187.84 100.172 189.955 99.5702C189.955 98.7915 189.961 98.075 189.954 97.3586C189.924 94.1411 188.213 92.4437 184.685 92.1275Z" fill="black"/>
<path d="M169.899 90.2186C170.252 88.9755 170.546 87.9395 170.84 86.9035C171.7 87.2248 172.561 87.5461 173.641 87.9494C173.812 87.8227 174.249 87.5516 174.617 87.2198C176.391 85.6228 176.36 85.0042 174.234 83.7827C173.176 83.1748 171.991 82.7056 170.803 82.3268C168.395 81.5588 167.009 82.0498 165.903 84.1554C165.434 85.0483 165.226 86.0942 165.119 87.0896C164.883 89.2901 164.756 91.5017 164.659 93.7114C164.641 94.1236 164.975 94.5468 165.14 94.9673C165.61 96.1686 166.371 97.3508 166.476 98.5779C166.639 100.484 166.503 102.439 166.224 104.341C165.778 107.399 165.322 110.551 161.068 111.428C160.86 111.471 160.527 111.85 160.573 111.943C161.102 113.006 161.512 114.19 162.346 115.027C162.757 115.439 164.14 115.492 164.812 115.201C168.428 113.635 170.387 110.859 170.647 107.348C170.927 103.578 170.831 99.7818 170.786 95.9982C170.773 94.8922 170.95 94.1459 172.054 93.4309C172.974 92.8351 173.506 91.7558 174.424 90.6268C172.65 90.4667 171.486 90.3617 169.899 90.2186Z" fill="black"/>
<path d="M159.555 100.435C159.514 97.1133 158.69 93.6783 160.536 90.4719C160.824 89.9709 160.653 89.2563 160.719 88.2851C159.005 89.2902 157.756 90.2259 156.329 90.8072C154.568 91.5248 153.825 92.4359 153.958 94.2686C154.173 97.2419 154.016 100.237 154.016 103.229C151.965 103.502 151.652 102.339 151.638 101.035C151.602 97.7317 151.626 94.4278 151.626 90.5491C149.69 91.3377 148.18 92.0034 146.625 92.5683C145.595 92.9424 145.232 93.4949 145.348 94.4991C145.762 98.0917 146.048 101.696 146.481 105.287C146.704 107.138 148.072 107.757 150.079 107.326C151.878 106.94 153.766 106.486 155.569 106.609C158.431 106.804 160.522 106.165 161.651 103.676C160.939 102.633 159.569 101.541 159.555 100.435Z" fill="black"/>
<path d="M124.838 106.504C125.496 106.207 126.144 105.886 126.767 105.534C129.379 104.057 129.693 101.062 127.594 99.0453C124.641 96.2095 120.377 97.8521 118.828 100.74C117.123 103.921 115.872 107.239 116.742 110.843C117.26 112.986 117.421 115.616 120.152 116.406C123.986 117.515 128.027 116.512 128.652 111.825C128.729 111.248 128.288 110.286 127.785 110.07C127.295 109.86 126.172 110.191 125.762 110.62C124.871 111.551 124.258 112.697 123.422 113.913C120.83 110.83 121.428 108.042 124.838 106.504ZM121.696 105.772C121.99 104.725 122.183 103.642 122.635 102.654C122.781 102.335 123.609 102.267 124.125 102.085C124.242 102.608 124.636 103.263 124.421 103.628C123.912 104.493 123.113 105.22 122.431 106.003C122.186 105.926 121.941 105.849 121.696 105.772Z" fill="black"/>
<path d="M114.797 92.424C112.678 94.1043 110.859 95.5009 109.121 96.9735C108.848 97.2042 108.835 97.79 108.882 98.1949C108.976 99.013 109.388 99.8312 109.329 100.629C108.86 107.07 110.76 113.669 107.432 120.242C110.005 118.759 112.22 117.526 114.368 116.205C114.771 115.958 115.136 115.361 115.136 114.926C115.127 108.244 115.059 101.562 114.99 94.8806C114.983 94.187 114.884 93.4943 114.797 92.424Z" fill="black"/>
<path d="M130.838 55.7521C131.559 57.8201 133.16 56.3091 134.535 56.2265C134.786 57.6699 133.618 59.5631 136.195 60.138C136.449 59.9409 136.748 59.7131 137.042 59.4788C137.387 59.2029 137.726 58.9214 138.109 58.6091C137.971 58.2578 137.784 57.9403 137.73 57.6054C137.666 57.2012 137.715 56.7824 137.715 56.2051C139.143 56.0538 140.798 57.3668 141.481 55.4807C141.646 55.0271 141.348 53.9922 141.086 53.9402C140.136 53.7511 139.111 53.8656 137.923 53.8656C137.837 53.0686 137.855 51.9233 137.534 50.8605C137.388 50.3771 136.563 49.7454 136.062 49.7562C135.616 49.7659 134.961 50.5156 134.808 51.0358C134.52 52.0211 134.525 53.076 134.466 53.601C133.081 53.7537 132.025 53.7161 131.141 54.0482C130.817 54.1703 130.657 55.2346 130.838 55.7521Z" fill="black"/>
<path d="M121.368 56.2467C121.843 57.6146 120.359 59.6046 123.118 60.1062C123.682 59.6549 124.325 59.1407 124.913 58.6696C124.776 57.8562 124.652 57.1235 124.461 55.9896C125.53 56.2567 126.145 56.4955 126.779 56.5512C128.182 56.6745 129.198 54.7302 128.039 54.047C127.281 53.6005 126.017 53.8478 124.846 53.7761C124.718 52.9761 124.643 51.789 124.29 50.673C124.157 50.2506 123.344 49.6946 122.91 49.7396C122.446 49.7877 121.816 50.4225 121.698 50.8908C121.44 51.9104 121.462 52.9869 121.408 53.6039C120.034 53.7997 118.902 53.8604 117.871 54.1832C117.634 54.2576 117.551 55.2876 117.73 55.7804C118.494 57.8876 120.103 56.1872 121.368 56.2467Z" fill="black"/>
<path d="M158.358 56.2455C159.181 58.2133 160.62 56.5756 161.847 56.5386C162.48 57.8605 160.631 60.0369 163.696 60.4182C164.225 59.9908 164.857 59.4803 165.376 59.0612C165.252 58.186 165.147 57.4468 164.987 56.3186C166.031 56.5854 166.646 56.8228 167.283 56.8884C168.592 57.0233 169.709 55.2214 168.683 54.5539C167.878 54.0306 166.519 54.1948 165.243 54.0329C165.199 53.3732 165.298 52.322 165.004 51.3682C164.833 50.812 164.036 50.4114 163.52 49.9409C163.06 50.4492 162.363 50.9014 162.194 51.4785C161.917 52.423 161.984 53.4487 161.943 53.9592C160.529 54.1423 159.404 54.1813 158.389 54.5027C158.165 54.5735 158.136 55.7131 158.358 56.2455Z" fill="black"/>
<path d="M147.978 68.3786C146.981 68.1588 145.915 68.1882 144.662 68.1172C144.59 67.3902 144.617 66.2539 144.312 65.1954C144.168 64.6988 143.382 64.352 142.887 63.9374C142.439 64.3888 141.745 64.783 141.595 65.3039C141.304 66.3129 141.318 67.3933 141.26 67.9383C139.905 68.1303 138.769 68.187 137.743 68.5187C137.52 68.5908 137.485 69.7225 137.717 70.2375C138.578 72.1477 139.98 70.6059 141.26 70.471C141.661 71.8836 140.152 73.9617 142.858 74.3801C145.18 73.7186 144.536 72.0324 144.452 70.4867C145.915 70.3638 147.425 71.7127 148.171 69.9259C148.362 69.4696 148.185 68.4241 147.978 68.3786Z" fill="black"/>
<path d="M162.506 68.8761C161.707 68.3889 160.378 68.604 159.171 68.495C159.095 67.7528 159.128 66.6508 158.818 65.6332C158.665 65.1301 157.88 64.7824 157.381 64.3643C156.939 64.8263 156.26 65.2325 156.105 65.7622C155.815 66.7608 155.826 67.8306 155.712 68.8708C155.606 68.7015 155.5 68.5321 155.394 68.3628C154.328 68.5612 152.859 68.4613 152.32 69.0496C151.864 69.5472 152.485 70.8416 152.66 71.9864C154.014 71.4821 154.787 71.1941 155.742 70.8386C156.228 72.2793 154.665 74.3881 157.499 74.8678C158.114 74.4013 158.767 73.9055 159.251 73.5387C159.146 72.5677 159.062 71.7762 158.948 70.7194C159.876 70.983 160.483 71.2367 161.117 71.3189C162.521 71.5008 163.649 69.5735 162.506 68.8761Z" fill="black"/>
<path d="M144.294 54.5492C143.279 55.8406 144.548 56.5602 145.399 57.3339C146.231 57.0236 146.936 56.7609 147.663 56.4902C148.614 59.9702 148.614 59.9702 149.511 60.4891C150.174 59.979 150.866 59.4455 151.358 59.0661C151.242 58.1164 151.149 57.3609 151.045 56.5107C152.596 56.4876 154.226 57.6403 154.877 55.7883C155.036 55.3372 154.726 54.3239 154.43 54.2534C153.555 54.045 152.578 54.1789 151.302 54.1789C151.229 53.4221 151.283 52.3226 150.96 51.3216C150.783 50.7753 149.966 50.396 149.438 49.9414C148.987 50.4672 148.308 50.9399 148.138 51.5309C147.87 52.4638 147.945 53.476 147.855 54.7385C146.467 53.6808 145.208 53.386 144.294 54.5492Z" fill="black"/>
<path d="M126.217 41.7893C126.478 43.1918 125.014 45.2385 127.857 45.7182C128.454 45.2289 129.088 44.7093 129.553 44.3278C129.451 43.3833 129.368 42.6154 129.255 41.578C130.254 41.8355 130.869 42.0852 131.505 42.14C132.959 42.2651 133.956 40.3047 132.748 39.6294C131.994 39.2081 130.775 39.4591 129.571 39.3987C129.46 38.6537 129.396 37.4662 129.061 36.344C128.928 35.901 128.064 35.2351 127.759 35.3207C127.206 35.4755 126.56 36.0618 126.425 36.5693C126.155 37.5862 126.203 38.6714 126.158 39.2412C124.743 39.4196 123.624 39.4486 122.62 39.7696C122.383 39.8453 122.328 40.973 122.546 41.4977C123.379 43.5107 124.833 41.7721 126.217 41.7893Z" fill="black"/>
<path d="M154.41 41.7668C154.977 43.1895 153.42 45.1844 156.202 45.7245C156.766 45.278 157.409 44.7691 157.965 44.3296C157.873 43.4434 157.79 42.653 157.682 41.61C158.615 41.8397 159.229 42.0673 159.862 42.131C161.288 42.2744 162.33 40.353 161.153 39.6747C160.378 39.2278 159.082 39.5102 157.784 39.4563C157.784 38.916 158.004 37.9662 157.719 37.1605C157.464 36.4379 156.653 35.8737 156.088 35.2396C155.593 35.8638 154.876 36.4325 154.661 37.1267C154.412 37.9329 154.603 38.8492 154.603 39.2056C153.119 39.3727 152.04 39.3699 151.083 39.6761C150.786 39.7708 150.58 40.7777 150.75 41.2445C151.492 43.2856 153.115 42.024 154.41 41.7668Z" fill="black"/>
<path d="M140.66 41.7869C141.298 43.1459 139.579 45.1884 142.43 45.7143C142.987 45.2796 143.635 44.7732 144.229 44.3091C144.095 43.4551 143.974 42.6763 143.807 41.6097C144.829 41.8475 145.505 42.1059 146.196 42.1447C147.606 42.2241 148.508 40.1787 147.298 39.5817C146.512 39.1939 145.296 39.5087 143.989 39.5087C143.989 38.8696 144.201 37.8732 143.921 37.0046C143.705 36.335 142.873 35.8259 142.315 35.2455C141.829 35.867 141.123 36.4348 140.915 37.1241C140.67 37.9328 140.857 38.8471 140.857 39.7157C140.7 39.555 140.542 39.3944 140.384 39.2337C139.307 39.4023 138.179 39.4581 137.192 39.8239C136.965 39.9082 137.018 41.1386 137.299 41.6971C138.194 43.4797 139.416 41.7478 140.66 41.7869Z" fill="black"/>
<path d="M78.3254 152.2C78.5596 152.306 78.7853 152.427 78.9771 152.522C80.4615 151.833 80.6995 150.58 80.0688 149.596C79.7562 149.108 78.2462 149.24 77.0679 149.059C76.229 148.067 78.2172 145.704 75.7283 145.465C72.5289 145.157 74.1505 147.984 73.4238 149.268C72.095 149.734 69.7214 148.694 69.8008 150.895C69.8827 153.17 72.2564 151.854 73.7286 152.266C73.5672 152.78 73.1724 153.342 73.3445 153.625C73.7983 154.373 74.3819 155.173 75.1552 155.594C75.4832 155.773 76.6201 155.187 76.9996 154.702C77.2508 154.381 76.7152 153.624 76.7073 153.059C76.7009 152.595 76.9529 152.128 77.0904 151.662C77.5023 151.841 77.9165 152.016 78.3254 152.2Z" fill="black"/>
<path d="M83.9248 162.208C83.236 161.247 84.6942 159.389 82.5677 159.261C80.3087 159.124 81.1855 161.134 80.7713 162.121C79.6519 162.624 77.675 161.664 77.8232 163.503C77.8619 163.983 79.5435 164.356 80.7945 164.925C80.1491 165.923 80.8486 166.862 82.357 166.962C84.4815 167.103 83.6419 165.759 83.5031 164.756C83.4831 164.611 84.4322 164.113 84.6616 164.226C86.203 164.981 86.496 164.102 86.4821 163.098C86.4531 160.994 84.7081 162.543 83.9248 162.208Z" fill="black"/>
<path d="M109.663 162.138C108.979 160.98 108.548 159.416 107.9 159.34C105.536 159.062 106.542 161.132 106.067 162.204C105.946 162.071 105.826 161.937 105.705 161.804C104.803 162.363 103.901 162.922 102.999 163.481C103.913 163.917 104.828 164.353 105.742 164.79C105.874 164.689 106.005 164.588 106.137 164.487C106.16 164.605 106.174 164.725 106.207 164.841C106.377 165.447 106.369 166.205 106.786 166.606C107.099 166.908 108.261 166.99 108.503 166.742C108.847 166.39 108.777 165.64 108.73 165.07C108.666 164.276 108.713 163.771 109.857 164.043C110.37 164.164 111.181 164.27 111.436 164.026C111.763 163.713 111.933 162.856 111.686 162.574C111.389 162.232 110.591 162.214 109.998 162.122C109.873 162.103 109.742 162.119 109.663 162.138Z" fill="black"/>
<path d="M93.7547 67.1057C96.2245 67.135 97.0294 66.5696 97.1142 64.7454C97.1894 63.125 95.1877 61.3482 93.256 61.3208C91.3132 61.2933 88.9867 62.9577 88.9309 64.4149C88.8785 65.7876 91.1866 67.0752 93.7547 67.1057Z" fill="black"/>
</svg>
