<svg width="200" height="200" viewBox="0 0 200 200" fill="none" xmlns="http://www.w3.org/2000/svg">
<g clip-path="url(#clip0_335_150)">
<rect x="47" y="44" width="111" height="117" fill="#94744F"/>
<ellipse cx="165.559" cy="144.744" rx="5.5" ry="2.5" transform="rotate(-48.0023 165.559 144.744)" fill="#94744F"/>
<ellipse cx="159.999" cy="145.029" rx="6.91437" ry="5.93008" transform="rotate(-0.821283 159.999 145.029)" fill="#94744F"/>
<ellipse cx="168" cy="78" rx="17" ry="20" fill="#94744F"/>
<ellipse cx="179.854" cy="71.8761" rx="10.8242" ry="11.7994" transform="rotate(17.3732 179.854 71.8761)" fill="#94744F"/>
<ellipse cx="182.854" cy="86.4931" rx="10.8242" ry="11.7994" transform="rotate(17.3732 182.854 86.4931)" fill="#94744F"/>
<ellipse cx="157.999" cy="151.029" rx="6.91437" ry="5.93008" transform="rotate(-0.821283 157.999 151.029)" fill="#94744F"/>
<rect x="166.322" y="146" width="6" height="2" transform="rotate(9.26806 166.322 146)" fill="#94744F"/>
<ellipse cx="162.538" cy="152.76" rx="5.5" ry="2.5" transform="rotate(-53.0796 162.538 152.76)" fill="#94744F"/>
<path d="M170 150C171 150 170 151.5 168.513 152.245C167.378 153.031 166.203 153.299 165.888 152.845C165.574 152.391 166.24 151.386 167.375 150.6C168.511 149.815 169.686 149.546 170 150Z" fill="#94744F"/>
<path d="M174.5 147.5C175 148 173.5 149.5 172.5 149C171.395 149 170.5 148.328 170.5 147.5C170.5 146.672 171.395 146 172.5 146C173.605 146 174.5 146.672 174.5 147.5Z" fill="#94744F"/>
<ellipse cx="166" cy="151.5" rx="1" ry="1.5" fill="#94744F"/>
<ellipse cx="103.5" cy="166.5" rx="27.5" ry="18.5" fill="#94744F"/>
<ellipse cx="41.5" cy="87" rx="16.5" ry="19" fill="#94744F"/>
<ellipse cx="41.5" cy="87" rx="16.5" ry="19" fill="#94744F"/>
<ellipse cx="39.5" cy="73" rx="16.5" ry="19" fill="#94744F"/>
<ellipse cx="39.5" cy="73" rx="16.5" ry="19" fill="#94744F"/>
<ellipse cx="28.5" cy="74" rx="16.5" ry="19" fill="#94744F"/>
<ellipse cx="28.5" cy="74" rx="16.5" ry="19" fill="#94744F"/>
<ellipse cx="27.5" cy="87" rx="16.5" ry="19" fill="#94744F"/>
<ellipse cx="27.5" cy="87" rx="16.5" ry="19" fill="#94744F"/>
<ellipse cx="87.5" cy="160.5" rx="27.5" ry="18.5" fill="#94744F"/>
<ellipse cx="117.5" cy="160.5" rx="27.5" ry="18.5" fill="#94744F"/>
<path d="M172.92 147.37C173.398 147.575 174.5 148 173.26 148.972C172.755 149.959 172.345 150.038 171.867 149.834C171.388 149.629 171.236 148.912 171.526 148.232C171.817 147.551 172.441 147.166 172.92 147.37Z" fill="#94744F"/>
<ellipse cx="18.5475" cy="102.019" rx="4.51359" ry="4.98801" transform="rotate(0.391126 18.5475 102.019)" fill="#94744F"/>
<ellipse cx="17.5475" cy="99.0187" rx="4.51359" ry="4.98801" transform="rotate(0.391126 17.5475 99.0187)" fill="#94744F"/>
<ellipse cx="17.5475" cy="102.019" rx="4.51359" ry="4.98801" transform="rotate(0.391126 17.5475 102.019)" fill="#94744F"/>
<ellipse cx="9.04749" cy="74.5308" rx="5.00326" ry="6.50349" transform="rotate(0.391126 9.04749 74.5308)" fill="#94744F"/>
<ellipse cx="18.1064" cy="60.1612" rx="5.00326" ry="6.50349" transform="rotate(43.5196 18.1064 60.1612)" fill="#94744F"/>
<path d="M87 40C87 42.7614 84.5376 45 81.5 45C78.4624 45 76 42.7614 76 40C76 37.2386 78.5 35.5 81.5 35C84.5376 35 87 37.2386 87 40Z" fill="#94744F"/>
<ellipse cx="80.5" cy="43" rx="5.5" ry="5" fill="#94744F"/>
<ellipse cx="96.5" cy="42" rx="5.5" ry="5" fill="#94744F"/>
<ellipse cx="99.5" cy="37" rx="5.5" ry="5" fill="#94744F"/>
<ellipse cx="102.5" cy="29" rx="5.5" ry="5" fill="#94744F"/>
<ellipse cx="108.5" cy="42" rx="5.5" ry="5" fill="#94744F"/>
<ellipse cx="116.5" cy="42" rx="5.5" ry="5" fill="#94744F"/>
<ellipse cx="127.5" cy="43" rx="5.5" ry="5" fill="#94744F"/>
<path d="M140 40C140.542 42.7078 137.538 45 134.5 45C131.462 45 129 42.7614 129 40C129 37.2386 132 35 135 34.5C138 34 139.5 37.5 140 40Z" fill="#94744F"/>
<ellipse cx="111.5" cy="35" rx="5.5" ry="5" fill="#94744F"/>
<ellipse cx="115.5" cy="29" rx="5.5" ry="5" fill="#94744F"/>
<ellipse cx="123.5" cy="35" rx="5.5" ry="5" fill="#94744F"/>
<ellipse cx="127.5" cy="30" rx="5.5" ry="5" fill="#94744F"/>
<ellipse cx="106.5" cy="22" rx="5.5" ry="5" fill="#94744F"/>
<ellipse cx="107.5" cy="14" rx="3.5" ry="4" fill="#94744F"/>
<ellipse cx="106.5" cy="7" rx="3.5" ry="4" fill="#94744F"/>
<ellipse cx="180.173" cy="101.568" rx="10.3586" ry="11.7994" transform="rotate(33.8128 180.173 101.568)" fill="#94744F"/>
<ellipse cx="182.501" cy="110.121" rx="5.22002" ry="7.4816" transform="rotate(33.8128 182.501 110.121)" fill="#94744F"/>
<ellipse cx="179.848" cy="116.083" rx="2.20127" ry="7.4816" transform="rotate(3.32787 179.848 116.083)" fill="#94744F"/>
<path d="M133.816 21.5064C133.816 24.2678 131.853 27.0064 128.816 27.0064C125.778 27.0064 128 27.2614 128 24.5C128 21.7386 128.5 22.1732 130.5 20C133.816 16.3973 133.816 18.745 133.816 21.5064Z" fill="#94744F"/>
<ellipse cx="185.409" cy="85.3541" rx="10.3586" ry="11.7994" transform="rotate(33.8128 185.409 85.3541)" fill="#94744F"/>
<path d="M107.706 2.92838C108.649 5.09797 108.307 7.33683 106.944 7.92903C105.581 8.52122 103.711 7.24249 102.769 5.0729C102 2.5 101.5 0.499999 103.531 0.0722559C104.895 -0.519936 106.764 0.758795 107.706 2.92838Z" fill="#94744F"/>
<ellipse cx="119.5" cy="23" rx="5.5" ry="5" fill="#94744F"/>
<ellipse cx="122" cy="15.5" rx="4" ry="4.5" fill="#94744F"/>
<path d="M125 8.5C125 10.9853 123.209 13 121 13C120 10 123.5 10 120 8.5C120 6.01472 118.791 4 121 4C123.209 4 125.5 6 125 8.5Z" fill="#94744F"/>
<ellipse cx="164.664" cy="148.039" rx="5.5" ry="2.5" transform="rotate(-63.918 164.664 148.039)" fill="#94744F"/>
<path fill-rule="evenodd" clip-rule="evenodd" d="M123.731 5.00791C128.8 8.34006 126.933 18.5989 125.328 23.7871C127.667 23.2166 130.312 18.5173 132.915 18.1533C127.18 27.8467 119.83 36.2747 111.352 43.818C108.008 41.1412 110.963 37.4307 112.15 35.0545C116.524 26.3011 123.17 17.8352 123.731 5.94684C123.731 5.63382 123.731 5.32093 123.731 5.00791Z" fill="#032F60"/>
<path fill-rule="evenodd" clip-rule="evenodd" d="M143.297 93.2697C140.316 93.3108 138.487 92.4492 136.908 91.3919C136.908 88.0247 136.908 83.7659 136.908 79.4982C136.908 75.4518 136.109 70.7271 137.307 68.2309C138.141 66.4951 140.613 65.9616 141.7 64.788C142.039 64.7304 142.076 64.91 142.099 65.101C143.093 73.0741 140.771 83.1192 142.099 90.4528C142.337 91.7691 142.559 92.3165 143.297 93.2697Z" fill="#032F60"/>
<path fill-rule="evenodd" clip-rule="evenodd" d="M175.641 90.4528C172.798 90.3863 172.4 88.4036 170.45 87.636C168.532 88.8447 167.777 90.9661 165.26 91.7048C163.002 91.4915 162.537 89.8742 160.867 89.201C158.442 89.9086 157.65 91.8955 154.877 92.3308C153.392 92.6601 154.094 91.2752 153.28 91.0789C149.813 92.9597 147.667 92.652 145.693 89.5138C145.091 88.556 143.95 86.5005 144.096 85.7582C144.68 82.7927 149.483 82.9063 152.082 81.6892C150.921 83.8048 150.04 87.6445 152.481 89.201C155.067 86.9503 153.031 81.0768 153.679 77.3076C151.457 77.1123 148.482 79.005 148.887 81.0633C146.226 80.9584 145.438 79.3848 144.495 77.9335C145.571 75.6472 148.816 75.0605 151.283 73.8645C154.727 74.5042 157.032 76.0354 159.669 77.3076C159.669 80.4374 159.669 83.5671 159.669 86.6968C160.35 83.5563 160.918 79.0894 160.068 75.7425C162.156 75.6059 163.566 74.9375 166.058 75.1165C165.578 79.0175 165.621 83.3294 165.659 87.636C171.596 86.7483 166.025 75.2111 172.846 76.0556C172.541 79.8422 173.463 82.6664 173.246 86.384C175.977 86.2864 177.727 82.5521 176.839 78.5594C176.07 75.0966 171.851 71.6518 170.051 69.7955C171.795 67.8237 174.573 66.6632 176.839 65.101C181.846 67.6962 183.145 75.3872 181.631 82.0022C180.82 85.5459 176.733 88.2545 175.641 90.4528Z" fill="#032F60"/>
<path fill-rule="evenodd" clip-rule="evenodd" d="M135.31 77.6205C134.581 79.3437 132.95 80.3602 130.519 80.7503C131.858 78.7698 129.725 77.6243 128.123 76.9943C126.879 80.3211 126.647 87.5608 128.523 90.4528C130.935 89.8404 131.822 88.0313 132.116 85.7582C133.576 85.8651 133.944 86.8296 134.512 87.636C132.955 89.4903 131.341 92.1781 128.523 92.3308C125.387 92.5005 123.481 89.7571 121.335 88.2619C121.212 84.8272 121.361 81.6059 122.133 78.8724C124.7 78.369 125.999 75.0643 128.922 74.8037C131.444 74.5785 133.372 76.1198 135.31 77.6205Z" fill="#032F60"/>
<path fill-rule="evenodd" clip-rule="evenodd" d="M116.144 75.1164C122.754 76.717 119.95 85.6956 120.536 92.0178C119.075 93.1678 117.608 94.3133 115.345 94.8346C116.502 89.7636 115.095 84.2502 115.345 78.8724C109.928 78.3631 112.263 88.4906 112.949 92.3308C111.345 92.6385 109.445 92.7143 107.359 92.6436C108.135 88.9748 107.603 84.2801 107.758 80.1244C108.16 79.1829 106.869 79.5697 106.161 79.4982C107.291 77.6716 109.335 76.5611 111.752 75.7425C111.752 76.4728 111.752 77.2031 111.752 77.9335C112.919 78.0051 114.7 75.8698 116.144 75.1164Z" fill="#032F60"/>
<path fill-rule="evenodd" clip-rule="evenodd" d="M104.164 84.1932C102.188 83.9684 100.187 83.7634 97.7753 83.8801C97.4444 86.3542 96.306 92.0351 98.5739 92.3308C100.32 92.5584 100.1 88.9074 100.97 87.636C105.91 87.9534 101.475 93.8503 98.9732 94.2089C95.1153 94.761 93.9916 91.5122 90.9869 90.7658C90.5799 88.5807 90.506 86.1349 90.5876 83.567C91.3936 89.3593 85.2652 90.9456 81.4034 93.5826C74.8585 91.7225 78.2354 82.0853 77.4101 75.7425C79.9422 75.636 80.6461 76.9616 82.2021 77.6205C82.2198 81.8837 82.4283 85.9981 83.0008 89.8268C88.7916 88.8366 85.1917 80.4853 86.1951 75.7425C88.333 75.6319 89.0791 76.6117 90.5876 76.9943C90.5876 79.0812 90.5876 81.1677 90.5876 83.2542C91.2413 82.2017 91.0934 80.521 91.7851 79.4982C94.2974 78.818 95.8513 75.6213 98.5739 75.4295C102.936 75.1224 107.593 80.1539 104.164 84.1932ZM96.9763 82.0022C98.0446 82.8025 99.082 81.8133 100.57 82.0022C99.9387 80.3063 99.2414 78.662 97.7753 77.6205C97.306 78.9222 97.2754 80.5676 96.9763 82.0022Z" fill="#032F60"/>
<path fill-rule="evenodd" clip-rule="evenodd" d="M75.014 79.4982C75.0025 82.6189 75.1747 85.8839 74.6151 88.575C74.3349 89.7333 76.015 89.3556 76.6114 89.8268C74.7467 91.5993 72.7004 93.2299 69.8234 94.2089C68.6222 94.5242 69.1157 93.5113 69.0245 92.9567C66.6487 92.9426 66.0929 94.4446 64.2327 94.2089C61.289 93.8355 59.8976 89.7857 59.4409 87.0101C61.1902 85.2513 63.9405 84.2769 67.0279 83.567C66.0496 85.8129 64.9248 89.7428 68.2258 90.7658C69.7116 87.8963 69.0261 82.2471 68.6253 78.8724C66.0599 79.4701 64.214 80.631 63.8333 82.9411C61.3805 82.3758 59.6126 80.9345 59.8403 79.4982C60.1674 77.4369 64.7461 77.0907 66.2295 75.7425C70.1483 76.2178 72.44 77.969 75.014 79.4982Z" fill="#032F60"/>
<path fill-rule="evenodd" clip-rule="evenodd" d="M109.355 48.826C116.494 42.7084 122.586 35.2771 128.123 27.8557C129.948 25.4093 131.014 22.6154 133.713 20.657C134.636 25.1922 133.752 30.8699 132.516 34.7414C135.036 34.2135 135.888 32.3771 138.505 31.9247C135.466 38.4217 127.534 41.7221 121.335 45.6959C114.97 49.7753 108.8 53.8385 103.765 58.8412C109.461 54.9323 115.311 51.231 121.335 47.5738C127.367 43.9115 132.796 39.8978 138.105 35.6805C136.502 40.8917 132.444 44.179 128.921 47.8867C132.048 48.9132 134.768 47.0936 137.706 46.9479C137.817 51.7294 134.491 53.8171 131.717 56.3374C134.391 56.3848 136.797 54.7769 138.904 55.3983C138.854 57.7583 137.455 59.0611 136.908 61.0322C142.883 61.1244 150.817 60.0415 157.273 59.4673C157.577 56.2036 156.773 53.8077 156.874 50.7036C151.875 49.8222 144.319 50.9453 139.304 50.0775C138.689 48.9942 138.951 47.2244 138.904 45.6959C137.497 45.4361 135.293 47.2406 132.516 46.9479C134.76 43.9086 137.78 41.4761 139.304 37.8712C151.137 39.3443 167.268 39.338 176.839 36.3063C177.734 43.9017 175.218 51.5131 173.645 58.2154C181.676 59.1193 189.734 60.0014 192.812 64.788C193.299 68.7176 191.596 70.9288 190.815 73.8645C194.042 77.0724 199.919 78.6629 199.999 82.9411C200.059 86.1209 195.046 90.3605 193.211 94.2089C190.609 99.6654 191.094 104.903 190.017 111.423C189.741 113.092 189.549 114.446 187.621 116.117C186.538 116.521 185.403 116.883 183.627 116.744C181.647 119.781 182.688 125.188 179.235 127.072C177.243 122.896 175.261 118.711 175.641 112.675C172.004 112.298 172.899 115.375 172.846 117.37C172.618 125.961 172.684 135.989 169.652 142.408C162.329 141.888 157.105 139.723 150.884 138.339C155.334 127.118 153.815 111.217 154.078 96.7125C144.795 97.0525 140.457 101.268 132.116 102.346C134.494 103.264 137.793 102.211 140.502 102.346C140.081 104.208 136.971 103.961 136.11 105.476C141.557 105.469 144.923 103.829 149.287 102.972C148.071 105.775 144.791 106.96 141.301 107.98C141.875 109.408 146.095 107.977 147.29 108.919C145.781 110.448 142.767 110.799 140.103 111.423C140.561 112.732 142.771 112.67 144.495 112.988C143.746 115.739 140.098 116.219 136.908 117.057C137.158 117.8 139.366 117.008 139.703 117.682C138.717 119.622 137.259 121.193 134.911 122.064C134.611 123.239 136.436 122.747 136.509 123.629C134.689 125.542 132.551 127.205 130.918 129.263C141.928 138.056 158.303 142.644 176.839 145.538C176.956 147.09 175.249 147.213 174.443 148.042C158.136 145.964 146.267 141.226 134.512 135.523C130.837 133.739 127.283 131.034 122.532 130.515C128.442 134.661 136.761 138.187 145.293 141.469C153.704 144.705 162.84 147.716 173.245 148.981C170.807 154.322 157.947 149 153.28 147.416C147.261 145.374 142.372 143.287 138.904 141.469C141.895 143.847 147.079 145.971 152.082 147.729C154.5 148.579 157.226 149.467 159.669 150.233C162.196 151.026 165.406 151.209 166.856 153.05C160.316 153.975 155.14 151.099 150.484 149.294C145.521 147.37 140.72 145.507 136.11 143.348C141.261 147.503 152.062 150.096 159.269 153.676C158.005 155.607 154.889 154.445 153.28 153.989C148.228 152.558 142.773 149.2 138.105 147.416C140.734 150.469 149.065 151.763 152.88 154.928C144.31 154.855 138.278 150.104 131.717 147.416C130.467 147.48 128.785 147.205 128.123 147.729C125.715 146.278 123.077 145.007 118.14 145.538C116.507 149.683 115.337 154.192 110.154 155.554C108.895 156.654 108.856 158.71 106.161 158.684C106.242 160.416 106.216 162.066 105.362 163.065C103.443 162.901 104.18 160.653 102.167 160.562C99.9841 162.334 101.782 165.11 102.567 167.134C100.77 168.961 98.2905 170.251 94.1814 170.264C93.9031 168.69 94.8588 168.083 94.5808 166.509C93.3706 163.146 83.7145 161.326 83.0008 166.196C80.8754 166.191 80.5914 164.745 79.4064 164.004C79.1882 164.459 79.8734 165.622 79.007 165.57C76.522 165.431 76.0446 163.718 75.8127 161.813C74.9145 160.929 74.8928 163.367 73.417 163.065C72.2958 162.171 72.0655 160.578 72.219 158.684C71.2476 157.742 71.6637 160.523 69.8233 159.936C68.4647 155.884 70.96 152.576 75.8127 152.424C78.637 152.335 80.9968 154.595 83.3996 154.615C88.884 154.659 94.0071 144.162 91.7851 137.088C91.0644 134.792 88.1226 133.96 87.7921 131.767C86.7354 131.239 85.2555 131.043 84.1982 130.515C81.8464 126.403 76.2166 121.35 69.0245 125.194C66.933 126.312 66.8282 128.049 65.0316 129.889C61.2318 129.737 60.0098 127.565 58.2428 125.82C57.4795 121.688 58.9126 120.285 61.0385 117.682C62.5058 115.886 63.1994 114.214 65.0316 112.988C70.2122 109.521 79.2749 109.007 87.7921 108.919C87.9392 106.091 86.6766 104.368 86.5947 101.72C76.8886 101.398 67.0532 101.179 58.6422 99.8423C57.3136 102.213 59.3151 106.357 57.844 107.98C56.2913 108.723 53.6886 108.014 52.2535 107.668C52.3288 128.783 53.2175 147.897 67.0278 163.065C73.4498 170.119 81.9472 175.798 92.584 180.28C95.5464 181.528 100.629 184.018 103.366 184.035C107.166 184.06 112.924 180.632 116.144 178.715C127.42 171.998 135.895 163.545 142.498 153.676C145.381 153.988 147.399 155.724 150.484 156.18C155.327 156.894 159.89 155.081 164.061 154.928C152.03 171.848 136.296 186.701 113.748 196.555C110.353 198.038 106.743 199.938 103.366 199.998C97.3945 200.102 88.5212 195.432 83.0008 192.486C67.7386 184.341 56.3438 175.281 45.8641 163.065C43.0473 159.782 40.4206 157.263 39.8748 152.737C39.3375 151.356 37.4182 150.387 37.0791 148.668C35.3002 139.637 33.5421 122.669 32.687 111.11C32.5681 109.504 33.4235 107.698 31.8885 106.415C28.9431 106.294 30.0964 108.84 29.8917 110.171C29.1532 114.973 29.2776 120.336 27.8952 124.881C27.3285 126.745 26.7185 128.811 25.0997 129.576C23.4432 123.05 23.6984 115.025 23.1034 107.668C19.8269 107.127 17.045 109.562 12.721 109.232C10.2843 101.857 11.0002 92.0105 9.92601 83.567C1.46451 84.953 -1.9957 76.341 1.141 70.4218C2.69944 67.4806 7.06926 64.8774 10.3254 63.5361C10.148 60.6847 10.4418 58.2023 11.5236 56.3374C16.9934 53.2176 25.8927 52.7856 35.4822 52.8947C34.1573 47.3519 31.7527 41.0149 31.8885 35.3675C38.9933 37.4744 49.4806 38.4146 60.639 37.8712C67.6262 37.531 73.9094 35.8911 79.007 35.6805C78.4898 41.3257 76.625 45.9154 74.6151 50.3906C69.0125 51.7377 61.3397 51.4616 54.2498 51.6428C53.3361 52.1783 54.1035 54.0317 53.8501 55.0855C56.7145 56.0752 58.5822 57.8451 58.2428 61.3453C64.2441 62.3798 70.3927 63.2984 77.8095 63.223C77.807 59.4088 75.9459 56.7298 76.2122 52.8947C76.4039 50.1276 77.7248 47.2154 78.6082 44.444C80.174 39.5294 82.0658 35.2026 81.0038 28.7947C79.6135 20.4042 74.3172 13.3676 70.2227 6.57274C77.1724 6.1633 80.7437 11.2267 83.799 15.6494C85.8872 18.6718 87.815 21.9182 89.3895 24.7259C90.8211 18.9076 88.0478 13.6765 87.7921 8.13771C95.5238 10.7366 96.6401 18.5211 98.1745 25.978C100.481 22.6924 98.9608 17.0762 99.7716 14.0845C101.543 14.0521 101.159 15.7097 102.567 15.9624C103.932 11.3243 102.106 4.8627 102.167 1.25195C104.205 2.43058 104.488 4.61285 104.963 6.25985C105.85 9.34009 106.49 13.0061 106.161 17.2142C105.257 28.7516 98.2053 36.1064 92.584 45.0699C90.714 48.0523 88.5875 51.68 88.1914 54.4595C87.5568 58.9104 90.4077 61.7514 90.5876 66.0399C78.4922 66.4436 68.7032 65.04 58.2428 64.1621C56.6028 69.2126 56.6297 78.5912 57.0451 85.7582C57.2844 89.8908 58.1631 93.6897 58.6422 97.0257C91.4637 103.324 128.743 94.2943 162.064 94.2089C170.017 94.1882 177.033 94.4319 181.232 97.6516C180.365 87.2485 183.577 80.3992 187.221 72.6126C188.16 70.6075 189.659 68.6396 189.617 67.2919C189.425 60.9594 179.315 60.3752 169.652 60.7191C155.93 61.2075 140.022 63.4883 128.123 64.1621C128.133 62.0398 132.169 60.4801 133.713 58.5285C129.15 59.8549 126.291 62.5177 122.932 64.788C118.474 65.1546 114.107 65.5913 108.956 65.4139C112.984 58.6605 121.694 55.5755 128.921 51.3298C118.273 53.9376 111.448 59.543 105.362 65.7269C100.247 65.5034 96.2624 66.3206 92.1845 65.4139C92.8012 62.4822 96.4799 60.539 94.9801 56.9633C93.8576 57.7529 94.1033 59.6149 93.3826 60.7191C89.3454 56.8388 91.0518 45.0065 98.1745 46.0088C104.469 33.7559 110.965 16.2409 104.963 0C111.143 3.7109 113.149 10.6933 114.147 18.4662C117.578 13.8527 118.799 7.50589 120.536 1.56484C122.633 2.68479 122.494 6.63155 122.133 9.38952C121.484 14.354 118.028 20.011 114.946 25.3519C112.125 30.2386 107.181 36.5227 108.157 41.6272C108.561 43.7382 112.023 45.9736 109.355 48.826ZM13.5197 58.2154C13.3954 59.6101 12.6978 61.0376 13.5197 62.2841C21.2611 61.439 28.7642 57.795 36.6802 58.5285C46.7198 59.4585 51.9909 66.6684 51.8541 76.0556C49.4652 79.2951 46.8099 82.3263 41.0728 82.9411C42.7279 85.0532 46.2572 86.5012 48.2604 89.5138C50.5129 92.9023 51.8592 97.5151 51.4546 102.033C45.6639 100.938 39.6597 100.011 33.4854 99.2164C33.8728 97.8507 36.6709 98.3744 37.0791 97.0257C36.8031 91.0867 37.0198 84.7617 30.291 83.8801C29.4564 90.0074 30.0876 97.2835 29.8917 103.911C38.1655 103.895 46.1133 104.133 53.4514 104.85C55.219 99.3248 53.7993 93.2204 53.4514 87.0101C52.8669 76.5909 55.3548 66.8312 54.2498 58.5285C43.6581 55.5844 23.8658 54.1946 13.5197 58.2154ZM39.4754 76.9943C40.807 72.8559 36.4009 62.7299 32.687 62.9101C28.1776 63.1292 29.6909 69.3426 29.8917 72.9256C30.0876 76.4191 29.8884 79.6951 30.6904 82.0022C34.2232 81.728 38.7352 79.2944 39.4754 76.9943ZM13.5197 66.6657C13.0537 70.7371 17.6096 70.4689 18.3117 73.8645C19.4296 79.2718 14.6477 79.4045 13.5197 82.6281C12.7559 84.8109 13.1105 88.1079 13.1204 90.4528C13.1422 95.5972 13.7969 101.32 15.1171 106.102C18.1924 106.113 19.9843 105.118 22.7041 104.85C21.7535 91.7199 20.4675 78.8515 17.9123 66.9787C17.0546 66.3988 14.9872 66.7677 13.5197 66.6657ZM4.33536 72.2997C4.56337 73.3933 4.03526 74.6076 4.33536 75.7425C4.95126 78.0687 8.96186 81.0846 10.3254 77.9335C8.98888 76.6701 7.46222 76.9595 6.73165 75.7425C4.32143 71.7296 11.0722 70.6352 9.92601 68.2309C7.82046 69.3975 5.90641 70.714 4.33536 72.2997ZM190.815 92.3308C192.501 88.7533 196.302 84.7777 196.006 82.3152C195.698 79.7496 192.261 78.3062 189.218 76.9943C185.447 80.5357 184.591 90.0841 184.027 96.3995C183.788 99.0675 184.167 101.819 183.627 103.598C182.523 107.245 178.237 107.641 172.846 107.354C172.846 108.398 172.846 109.441 172.846 110.484C176.096 110.438 179.128 108.369 182.43 107.98C184.312 107.758 187.133 108.596 187.221 107.668C188.102 102.033 188.343 97.5773 190.815 92.3308ZM174.044 97.0257C171.585 97.4982 173.408 101.326 172.846 103.285C174.026 104.717 179.454 105.254 180.433 103.285C180.082 99.8045 177.446 98.1148 174.044 97.0257ZM116.144 99.8423C114.142 101.374 109.937 104.264 106.56 102.659C107.442 101.681 109.518 101.639 110.154 100.468C103.919 100.798 97.6413 101.094 91.7851 101.72C91.2698 105.756 94.9905 110.686 91.3859 113.301C86.0148 110.407 74.5625 111.417 69.4238 113.614C67.725 114.34 63.8291 116.233 67.8264 117.37C68.3101 115.662 69.689 114.657 71.8195 114.24C73.1306 114.747 70.7482 116.205 72.6185 116.117C75.9241 115.475 79.743 115.234 81.4033 113.301C84.8695 114.444 88.9569 115.101 90.9869 117.37C91.8053 120.588 90.7707 125.259 95.3788 125.507C94.3479 116.04 98.9721 111.005 101.768 104.537C105.394 107.373 102.734 112.226 102.167 116.117C108.541 113.184 106.702 102.146 117.741 103.911C117.699 105.339 115.642 105.188 115.345 106.415C117.227 108.604 115.507 111.481 114.147 112.988C115.506 113.349 116.97 113.974 118.54 113.301C119.445 108.781 121.568 103.59 121.335 99.2164C119.555 99.3864 117.734 99.5241 116.144 99.8423ZM178.437 111.423C178.65 112.634 177.724 112.951 178.037 114.24C180.856 113.841 184.414 114.022 186.423 112.988C187.047 111.999 186.203 111.614 186.023 110.484C183.149 109.494 180.66 110.921 178.437 111.423ZM180.034 122.377C180.154 120.594 180.801 119.223 180.832 117.37C180.3 117.37 179.767 117.37 179.235 117.37C178.423 118.751 179.029 121.409 180.034 122.377ZM61.4377 121.439C61.5101 123.573 60.8558 126.276 63.4341 126.446C65.4896 123.989 67.6709 121.63 70.2227 119.56C65.5739 119.106 63.1946 118.689 61.4377 121.439ZM94.1814 159.936C91.1982 158.309 86.8135 157.782 81.4033 158.058C79.6952 155.745 73.4519 157.458 73.8166 160.562C75.4793 160.405 76.0068 159.357 77.8095 159.309C77.9703 160.792 77.0964 161.464 77.4101 163.065C78.9265 163.002 78.1277 161.124 79.8059 161.187C80.9691 161.632 80.9021 163.041 81.4033 164.004C82.9559 163.569 82.8303 162.323 84.5975 161.813C89.6267 160.364 99.1421 163.764 96.9763 168.386C98.7513 168.525 99.089 167.539 100.171 167.134C96.7648 161.641 98.2192 159.032 100.969 153.989C103.505 149.342 105.874 145.068 103.765 140.844C103.855 140.159 105.566 139.159 104.563 138.653C99.1074 144.183 101.775 156.081 94.1814 159.936ZM92.1845 152.111C93.5069 149.342 100.674 143.703 96.1777 141.157C95.7128 145.28 92.8559 149.193 92.1845 152.111Z" fill="#032F60"/>
</g>
<defs>
<clipPath id="clip0_335_150">
<rect width="200" height="200" fill="white"/>
</clipPath>
</defs>
</svg>
