<svg width="200" height="200" viewBox="0 0 200 200" fill="none" xmlns="http://www.w3.org/2000/svg">
<g clip-path="url(#clip0_316_67)">
<rect x="30" y="22" width="142" height="145" fill="#0BAE08"/>
<path d="M37 31.4118C37 35.2128 30.8473 42 26.8388 42C22.8303 42 21.5 34.801 21.5 31C21.9839 27.2941 22.3464 24 26.3549 24C30.3634 24 37 27.6107 37 31.4118Z" fill="#0BAE08"/>
<ellipse cx="22.5" cy="48.5" rx="13.5" ry="9.5" fill="#0BAE08"/>
<ellipse cx="21.0092" cy="37.4253" rx="4.65311" ry="5.35617" transform="rotate(15.8865 21.0092 37.4253)" fill="#0BAE08"/>
<ellipse cx="14.9416" cy="45.4253" rx="4.65311" ry="5.35617" transform="rotate(15.8865 14.9416 45.4253)" fill="#0BAE08"/>
<ellipse cx="10.9416" cy="47.4253" rx="4.65311" ry="5.35617" transform="rotate(15.8865 10.9416 47.4253)" fill="#0BAE08"/>
<ellipse cx="4.57543" cy="48.1292" rx="2.46081" ry="3.90723" transform="rotate(56.962 4.57543 48.1292)" fill="#0BAE08"/>
<ellipse cx="11.5963" cy="53.1612" rx="2.42267" ry="3.90723" transform="rotate(56.962 11.5963 53.1612)" fill="#0BAE08"/>
<ellipse cx="19.5963" cy="58.1612" rx="2.42267" ry="3.90723" transform="rotate(56.962 19.5963 58.1612)" fill="#0BAE08"/>
<ellipse cx="27.5963" cy="58.1612" rx="2.42267" ry="3.90723" transform="rotate(56.962 27.5963 58.1612)" fill="#0BAE08"/>
<ellipse cx="16.5963" cy="59.1612" rx="2.42267" ry="3.90723" transform="rotate(56.962 16.5963 59.1612)" fill="#0BAE08"/>
<ellipse cx="12.5963" cy="54.1612" rx="2.42267" ry="3.90723" transform="rotate(56.962 12.5963 54.1612)" fill="#0BAE08"/>
<ellipse cx="14.7982" cy="56.5627" rx="4.17633" ry="3.76571" transform="rotate(39.5385 14.7982 56.5627)" fill="#0BAE08"/>
<ellipse cx="16.618" cy="59.5627" rx="4.17633" ry="3.76571" transform="rotate(39.5385 16.618 59.5627)" fill="#0BAE08"/>
<ellipse cx="13.6878" cy="55.4781" rx="4.17633" ry="3.65595" transform="rotate(39.5385 13.6878 55.4781)" fill="#0BAE08"/>
<circle cx="25.5" cy="70.5" r="10.5" fill="#0BAE08"/>
<circle cx="26.5" cy="76.5" r="10.5" fill="#0BAE08"/>
<ellipse cx="5.4785" cy="50.7739" rx="4.17633" ry="2.1106" transform="rotate(39.5385 5.4785 50.7739)" fill="#0BAE08"/>
<ellipse cx="8.08918" cy="46.263" rx="2.49407" ry="4.39565" transform="rotate(71.0441 8.08918 46.263)" fill="#0BAE08"/>
<path d="M19.2154 90.4907C18.6312 91.4282 17.5877 91.833 16.8846 91.3948C16.1815 90.9567 16.0851 89.8416 16.6692 88.9041C17.2534 87.9667 18.2969 87.5619 19 88C19.7031 88.4381 19.7995 89.5532 19.2154 90.4907Z" fill="#0BAE08"/>
<path d="M18.0231 90.9829C16.5941 90.7201 15.7858 88.6027 16.2178 86.2535C16.6498 83.9044 18.1585 82.213 19.5875 82.4758C21.0165 82.7386 21.8247 84.856 21.3927 87.2052C20.9607 89.5543 19.4521 91.2457 18.0231 90.9829Z" fill="#0BAE08"/>
<path d="M16.4135 91.0033C15.6328 89.9076 16.5769 87.8958 18.5221 86.5097C20.4674 85.1236 22.6772 84.8882 23.4579 85.9838C24.2386 87.0795 23.2945 89.0913 21.3493 90.4774C19.4041 91.8635 17.1942 92.0989 16.4135 91.0033Z" fill="#0BAE08"/>
<circle cx="22.5" cy="88.5" r="1.5" fill="#0BAE08"/>
<circle cx="177.5" cy="45.5" r="8.5" fill="#0BAE08"/>
<circle cx="175.5" cy="59.5" r="8.5" fill="#0BAE08"/>
<circle cx="176.5" cy="72.5" r="8.5" fill="#0BAE08"/>
<path d="M189.5 64.5C189.5 69.1944 185.194 73 180.5 73C175.806 73 172 69.1944 172 64.5C172 59.8056 175.806 56 180.5 56C185.194 56 189.5 59.8056 189.5 64.5Z" fill="#0BAE08"/>
<circle cx="183.5" cy="53.5" r="8.5" fill="#0BAE08"/>
<circle cx="185.5" cy="50.5" r="8.5" fill="#0BAE08"/>
<path d="M25.5 88C25.5 88.8284 24.8284 89.5 24 89.5C23.1716 89.5 22.5 88.8284 22.5 88C22.5 87.1716 23.1716 86.5 24 86.5C24.8284 86.5 25.5 87.1716 25.5 88Z" fill="#0BAE08"/>
<path d="M27.5 87C27.5 87.8284 26.8284 88.5 26 88.5C25.1716 88.5 24.5 87.8284 24.5 87C24.5 86.1716 25.1716 85.5 26 85.5C26.8284 85.5 27.5 86.1716 27.5 87Z" fill="#0BAE08"/>
<path d="M29.5 86C29.5 86.8284 28.8284 87.5 28 87.5C27.1716 87.5 26.5 86.8284 26.5 86C26.5 85.1716 27.1716 84.5 28 84.5C28.8284 84.5 29.5 85.1716 29.5 86Z" fill="#0BAE08"/>
<path d="M183.5 84C182.839 84.4995 176.499 82.8217 175.5 81.5C174.501 80.1783 179.227 79.2018 179.888 78.7022C180.548 78.2027 186.001 68.6783 187 70C187.999 71.3217 184.161 83.5004 183.5 84Z" fill="#0BAE08"/>
<path d="M198.5 47C198.5 48.1046 194.381 54.5 193 54.5C191.619 54.5 192 49.1046 192 48C192 46.8954 187.119 42 188.5 42C189.881 42 198.5 45.8954 198.5 47Z" fill="#0BAE08"/>
<path d="M109 183.5C109 187.366 78.866 181 75 181C71.134 181 57 172.366 57 168.5C57 164.634 60.134 161.5 64 161.5C67.866 161.5 109 179.634 109 183.5Z" fill="#0BAE08"/>
<path d="M139 167C139 170.038 112.142 182.5 108 182.5C103.858 182.5 80 170.038 80 167C80 163.962 103.358 166 107.5 166C111.642 166 139 163.962 139 167Z" fill="#0BAE08"/>
<ellipse cx="174" cy="37" rx="4" ry="3" fill="#0BAE08"/>
<path d="M192.61 42.6573C191.35 41.9203 189.881 41.4816 188.355 41.3865C187.897 41.345 187.437 41.3258 186.976 41.3288C186.767 41.3437 186.557 41.3081 186.371 41.2263C186.185 41.1444 186.03 41.0196 185.924 40.8662C184.668 39.3627 183.013 38.1316 181.093 37.2726C180.384 36.9407 179.656 36.6372 178.919 36.3127C178.894 35.3904 178.874 34.5063 179.261 33.6341C179.622 32.8202 179.893 31.9765 180.177 31.1397C180.522 30.1264 180.566 29.1514 179.854 28.1929C179.387 27.5646 179.601 27.0482 180.196 26.4943C182.636 24.227 184.367 21.6516 184.868 18.5599C184.957 18.0092 185.014 17.4549 185.097 16.8215C184.591 16.8215 184.243 16.8159 183.897 16.8224C174.654 16.9929 165.412 17.167 156.17 17.3447C155.429 17.3646 154.691 17.2462 154.01 16.9978C153.616 16.871 153.197 16.8089 152.776 16.8148C150.969 16.7959 149.162 16.8158 147.355 16.7991C146.97 16.8224 146.584 16.7631 146.233 16.6267C145.209 16.0987 144.126 15.5991 143.266 14.9088C142.349 14.1485 141.117 13.723 139.835 13.7229C138.993 13.6656 138.158 13.5552 137.336 13.3929C136.433 13.2526 135.526 12.9326 134.637 12.9679C132.821 13.04 131.26 12.4345 129.583 11.9376C129.523 11.5488 129.573 11.1535 129.728 10.7842C129.883 10.4148 130.139 10.0817 130.474 9.81198C131.267 9.12549 132.091 8.46195 132.841 7.74273C133.159 7.42273 133.394 7.04955 133.531 6.64742C133.721 6.11154 133.43 5.5812 132.877 5.48324C131.351 5.21317 130.095 4.44978 128.709 3.92687C127.012 3.2746 125.084 3.19917 123.323 3.71609C122.34 3.99684 121.729 3.81429 121.023 3.3348C120.14 2.68434 119.199 2.09258 118.209 1.56478C116.261 0.617924 114.216 0.170487 112.081 1.2256C111.864 1.32541 111.625 1.38809 111.379 1.4101C110.571 1.49695 109.757 1.54251 108.951 1.63914C108.726 1.67966 108.492 1.65966 108.282 1.58192C108.071 1.50418 107.894 1.37258 107.775 1.20544C107.58 0.970708 107.33 0.772355 107.041 0.622577C106.753 0.472798 106.431 0.37476 106.095 0.334489C105.267 0.18242 104.426 0.0841097 103.579 0.0404088C101.419 -0.00113464 99.2551 -0.0260969 97.0971 0.0440809C95.6376 0.0915584 94.1232 0.355049 93.0776 1.24533C92.2855 1.91977 91.5604 1.85919 90.69 1.68103C90.278 1.59668 89.8732 1.48407 89.4708 1.36988C88.0503 0.966795 86.6145 0.672316 85.096 0.827784C84.674 0.873209 84.2483 0.889212 83.8232 0.875632C82.8972 0.844091 81.9818 1.05167 81.1978 1.47095C80.6576 1.74879 80.0384 1.99034 79.6526 2.38697C79.3288 2.71986 79.2916 3.25355 79.1038 3.76272C78.5155 3.67853 77.747 3.91219 77.2783 3.41752C76.5933 2.69478 75.7508 2.60738 74.801 2.76459C72.603 3.09288 70.4509 3.61382 68.3795 4.31906C68.1812 4.40213 67.9897 4.4965 67.8063 4.60152C69.0698 6.86425 71.0788 8.76762 73.5902 10.0812C73.74 10.1615 73.8943 10.2365 74.037 10.3251C74.6686 10.7169 74.6601 11.1198 73.939 11.3849C73.0058 11.7461 72.0401 12.0436 71.0512 12.2745C69.5095 12.6064 67.9365 12.8336 66.3768 13.1049C63.2217 13.6539 60.0739 14.2363 56.9077 14.7341C55.7306 14.9192 54.65 15.1648 53.7377 15.8643C53.4566 16.0353 53.1131 16.116 52.7684 16.092C51.1069 16.0189 49.4442 15.9356 47.7892 15.7942C45.6087 15.5727 43.4115 15.4933 41.2167 15.5567C36.4785 15.7669 31.738 15.9405 26.9972 16.1043C26.325 16.1271 25.6523 16.0742 24.9966 15.9469C21.4272 15.2463 17.9823 14.2624 14.8555 12.5912C14.517 12.4102 14.1642 12.2487 13.818 12.0782C13.7428 12.1245 13.6677 12.1708 13.5925 12.2171C13.7516 12.9145 13.8521 13.626 14.0795 14.307C15.2234 17.7934 17.1849 21.0479 19.8465 23.8752C20.5706 24.5823 21.0408 25.4506 21.2014 26.3775C21.3354 27.3306 21.4502 28.2857 21.5736 29.2398C21.603 29.468 21.6329 29.696 21.6617 29.9171C21.787 29.9405 21.914 29.9571 22.0418 29.9668C22.2896 29.9686 22.5383 29.9683 22.7852 29.9526C25.5641 29.776 28.2482 29.2837 30.754 28.2086C31.6704 27.8155 32.5819 27.414 33.4959 27.017C35.7474 25.9887 38.2132 25.3421 40.7557 25.1134C44.7507 24.8357 48.6703 24.0311 52.3733 22.7285C52.6181 22.6411 52.8828 22.594 53.2014 22.5119C53.8423 25.0829 54.4631 27.5734 55.1122 30.1772C55.7532 30.1838 56.3938 30.1489 57.0286 30.0729C58.8257 29.7413 60.6121 29.3653 62.3949 28.9807C66.1681 28.1668 69.9365 27.3368 73.7066 26.5125C75.1722 26.192 76.491 26.3671 77.685 27.2265C78.0902 27.5109 78.5814 27.6928 79.1026 27.7515C79.6998 27.7845 80.2992 27.7287 80.8737 27.5866C84.7989 26.7563 88.7624 26.0849 92.8116 25.9974C96.5969 25.9155 100.389 25.9529 104.175 26.027C108.246 26.1067 112.319 26.2251 116.382 26.4454C121.188 26.7061 125.981 27.1221 130.785 27.4182C135.058 27.688 139.31 28.1523 143.525 28.8091C150.881 29.9436 158.099 31.5605 165.294 33.2646C171.124 34.6454 176.696 36.5079 181.814 39.2972C183.037 39.9638 183.974 40.71 184.221 41.9869C184.247 42.2541 184.341 42.5135 184.496 42.7469C184.652 42.9803 184.865 43.1822 185.122 43.3386C186.213 43.0567 187.256 42.7838 188.302 42.5184C188.624 42.4277 188.964 42.396 189.3 42.4256C189.637 42.4551 189.963 42.5451 190.255 42.6896C192.636 43.8762 195.016 45.0658 197.38 46.277C198.108 46.6502 198.264 46.9577 197.947 47.6301C197.613 48.324 197.197 48.9873 196.705 49.6098C194.162 52.867 191.582 56.1031 189.031 59.3555C188.692 59.7774 188.41 60.2298 188.189 60.7045C187.7 61.7929 187.575 62.8683 188.657 63.7967C189.214 64.2742 189.164 64.7842 188.852 65.3566C188.364 66.2526 187.795 67.139 187.497 68.0833C186.395 71.5971 185.517 75.1585 184.864 78.7521C184.64 79.9692 184.455 81.1944 184.15 82.3971C183.823 83.6857 183.076 83.9758 181.705 83.4081C176.391 81.2078 171.105 78.9601 165.771 76.7965C161.011 74.8656 156.171 73.0718 151.82 70.4895C151.52 70.3365 151.172 70.2644 150.823 70.2827C148.073 70.3738 145.393 70.0077 142.722 69.4974C137.337 68.4684 131.888 67.6538 126.618 66.235C122.301 65.0729 118.034 63.7792 113.747 62.5397C110.996 61.7443 108.223 60.9466 105.333 60.6909C100.206 60.194 95.0139 60.712 90.1629 62.2042C86.6114 63.3155 83.1407 64.6114 79.6156 65.7854C78.6994 66.0983 77.7443 66.3217 76.7687 66.4514C74.5982 66.7175 72.4773 67.2206 70.4587 67.9482C66.0031 69.5762 61.432 70.9659 56.772 72.1093C56.4472 72.1872 56.1125 72.2355 55.7332 72.3068C55.6851 72.006 55.6326 71.8022 55.6227 71.5968C55.4808 68.6528 55.3428 65.7087 55.2086 62.7645C55.0318 58.7684 54.9136 54.77 54.6818 50.7764C54.3961 45.852 54.0271 40.931 53.6792 36.0093C53.4861 33.2784 53.2544 30.5494 52.6453 27.8565C52.3466 26.5356 52.0712 25.2078 51.4577 23.9167C50.9339 24.0365 50.4008 24.1254 49.8625 24.1827C48.2342 24.2979 46.6532 24.7049 45.2239 25.3771C43.228 26.2262 41.1186 26.8678 38.9416 27.288C38.1507 27.4463 37.3751 27.6551 36.6213 27.9125C34.6872 28.5781 32.7828 29.3061 30.8471 29.9683C28.9685 30.6002 26.9994 31.018 24.9915 31.2106C24.2533 31.2819 23.5224 31.3995 22.8047 31.5623C20.7916 32.0313 18.7898 32.5351 16.7859 33.032C16.5219 33.0975 16.2717 33.2029 15.9995 33.2952C15.9759 33.6368 15.943 33.9348 15.9368 34.2333C15.907 35.6463 15.8694 37.0594 15.8687 38.4724C15.892 38.6645 15.847 38.8582 15.7395 39.0284C15.6321 39.1986 15.467 39.3376 15.2656 39.4275C14.5289 39.7858 13.8192 40.1847 13.103 40.573C9.99926 42.2553 6.88162 43.9198 3.80431 45.6363C2.89714 46.1598 2.04672 46.7509 1.26313 47.4025C0.577976 47.9114 0.129926 48.6115 0 49.3763C0.328374 49.643 0.648216 49.9218 0.991207 50.1782C2.61279 51.3904 4.23095 52.6062 5.86875 53.8025C8.05255 55.3405 9.98402 57.1196 11.6117 59.0926C12.0391 59.5927 12.3429 60.1611 12.5049 60.7634C12.6669 61.3658 12.6837 61.9898 12.5543 62.5978C12.4668 63.0114 12.4578 63.4406 12.3302 63.8438C11.7524 65.6705 11.2463 67.5202 10.519 69.3042C9.8781 70.9336 9.74571 72.6762 10.1347 74.362C10.6599 76.981 11.9764 79.2051 14.4245 80.9068C14.9451 81.2688 15.4368 81.6622 15.9743 82.0044C16.154 82.0974 16.2948 82.2359 16.3769 82.4004C16.4589 82.565 16.4782 82.7472 16.4319 82.9215C16.3112 83.5434 16.2447 84.1737 16.1789 84.8023C16.0126 86.3892 15.8475 87.9764 15.7062 89.565C15.6347 90.3689 15.8097 91.1229 16.5047 91.7336C16.6614 91.8967 16.8739 92.0145 17.1128 92.0707C17.3517 92.1269 17.6053 92.1187 17.8386 92.0473C19.8011 91.5336 21.7698 91.0441 23.5907 90.208C25.8332 89.1783 28.09 88.1713 30.3379 87.1501C34.5803 85.2027 39.1511 83.8221 43.8891 83.0571C46.1101 82.703 48.3019 82.2093 50.495 81.7389C52.4794 81.3132 53.6238 80.1411 54.1097 78.5133C54.4041 77.5268 54.5693 76.5104 54.7468 75.5017C54.9637 74.2684 55.6373 73.4131 57.0989 72.984C61.9155 71.5701 66.7091 70.0999 71.5199 68.6717C72.8548 68.2754 74.209 67.9194 75.5735 67.6048C76.2649 67.4102 77.0117 67.4096 77.7035 67.6031C77.848 68.1478 77.6146 68.5317 77.3384 68.9342C75.8768 71.0636 74.3748 73.1759 73.0218 75.3546C72.2564 76.6069 71.6239 77.9146 71.1318 79.2622C70.0535 82.1575 69.9458 85.1614 69.8513 88.1771C69.7451 91.5653 71.0723 94.4785 73.4173 97.1287C75.462 99.4421 77.8979 101.487 80.6464 103.196C84.7668 105.764 89.171 107.95 93.6433 110.031C101.711 113.743 109.442 117.96 116.772 122.647C119.029 124.102 121.289 125.553 123.286 127.275C124.823 128.575 125.968 130.171 126.623 131.927C127.132 133.303 127.684 134.667 128.212 136.037C128.93 137.815 129.008 139.733 128.436 141.548C127.583 144.217 126.056 146.627 124.173 148.862C123.531 149.581 122.77 150.218 121.915 150.754C120.912 151.422 119.839 152.011 118.711 152.514C116.321 153.562 113.88 154.525 111.457 155.517C107.476 157.146 103.303 157.399 99.0117 156.736C95.4999 156.194 92.1974 155.113 89.0144 153.783C88.0231 153.381 87.1288 152.826 86.3773 152.146C81.4802 147.526 79.0034 142.153 79.7485 135.878C80.178 132.261 80.7776 128.658 81.2324 125.043C81.5989 122.129 81.6161 119.212 80.6865 116.357C79.3606 112.283 76.6717 109.224 71.7266 107.913C69.7634 107.392 68.1467 106.393 66.4782 105.414C64.6892 104.364 63.7281 102.968 63.2402 101.239C62.6468 99.1366 62.7173 97.0032 62.7617 94.8687C62.7683 94.5521 62.7626 94.2353 62.7626 93.8331C61.8416 94.069 60.9683 94.4228 60.1729 94.8822C59.3908 95.3094 58.8069 95.9531 58.5201 96.7041C58.0299 97.8023 57.7676 98.9643 57.7448 100.139C57.7775 101.642 57.7645 103.146 57.7865 104.649C57.8067 104.823 57.7748 105 57.6936 105.161C57.6125 105.322 57.4847 105.463 57.3222 105.572C56.6464 106.055 56.0426 106.606 55.5243 107.213C52.8254 110.465 50.8604 114.114 49.7291 117.975C48.9832 120.461 49.3384 122.803 51.0252 124.969C51.7282 125.872 52.4262 126.778 53.0985 127.697C53.8564 128.723 54.9333 129.55 56.2104 130.088C58.2908 130.999 60.5359 131.399 62.8447 131.566C64.1421 131.66 65.445 131.7 66.857 131.77C67.0101 132.571 67.2675 133.361 67.2947 134.156C67.4182 137.762 67.4838 141.37 67.5562 144.977C67.6059 147.457 67.9228 149.897 68.9922 152.228C69.6471 153.656 70.3359 155.072 70.9911 156.5C71.1774 156.888 71.3183 157.291 71.4119 157.703C71.4805 157.933 71.4678 158.174 71.3755 158.398C71.2832 158.622 71.1154 158.817 70.8929 158.96C69.6191 157.964 68.2828 157.091 67.741 155.625C67.0947 153.877 66.386 152.145 65.6973 150.409C65.6118 150.193 65.4834 149.99 65.3449 149.723C64.8904 150.087 64.5228 150.41 64.1197 150.698C63.306 151.278 62.7183 151.249 62.014 150.595C61.2496 149.884 60.4994 149.162 59.7534 148.438C58.8444 147.555 58.624 146.104 59.5088 145.212C60.543 144.225 61.6642 143.307 62.8625 142.466C63.3909 142.073 63.8425 142.163 64.3958 142.553C64.6223 142.712 64.8282 142.893 65.155 143.153V133.537C64.5298 133.49 63.9663 133.409 63.4034 133.412C61.9022 133.419 60.4616 133.153 59.0019 132.887C57.8873 132.731 56.7563 132.678 55.6282 132.728C55.2487 132.77 54.8947 132.913 54.6175 133.137C53.478 133.906 52.4877 134.822 51.6827 135.852C50.7172 137.156 49.3699 138.226 47.7723 138.956C46.567 139.538 45.5228 140.333 44.7104 141.288C44.2643 141.752 44.0481 142.346 44.1071 142.943C44.4998 147.47 44.8281 152.002 45.2333 156.528C45.2528 156.996 45.4352 157.449 45.7577 157.83C46.0802 158.21 46.5282 158.501 47.0453 158.666C52.6226 160.663 58.1805 162.699 63.7463 164.72C64.4888 164.99 65.2364 165.249 66.0245 165.529C66.9493 164.64 67.8317 163.783 68.7269 162.935C69.6253 162.085 70.5105 161.222 71.4497 160.404C72.3003 159.664 73.1137 159.632 74.1066 160.214C74.3397 160.351 74.5622 160.5 74.795 160.637C77.0655 161.973 79.2951 163.383 81.8394 164.322C86.6759 166.107 91.7784 167.157 96.9724 167.776C101.56 168.323 106.154 168.021 110.703 167.212C116.642 166.155 122.396 164.567 128.118 162.894C129.648 162.447 130.844 162.613 131.976 163.59C132.988 164.463 134.091 165.26 135.161 166.096C142.984 162.534 150.715 159.014 158.566 155.439C158.651 152.341 158.656 149.245 158.853 146.157C158.951 144.626 158.338 143.41 157.295 142.266C157.035 141.981 156.751 141.711 156.483 141.432C155.431 140.337 154.348 139.262 153.346 138.136C152.924 137.618 152.57 137.064 152.288 136.482C151.97 135.891 152.077 135.367 152.6 134.824C154.369 132.984 156.076 131.101 157.803 129.232C157.97 129.05 158.106 128.848 158.271 128.637C156.203 126.917 154.18 125.234 152.157 123.551C151.218 122.769 151.187 121.987 152.076 121.129C153.526 119.729 154.98 118.332 156.438 116.937C157.09 116.31 157.738 115.68 158.427 115.012C158.128 114.685 157.876 114.401 157.611 114.125C156.065 112.518 154.508 110.918 152.97 109.306C152.305 108.608 152.342 107.963 153.038 107.309C153.466 106.907 153.901 106.512 154.332 106.113C155.647 104.895 156.961 103.677 158.322 102.415C156.468 100.429 154.663 98.4632 152.811 96.529C152.22 95.912 151.844 95.949 151.164 96.5617C149.342 98.203 147.526 99.8493 145.716 101.501C145.577 101.628 145.464 101.776 145.329 101.926C145.485 102.163 145.617 102.374 145.759 102.58C146.816 104.109 147.917 105.619 148.921 107.173C149.692 108.366 149.797 109.068 148.705 110.09C147.209 111.491 145.864 113.007 144.394 114.537C144.613 114.831 144.775 115.06 144.951 115.283C146.449 117.181 147.95 119.078 149.451 120.974C150.146 121.852 150.124 122.403 149.34 123.247C148.507 124.144 147.677 125.044 146.82 125.926C146.655 126.076 146.541 126.261 146.491 126.462C146.441 126.663 146.456 126.872 146.536 127.066C147.079 128.837 147.59 130.62 148.004 132.416C148.593 134.968 148.804 137.548 148.275 140.128C147.904 141.932 147.498 143.736 146.969 145.51C146.609 146.719 146.627 147.798 147.57 148.799C147.652 148.898 147.717 149.006 147.764 149.119C148.117 149.852 148.207 150.567 147.62 151.26C147.042 151.942 146.52 152.661 145.91 153.321C145.58 153.675 145.181 153.978 144.728 154.215C142.914 155.156 141.28 154.463 141.098 152.675C141.09 152.318 141.172 151.963 141.34 151.636C142.112 149.892 142.87 148.142 143.714 146.424C145.517 142.754 146.109 138.927 146.175 134.974C146.288 131.133 145.046 127.351 142.608 124.114C141.281 122.338 139.903 120.589 138.514 118.847C136.035 115.739 132.832 113.26 129.187 111.17C126.077 109.383 122.855 107.743 119.534 106.257C111.762 102.786 104.014 99.2757 96.2237 95.8357C92.1239 94.0254 89.5642 91.1898 88.0105 87.5719C86.7998 84.7531 87.0615 82.0242 88.4805 79.3341C88.6697 78.9449 88.9415 78.5885 89.2824 78.2828C90.55 77.2315 91.8717 76.2185 93.5216 75.6109C95.7718 74.7966 98.1433 74.2492 100.569 73.984C103.511 73.6447 106.437 73.9986 109.359 74.2633C110.808 74.4183 112.185 74.8868 113.359 75.6237C115.671 76.9952 117.386 78.7505 118.064 81.1139C118.483 82.5767 119.431 83.716 120.649 84.7678C126.101 89.4753 132.656 92.5455 140.109 94.3001C141.683 94.6846 143.349 94.7114 144.939 94.3778C145.149 94.3338 145.363 94.3088 145.744 94.2481C144.298 95.8426 142.637 96.6721 140.397 96.2642C139.146 96.066 137.921 95.7624 136.741 95.358C133.986 94.3355 131.288 93.2014 128.567 92.1116C128.23 91.9767 127.896 91.8375 127.517 91.6826C127.517 92.9281 127.514 94.0612 127.517 95.1942C127.521 96.7455 126.283 97.5447 124.918 98.2452C124.378 98.5225 124.095 98.4663 123.788 97.9918C122.869 96.5718 121.997 95.13 121.117 93.692C121.026 93.5284 120.966 93.3536 120.938 93.1741C120.862 92.7735 120.883 92.4316 121.375 92.1607C121.676 91.9628 121.898 91.6917 122.011 91.3837C122.18 90.9252 122.308 90.4564 122.394 89.9814C122.572 89.1907 122.479 89.0693 121.692 88.6759C121.195 88.4486 120.731 88.174 120.307 87.8573C117.62 85.6777 115.455 83.2305 114.887 79.9942C114.866 79.8764 114.788 79.765 114.773 79.6474C114.58 78.1567 113.482 77.3007 111.958 76.7407C111.601 76.6093 111.24 76.4839 110.883 76.3523C108.075 75.318 105.106 75.2934 102.119 75.3059C99.7918 75.3156 97.6941 76.0772 95.5462 76.6577C94.5126 76.937 94.4237 77.5455 95.1546 78.2122C96.0959 79.0706 97.0508 79.9185 97.9763 80.7891C98.8945 81.6528 98.921 82.0373 98.0439 82.8869C97.4983 83.3975 96.9114 83.8751 96.2874 84.3161C95.3629 84.9919 95.2255 85.8068 95.99 86.5902C96.9843 87.609 97.9793 88.6284 99.0155 89.6162C99.7309 90.2982 100.219 90.3025 100.975 89.6576C102.074 88.7201 103.143 87.7568 104.21 86.7928C104.478 86.5527 104.713 86.2873 104.91 86.0019C105.297 85.4321 105.211 85.0539 104.621 84.6624C103.757 84.0882 102.882 83.5258 102.006 82.965C100.917 82.2685 100.816 81.5919 101.736 80.7077C102.838 79.6482 103.972 78.613 105.093 77.5681C105.186 77.4776 105.286 77.3918 105.391 77.3113C106.165 76.7436 106.748 76.7497 107.523 77.3249C108.883 78.3343 110.244 79.3434 111.604 80.352C111.795 80.4869 111.97 80.6361 112.129 80.7977C112.566 81.2662 112.601 81.5359 112.164 82.012C110.619 83.6941 109.165 85.4519 107.455 87.0057C105.477 88.804 103.277 90.4288 101.144 92.1013C100.67 92.4212 100.166 92.7069 99.6364 92.9554C96.115 91.0533 93.4901 88.4047 90.1642 86.4705C90.4917 87.2229 90.9162 87.9067 91.3117 88.6025C92.3603 90.4597 94.0236 92.0173 96.0983 93.085C97.9952 94.0808 99.8528 95.1434 101.822 96.0243C106.238 97.9993 110.699 99.9027 115.167 101.793C120.944 104.237 126.564 106.902 131.792 110.134C131.9 110.192 132.012 110.244 132.129 110.289C133.367 109.376 134.591 108.513 135.761 107.601C137.143 106.524 138.525 105.442 139.828 104.297C144.135 100.513 148.399 96.6932 152.695 92.8994C155.175 90.709 157.696 88.5527 160.494 86.6487C160.746 86.4773 160.943 86.1742 161.361 86.2478C161.825 109.912 161.16 133.529 160.462 157.115C159.246 157.613 158.103 158.026 157.02 158.531C141.281 165.865 125.565 173.231 110.105 180.984C108.337 181.871 106.554 182.74 104.73 183.539C102.878 184.35 100.997 184.478 99.0337 183.639C95.9985 182.342 92.9071 181.14 89.8322 179.911C79.6474 175.84 69.3632 171.943 59.4172 167.451C54.541 165.249 49.6416 163.084 44.7779 160.862C43.9192 160.445 43.121 159.944 42.3996 159.369C42.0443 159.095 41.7642 158.758 41.5793 158.382C41.3943 158.006 41.309 157.6 41.3293 157.193C41.3321 155.45 41.2554 153.707 41.2262 151.963C41.0818 143.335 40.9403 134.707 40.8017 126.079C40.6699 117.841 40.5408 109.604 40.4145 101.366C40.3357 96.4655 40.25 91.5653 40.1572 86.6651C40.1355 86.4529 40.0974 86.2421 40.043 86.0341C38.9389 86.2514 37.9095 86.4604 36.8766 86.6561C32.9998 87.3904 29.5808 88.9084 26.4881 90.9971C26.2713 91.1228 26.0985 91.2959 25.9879 91.498C25.8772 91.7001 25.8329 91.9239 25.8595 92.1456C25.9597 93.5256 26.002 94.9087 26.0569 96.2909C26.2287 100.618 26.3977 104.945 26.5637 109.272C26.8397 116.605 27.0917 123.937 27.3935 131.269C27.4886 132.924 27.1981 134.578 26.5386 136.137C26.199 136.99 26.0558 137.89 26.1167 138.789C26.2622 144.41 26.3893 150.031 26.4979 155.652C26.5807 159.56 26.6546 163.468 26.7195 167.377C26.727 167.871 26.8698 168.25 27.379 168.514C28.253 168.968 29.0667 169.539 29.9994 169.871C33.2951 171.044 36.5745 172.282 39.9635 173.227C45.4877 174.754 50.8112 176.76 55.8492 179.216C58.3331 180.432 60.8586 181.588 63.3794 182.75C74.3334 187.796 85.1083 193.123 96.2363 197.897C97.4686 198.426 98.6766 198.998 99.9264 199.495C101.102 199.962 102.329 200.179 103.632 199.822C106.597 199.005 109.44 197.898 112.105 196.526C119.595 192.691 127.102 188.881 134.628 185.096C140.229 182.271 145.964 179.626 151.228 176.346C153.593 174.873 156.221 174.001 159.034 173.415C163.502 172.483 167.961 171.523 172.411 170.533C173.364 170.305 174.291 170.006 175.181 169.638C175.653 169.455 176.054 169.162 176.338 168.794C176.621 168.425 176.774 167.995 176.78 167.555C176.832 166.925 176.916 166.297 176.958 165.667C177.392 159.23 177.05 152.804 176.564 146.38C176.506 145.592 176.138 144.844 175.519 144.255C175.178 143.909 174.801 143.59 174.393 143.302C174.1 143.126 173.891 142.866 173.805 142.571C173.718 142.275 173.76 141.963 173.922 141.691C174.118 141.305 174.351 140.934 174.619 140.581C175.33 139.642 175.715 138.551 175.732 137.435C175.743 133.376 175.795 129.317 175.824 125.257C175.865 119.484 175.902 113.711 175.935 107.937C175.995 99.969 176.06 92.001 176.13 84.0329C176.132 83.772 176.164 83.5113 176.193 83.0947C177.401 83.4376 178.513 83.7147 179.59 84.0694C180.875 84.4927 182.109 85.0324 183.404 85.4281C184.505 85.7647 185.224 85.3832 185.435 84.4293C185.904 82.3035 186.398 80.1797 186.771 78.0412C187.337 74.7979 187.947 71.5691 189.319 68.483C189.368 68.3702 189.409 68.2551 189.443 68.1384C189.915 66.5724 190.385 65.006 190.849 63.4615C189.376 62.476 189.156 61.974 189.818 60.5032C190.178 59.6877 190.663 58.9166 191.262 58.2099C193.087 56.1028 194.959 54.026 196.88 51.9796C198.106 50.6922 199.08 49.2453 199.763 47.6946C199.857 47.4778 199.905 47.2468 200 46.9383C197.517 45.5028 195.048 44.098 192.61 42.6573ZM13.7011 61.4013C13.4862 61.282 13.3101 61.1187 13.1889 60.9266C13.0678 60.7344 13.0055 60.5195 13.0078 60.3016C12.9405 59.5135 12.537 58.7732 11.8728 58.2196C11.2861 57.6566 10.6637 57.1212 10.0083 56.6157C9.03036 55.9044 8.48436 55.0588 8.51625 53.9536C8.5057 53.6655 8.47722 53.3782 8.4309 53.0927C7.87143 53.0114 7.3063 52.9612 6.73912 52.9424C6.16877 52.9543 5.60218 52.8608 5.07864 52.6684C4.55509 52.476 4.0871 52.1892 3.70711 51.828C2.83397 50.9635 2.01978 50.0575 1.26853 49.1141C1.01352 48.8199 1.1687 48.537 1.41695 48.2964C1.92989 47.7994 2.42751 47.2879 2.97953 46.8236C4.30123 45.6876 5.80336 44.714 7.4424 43.9307C9.52003 42.9614 11.6457 42.0666 13.7392 41.1214C14.4691 40.7918 15.2107 40.7843 16.1026 40.8991C16.5775 47.0281 17.0505 53.1336 17.5288 59.3066C15.9635 59.6503 14.8411 60.5274 13.7011 61.4013ZM53.6854 61.0596C53.615 66.05 53.6713 71.0417 53.626 76.0325C53.6366 76.811 53.4929 77.5855 53.2007 78.3235C52.3299 80.3474 50.3752 81.2426 48.0073 81.5809C45.9487 81.875 43.8704 82.0725 41.8165 82.3871C38.3016 82.9256 35.0287 84.0458 31.8827 85.4651C28.1006 87.1715 24.2983 88.8455 20.503 90.5307C19.3481 91.0436 18.1395 91.3249 16.8309 91.1187C16.1106 89.7476 16.9464 84.3332 18.1208 82.9622C19.059 83.0504 20.0422 83.1203 21.0173 83.2382C27.5871 84.0328 33.754 82.8741 39.6836 80.5082C42.0998 79.5441 44.4275 78.4803 46.2926 76.8087C47.6421 75.5716 48.7743 74.1757 49.6543 72.6642C50.2403 71.6271 50.497 70.478 50.3992 69.3308C50.1918 65.1852 49.5733 61.0618 48.5504 57.0044C48.2143 55.6697 47.3517 54.5758 46.2997 53.5786C44.75 52.1097 42.9001 50.9546 40.954 49.8967C35.9321 47.1667 31.1536 44.1696 26.8955 40.6061C26.6432 40.395 26.3747 40.1959 26.1432 39.9695C25.6515 39.4887 25.6641 39.0429 26.2399 38.664C27.5828 37.7802 28.9513 36.9244 30.3115 36.0595C31.2593 35.4568 32.2632 35.4601 33.3239 35.8331C34.7261 36.3262 35.7131 37.0945 35.9234 38.442C36.0162 39.037 36.1351 39.6304 36.2829 40.2172C36.3937 40.5658 36.5268 40.909 36.6816 41.2453C36.9185 41.1797 37.1476 41.0953 37.3657 40.993C37.9894 40.6498 38.5799 40.2648 39.1313 39.8417C41.066 38.1563 43.4151 36.8543 46.0111 36.0286C46.7299 35.778 47.3918 35.4229 47.9669 34.9792C48.6053 34.5122 48.4985 34.0884 47.7177 33.8254C44.4606 32.7286 41.2007 31.6283 37.7729 30.9645C36.2373 30.67 34.6312 30.7977 33.1868 31.3291C29.8498 32.5187 26.8052 34.1515 24.3939 36.4285C21.8231 38.8562 21.1479 41.7187 22.816 44.7957C24.1658 47.2554 26.0483 49.4778 28.3656 51.347C31.3988 53.8311 34.424 56.3222 37.4742 58.7911C39.1939 60.1831 40.6429 61.7154 41.2271 63.7166C41.4162 64.3254 41.5272 64.9498 41.5583 65.5788C41.6049 67.1414 41.5911 68.7058 41.5615 70.269C41.5489 70.6554 41.457 71.037 41.2901 71.3966C40.8673 72.3203 40.3583 73.2157 39.938 74.1402C39.5352 75.0461 38.8503 75.8421 37.9563 76.4435C34.7858 78.5813 31.2649 79.9211 27.1148 79.7427C26.6199 79.7402 26.1288 79.6683 25.6615 79.5299C23.9276 78.9276 22.1958 78.3146 20.5053 77.6305C19.6237 77.2703 18.8354 76.7648 18.1861 76.1435C17.5369 75.5221 17.0398 74.7974 16.7237 74.0114C16.4519 73.3931 16.25 72.7531 15.9938 72.1295C15.719 71.4745 15.6195 70.7758 15.7025 70.0842C15.7855 69.3925 16.049 68.7251 16.4737 68.1307C17.0212 67.3262 17.6676 66.5734 18.4022 65.8848C19.445 64.8987 20.5166 63.9475 21.2533 62.759C21.442 62.431 21.7417 62.1584 22.114 61.9758C22.4863 61.7933 22.9144 61.7092 23.3433 61.7343C24.37 61.7563 25.3963 61.8008 26.423 61.8044C26.6505 61.7898 26.8779 61.8333 27.076 61.9293C27.2741 62.0254 27.4337 62.1696 27.5344 62.3433C28.1086 63.2067 28.7318 64.0465 29.3327 64.8971C29.9096 65.7391 30.095 66.7336 29.8524 67.6856C29.744 68.0928 29.5067 68.4671 29.1662 68.7682C28.4587 69.3693 27.5389 69.7572 26.5472 69.8728C25.491 70.0327 24.7096 69.5134 23.9736 69.0083C23.7713 68.8694 23.7761 68.46 23.7786 68.1752C23.8184 67.8959 23.8936 67.6211 24.0029 67.3555C23.1671 67.5599 22.5679 67.8818 22.2016 68.4852C21.6506 69.3928 21.6845 69.7722 22.5213 70.4933C23.0669 70.9633 23.6716 71.3837 24.2444 71.8313C24.7676 72.2428 25.3939 72.5482 26.0763 72.7244C26.7587 72.9006 27.4792 72.9431 28.1837 72.8486C29.5508 72.6994 30.9012 72.4558 32.2215 72.1201C33.7734 71.7349 35.0834 70.8453 35.8668 69.6447C36.5389 68.7145 36.7827 67.6065 36.5516 66.533C36.136 64.6091 35.3621 62.7536 34.2588 61.0363C33.5512 59.9247 32.402 59.2218 31.0604 58.7669C27.8009 57.6619 24.4664 57.1658 20.9989 58.0315C20.295 58.2073 19.5833 58.3606 18.8039 58.5407C18.7509 58.383 18.7099 58.2225 18.6811 58.0604C18.3937 54.7031 18.0437 51.3483 17.8502 47.9871C17.7086 45.5266 17.743 43.0575 17.7566 40.5925C17.7675 38.6392 17.8543 36.6859 17.9303 34.7333C17.9696 33.7236 18.1603 33.5105 19.3432 33.2165C20.7346 32.8708 22.131 32.53 23.5447 32.2605C29.2599 31.1708 34.7728 29.5538 40.2068 27.7238C43.1837 26.6781 46.2539 25.8348 49.3882 25.2018C49.7616 25.1312 50.1388 25.0748 50.6569 24.9879C50.8232 25.9578 51.0318 26.8643 51.1267 27.7792C51.6983 33.2879 52.2815 38.7959 52.7875 44.309C53.2992 49.8831 53.7646 55.4593 53.6854 61.0596ZM66.4903 130.166C66.1033 130.173 65.7161 130.16 65.331 130.126C65.7024 129.106 66.7215 128.633 67.2225 127.833C66.6421 127.608 66.2392 127.872 65.8261 128.078C65.0023 128.489 64.1879 128.913 63.3586 129.316C62.8807 129.548 62.352 129.695 61.8049 129.747C61.2578 129.8 60.7038 129.758 60.1767 129.623C58.0897 129.123 56.1708 128.212 54.5756 126.965C54.0289 126.536 53.5899 126.017 53.285 125.44C51.467 122.086 50.8903 118.589 52.0371 114.996C52.4206 113.795 53.141 112.659 53.8208 111.543C54.1669 111.054 54.6225 110.627 55.1617 110.286C56.2558 109.551 57.4974 108.99 58.8266 108.631C59.5202 109.786 60.174 110.874 60.9062 112.093C59.8014 111.895 58.8617 111.725 57.7752 111.53C57.8379 111.858 57.9309 112.182 58.0533 112.499C58.7745 113.902 58.443 115.267 57.8046 116.592C57.3905 117.451 56.822 118.256 56.3271 119.087C56.2189 119.269 56.1292 119.458 55.9988 119.705C56.7431 120.014 57.4334 120.301 58.1829 120.613C58.2849 121.588 58.3875 122.569 58.501 123.655C58.8249 123.627 59.1445 123.571 59.4548 123.488C60.1996 123.2 61.0106 123.057 61.8287 123.069C62.6468 123.082 63.4514 123.248 64.184 123.558C64.845 123.816 65.3172 123.757 65.7897 123.352C66.6608 122.606 67.5975 121.905 68.3787 121.095C68.974 120.469 69.299 119.69 69.2994 118.885C69.2999 118.081 68.9758 117.301 68.3811 116.675C67.1147 115.342 65.8014 114.041 64.4413 112.773C63.1829 111.588 62.1791 110.224 61.4755 108.744C60.3409 106.41 59.4862 103.984 58.9245 101.505C58.6986 100.603 58.7105 99.6707 58.9595 98.7738C59.2085 97.8769 59.6884 97.0378 60.3647 96.317C60.4944 96.1741 60.6355 96.039 60.7871 95.9127C60.9079 95.8395 61.037 95.7766 61.1724 95.7251C61.3111 96.4788 61.419 97.183 61.5729 97.8798C61.9965 99.7976 62.4019 101.719 62.8863 103.626C63.2723 105.131 64.0242 106.55 65.094 107.794C66.1931 109.081 67.4155 110.293 68.5413 111.565C69.9216 113.125 71.2855 114.696 72.5992 116.296C73.144 116.96 72.9196 117.684 72.452 118.335C72.2068 118.642 71.9435 118.938 71.6631 119.223C72.5206 119.677 72.6029 120.441 72.5791 121.138C72.5662 122.669 72.4269 124.197 72.1622 125.712C71.9182 126.878 71.232 127.944 70.2081 128.748C69.1841 129.552 67.8786 130.05 66.4903 130.166ZM62.9464 114.416C64.5369 115.658 65.5417 117.347 65.774 119.171C65.8112 119.396 65.7839 119.625 65.6944 119.838C65.6049 120.052 65.4559 120.244 65.26 120.399C64.3312 121.188 63.1597 121.74 61.8792 121.991C61.4698 122.094 61.0326 122.082 60.6317 121.958C60.2308 121.833 59.8874 121.603 59.6518 121.301C58.9846 120.539 58.3307 119.796 58.5871 118.775C58.9126 117.478 59.5694 116.336 60.8831 115.548C61.5414 115.153 62.2368 114.803 62.9464 114.416ZM144.545 93.3361C144.333 93.5766 144.054 93.7696 143.734 93.8982C143.413 94.0268 143.061 94.0873 142.707 94.0745C140.899 93.9966 139.121 93.6549 137.45 93.0646C133.773 91.7897 130.276 90.1963 126.824 88.5387C125.469 87.8751 124.27 87.0053 123.287 85.9727C122.786 85.4644 122.444 84.857 122.293 84.2069C121.921 82.487 121.971 80.7205 122.439 79.0176C122.482 78.8412 122.524 78.6644 122.558 78.4866C122.562 78.4269 122.558 78.3671 122.547 78.3081C121.19 77.4525 119.798 76.635 118.489 75.7306C117.143 74.8009 116.421 73.466 115.631 72.1991C113.916 72.7543 113.163 72.6328 111.959 70.3877C110.895 70.5911 111.451 71.5227 110.926 72.0206C110.223 71.6517 109.475 71.3136 108.802 70.8895C108.131 70.4664 107.535 69.9572 106.868 69.4574V71.3382C104.396 70.8489 102.261 70.1562 100.957 68.046C100.741 69.0096 100.935 69.7683 101.11 70.5403C98.5034 70.9922 96.6891 70.1375 95.4498 68.0431C95.1608 69.3447 95.8289 70.2633 96.2659 71.3007C95.466 71.5568 94.7236 71.8238 93.9593 72.0332C92.4089 72.4756 90.9972 73.2112 89.8306 74.1843C88.2942 75.4339 86.9492 76.8426 85.8273 78.3773C84.4462 80.2369 84.2809 82.2731 84.6076 84.379C84.686 84.8847 84.8433 85.3815 84.9245 85.8871C85.2889 88.1568 86.5456 90.0338 88.4465 91.6137C91.6809 94.3019 95.3586 96.4966 99.2518 98.4275C103.967 100.766 108.949 102.661 113.939 104.523C119.767 106.672 125.114 109.659 129.744 113.353C130.841 114.209 131.749 115.224 132.426 116.351C132.901 117.158 133.438 117.94 133.858 118.767C134.45 119.932 135.547 120.473 136.934 120.53C137.939 120.572 138.551 120.953 139.117 121.594C141.681 124.445 142.928 127.993 142.622 131.57C142.497 133.371 142.349 135.17 142.215 136.971C142.2 137.178 142.213 137.387 142.213 137.632C143.041 137.68 143.449 136.756 144.388 137.021C144.565 137.802 144.556 138.605 144.361 139.383C143.963 140.88 143.31 142.321 142.423 143.659C141.93 144.439 141.427 144.422 140.915 143.649C140.816 143.489 140.728 143.325 140.65 143.157C140.195 142.242 139.981 142.145 138.656 142.279C138.048 143.892 137.454 145.523 136.816 147.141C136.355 148.309 135.84 149.461 135.341 150.617C134.905 151.606 134.22 152.502 133.333 153.243C132.536 153.926 131.733 154.613 131.021 155.358C129.462 156.969 127.48 158.248 125.234 159.09C123.436 159.786 121.573 160.359 119.614 161.03C119.652 161.899 118.809 162.154 117.914 162.452C113.949 163.774 109.906 163.806 105.802 163.072C105.389 162.998 104.977 162.919 104.54 162.838C103.919 163.342 103.326 163.856 102.692 164.33C101.004 165.591 99.4768 165.78 97.3072 165.03C97.3363 164.304 97.3363 164.304 98.5291 162.826C96.9396 162.229 95.3874 161.591 93.6267 161.571C92.2141 161.555 90.8001 161.645 89.3864 161.675C88.1851 161.7 86.983 161.694 85.782 161.723C85.5889 161.728 85.3983 161.685 85.234 161.599C85.0697 161.512 84.939 161.387 84.858 161.238C84.1379 160.273 83.3782 159.329 82.6577 158.365C81.9256 157.397 80.8736 156.633 79.6332 156.169C79.3119 156.043 78.9979 155.899 78.6667 155.796C76.7309 155.191 75.5465 153.982 74.8369 152.388C73.5409 149.476 72.567 146.487 72.4606 143.367C72.3468 140.033 72.4236 136.694 72.4475 133.358C72.4781 132.971 72.5846 132.591 72.7626 132.233C73.3772 130.792 74.0226 129.361 74.6492 127.925C75.6482 125.536 76.0203 122.99 75.7393 120.466C75.6322 119.661 75.4011 118.87 75.0517 118.116C73.7986 115.129 72.0049 112.365 70.1021 109.649C69.8169 109.242 69.5465 108.828 69.2647 108.41C70.5149 107.966 71.5239 108.166 72.4838 108.846C73.2319 109.352 74.0095 109.825 74.8136 110.264C75.9195 110.92 76.8405 111.777 77.5106 112.771C78.8316 114.667 79.5101 116.835 79.4715 119.037C79.5007 122.402 78.8378 125.68 78.0613 128.953C77.7749 130.16 77.4012 131.355 77.1789 132.57C76.9567 133.785 76.855 135.016 76.743 136.243C76.7386 136.574 76.7937 136.902 76.9065 137.218C77.0036 137.6 77.1407 137.974 77.3161 138.336C78.415 140.454 78.5351 142.698 78.5693 144.961C78.5614 145.952 78.6255 146.942 78.7609 147.926C79.0107 149.473 79.9812 150.591 81.7796 151.116C82.3818 151.292 82.9642 151.527 83.5779 151.661C83.8186 151.701 84.0374 151.807 84.2012 151.962C84.365 152.117 84.4651 152.313 84.4863 152.521C84.683 153.37 84.9297 154.211 85.1773 155.137C85.8699 154.851 86.4641 154.605 87.1159 154.336C87.9396 154.873 88.7715 155.421 89.6117 155.96C91.5285 157.19 93.6167 158.116 96.0007 158.492C96.5235 158.563 97.0511 158.605 97.5803 158.619C99.0285 158.689 100.482 158.709 101.925 158.825C102.656 158.923 103.378 159.068 104.085 159.257C104.77 159.403 105.447 159.578 106.138 159.697C106.835 159.808 107.556 159.746 108.214 159.52C109.244 159.199 110.294 158.926 111.359 158.703C115.876 157.749 119.942 155.921 123.983 154.045C125.021 153.518 125.916 152.812 126.611 151.972C127.257 151.22 127.972 150.512 128.749 149.855C129.422 149.324 130.18 148.877 131 148.527C131.272 148.434 131.516 148.29 131.713 148.105C131.91 147.921 132.055 147.701 132.137 147.462C133.873 142.478 134.762 137.441 133.699 132.245C133.501 131.273 133.132 130.416 132.184 129.864C130.857 129.091 130.265 127.989 129.944 126.728C129.791 126.07 129.342 125.489 128.693 125.107C127.737 124.539 126.729 124.034 125.781 123.457C124.865 122.899 123.985 122.296 123.117 121.685C122.861 121.453 122.636 121.197 122.446 120.924C123.476 120.843 124.354 120.773 125.304 120.699C124.93 119.748 124.203 118.925 123.232 118.355C121.548 117.308 119.892 116.203 118.088 115.324C115.143 113.889 112.095 112.606 109.079 111.279C107.413 110.546 105.699 109.89 104.048 109.134C101.46 107.991 99.2426 106.326 97.5902 104.285C97.4806 104.105 97.3124 103.957 97.1057 103.856C96.8989 103.756 96.6625 103.708 96.4246 103.719C96.3735 103.925 96.3171 104.122 96.2774 104.321C96.2431 104.494 96.2276 104.669 96.1868 104.967C95.482 104.774 94.84 104.638 94.2356 104.426C91.5544 103.483 88.89 102.506 86.2074 101.567C84.7334 101.044 83.3807 100.302 82.2126 99.3774C79.979 97.6107 78.1001 95.5463 76.6499 93.2658C75.8663 92.0596 75.6473 90.7088 75.3989 89.373C75.2941 88.8096 75.2527 88.2379 75.1554 87.6733C75.0758 87.3891 74.9748 87.1094 74.8531 86.8361C74.4504 87.4481 74.1778 87.8918 73.8725 88.3187C73.5183 88.8139 73.037 89.1247 72.2963 89.0323C71.764 88.9658 71.4087 88.7157 71.4202 88.272C71.4411 87.4702 71.506 86.73 72.3915 86.1128C73.246 85.5172 73.8815 84.6788 74.5335 83.899C74.7768 83.6082 74.7948 83.1815 74.9324 82.7656C74.2335 82.643 73.6412 82.5688 73.0698 82.4317C72.2692 82.2397 72.1617 81.8269 72.7492 81.3244C72.894 81.192 73.0539 81.0721 73.2268 80.9667C73.4863 80.8099 73.7013 80.6059 73.856 80.3696C74.0108 80.1333 74.1014 79.8706 74.1212 79.6008C74.2288 78.9773 74.3907 78.3602 74.5399 77.7423C74.8476 76.5343 75.4013 75.3813 76.1762 74.3351C77.3583 72.6949 78.5736 71.0698 79.8443 69.4784C80.9732 68.0646 82.5067 66.9917 84.2005 66.0857C87.5464 64.2961 91.2324 63.2492 95.0908 62.666C99.7406 61.9665 104.498 61.9602 109.151 62.6474C110.712 62.9102 112.243 63.2867 113.728 63.7727C115.192 64.2165 116.615 64.7657 118.025 65.325C120.142 66.1644 121.878 67.4484 123.5 68.8489C124.22 69.4706 124.912 70.1157 125.619 70.7485C126.056 71.1652 126.593 71.497 127.195 71.721C127.796 71.945 128.448 72.056 129.105 72.0463C130.132 72.0464 131.159 72.1015 132.178 72.2112C132.738 72.2723 133.283 72.4076 133.793 72.6124C134.768 72.9711 135.707 73.3961 136.601 73.8833C137.621 74.4763 138.736 74.5991 139.905 74.707C142.296 74.9279 144.685 75.1776 147.066 75.468C147.688 75.5784 148.291 75.758 148.858 76.0022C149.231 76.1404 149.524 76.4104 149.359 76.7956C148.757 78.1992 148.129 79.5945 147.443 81.1474C146.669 80.4936 146.013 79.9604 145.386 79.4041C144.777 78.8642 144.356 78.8656 143.877 79.4959C143.417 80.1017 143.021 80.7424 142.57 81.3538C142.143 81.9328 141.895 81.9387 141.37 81.4365C140.877 80.9649 140.389 80.4887 139.878 80.0308C139.661 79.8314 139.395 79.6743 139.099 79.5702C138.803 79.4661 138.484 79.4174 138.164 79.4274C134.791 79.4431 131.453 80.0124 128.335 81.104C126.972 81.588 126.594 82.4125 127.102 83.6024C127.564 84.683 128.148 85.7232 129.171 86.509C130.509 87.5361 131.845 88.5718 133.267 89.5112C134.96 90.6305 136.998 91.0743 139.086 91.3201C140.383 91.4727 141.693 91.5403 142.994 91.6621C143.382 91.6866 143.763 91.7543 144.13 91.8636C144.298 91.9131 144.448 91.9977 144.567 92.1094C144.686 92.2212 144.771 92.3567 144.812 92.5033C144.853 92.65 144.851 92.8031 144.804 92.9486C144.758 93.0942 144.669 93.2274 144.545 93.3361ZM151.583 77.0191C151.303 77.7631 150.972 78.4926 150.592 79.2039C149.834 80.4595 148.983 81.6743 148.158 82.9C147.992 83.1002 147.808 83.2893 147.608 83.4657C146.682 82.6971 145.789 81.9554 144.795 81.1297C144.545 81.5416 144.367 81.8863 144.137 82.204C143.562 82.9978 142.979 83.7878 142.37 84.5627C142.185 84.7806 142.071 85.036 142.039 85.3032C142.007 85.5704 142.059 85.84 142.188 86.085C142.95 87.7704 145.978 89.8446 148.095 90.0914C148.405 90.1274 148.708 90.201 149.081 90.2696C148.972 90.4775 148.846 90.6787 148.704 90.8718C148.034 91.6458 147.745 91.6081 146.816 91.0694C145.063 90.0522 143.778 88.6516 142.345 87.3674C141.494 86.6043 140.598 85.873 139.674 85.1727C138.443 84.239 136.218 84.2417 134.961 85.1269C134.535 85.4273 134.417 85.8067 134.526 86.3313C134.827 86.319 135.124 86.2726 135.411 86.1934C136.203 85.8697 136.994 85.9751 137.802 86.1017C139.258 86.3297 140.006 87.0476 140.155 88.5064C140.192 88.8601 140.161 89.2187 140.161 89.5913C139.26 89.929 138.252 90.0038 137.296 89.8041C135.488 89.3748 133.689 88.9227 132.261 87.7916C131.783 87.413 131.543 87.0234 131.695 86.4476C131.896 85.6865 132.013 84.9097 132.175 84.141C132.211 83.9939 132.262 83.8498 132.328 83.7104C133.049 82.0548 136.171 80.4275 138.234 80.6196C138.838 80.6594 139.408 80.8727 139.85 81.2245C140.592 81.8214 141.366 82.3911 142.216 83.0411C143.038 81.9656 143.814 80.9489 144.658 79.8448C145.703 80.6392 146.667 81.3718 147.708 82.1629C147.88 81.844 148.013 81.6129 148.131 81.3759C148.815 79.9908 149.492 78.603 150.18 77.2189C150.571 76.4311 150.492 76.073 149.627 75.6279C148.418 74.9953 147.074 74.5713 145.672 74.38C143.643 74.1111 141.616 73.8356 139.585 73.585C137.423 73.3184 135.565 72.4646 133.781 71.4649C132.813 70.9218 131.799 70.5226 130.606 70.6374C129.468 70.7468 128.547 70.3797 127.677 69.8009C126.447 68.983 125.872 68.4309 125.469 67.5214C127.31 67.7954 129.12 68.0012 130.598 69.0869C133.546 71.2543 137.139 72.2861 140.822 73.0908C142.286 73.4105 143.835 73.4409 145.336 73.649C146.389 73.7605 147.427 73.9559 148.437 74.2324C149.343 74.5614 150.208 74.967 151.019 75.443C151.719 75.8117 151.864 76.3751 151.583 77.0191Z" fill="#4D4F4D"/>
<path d="M57.9888 83.211C57.7102 83.4985 57.3429 83.7146 56.928 83.8351C56.513 83.9556 56.0667 83.9757 55.6391 83.8932C55.1492 83.8315 54.6755 83.6988 54.2386 83.501C53.819 83.2689 53.3249 83.153 52.8245 83.1694C52.3241 83.1859 51.842 83.3337 51.4448 83.5926C50.7307 83.9873 49.9082 84.2181 49.0576 84.2624C48.0374 84.3581 47.0125 84.4169 45.9907 84.5006C45.4003 84.549 44.8119 84.6152 44.2645 84.6693C43.8796 85.3487 43.7525 86.1128 43.9008 86.8561C44.023 87.3258 44.0967 87.8037 44.1211 88.2844C44.1423 88.9481 44.4638 89.5793 45.0188 90.0471C46.9525 91.8842 48.8777 93.729 50.7514 95.6101C51.9395 96.8028 53.0287 98.0665 54.1671 99.2951C54.3544 99.4972 54.5671 99.6823 54.8498 99.9535C54.9964 99.5638 55.0838 99.2811 55.2078 99.0105C55.9119 97.4729 56.5453 95.9068 57.3582 94.4114C57.7023 93.7597 58.237 93.1935 58.9115 92.7667C59.586 92.3399 60.3779 92.0666 61.2119 91.9728C62.3047 91.832 63.4565 92.0211 64.6778 92.0658C64.7057 92.4626 64.7364 92.7293 64.7412 92.9964C64.7728 94.7397 64.8195 96.4831 64.8194 98.2264C64.7916 99.4586 65.0447 100.684 65.5647 101.834C66.1307 103.041 66.9845 103.952 68.3984 104.493C70.6893 105.368 72.9279 106.349 75.2537 107.15C77.6594 107.978 79.3059 109.422 80.4862 111.305C81.5835 113.055 82.6484 114.821 83.664 116.606C84.3305 117.778 84.5665 119.092 84.3414 120.379C83.9745 122.579 83.5539 124.774 83.1386 126.968C83.038 127.443 83.059 127.93 83.2001 128.397C83.3412 128.864 83.5992 129.3 83.9564 129.675C84.5208 130.292 85.0667 130.922 85.6481 131.528C86.1367 132.037 85.9325 132.621 85.935 133.176C85.9371 133.624 85.3914 133.677 85.0696 133.887C84.5962 134.196 84.034 134.439 83.656 134.815C82.4318 136.035 81.6523 137.415 81.7595 139.081C81.8058 139.8 81.7513 140.524 81.7564 141.245C81.7341 141.516 81.7598 141.787 81.8328 142.051C82.5325 143.914 83.5087 145.693 84.7379 147.346C85.3937 148.217 86.2562 148.254 87.2232 147.609C91.8471 144.528 96.4871 141.463 101.08 138.349C101.926 137.776 102.93 137.769 103.714 138.377C106.59 140.607 109.53 142.777 112.451 144.965C114.176 146.257 115.83 147.632 117.662 148.805C119.603 150.048 119.203 149.912 120.958 148.751C123.251 147.234 124.638 145.123 125.981 143.001C126.2 142.59 126.341 142.152 126.398 141.704C126.732 140.024 126.548 138.349 126.257 136.678C126.195 136.441 126.118 136.206 126.026 135.975C125.351 136.327 124.779 136.608 124.231 136.919C123.909 137.102 123.639 137.351 123.322 137.541C122.449 138.065 121.898 137.955 121.291 137.192C120.976 136.796 120.624 136.419 120.272 136.044C119.742 135.481 118.981 134.992 118.72 134.354C118.459 133.715 118.748 132.927 118.693 132.211C118.66 131.867 118.717 131.522 118.859 131.199C119.002 130.876 119.227 130.584 119.518 130.343C119.707 130.207 119.87 130.046 120 129.867C120.225 129.538 120.375 129.177 120.443 128.802C120.471 128.455 120.404 128.108 120.246 127.788C120.089 127.468 119.845 127.183 119.535 126.957C116.823 124.881 114.078 122.839 110.865 121.326C108.853 120.379 106.803 119.49 104.766 118.583C104.431 118.434 104.071 118.325 103.672 118.18C103.079 118.878 102.519 119.531 101.967 120.189C101.598 120.63 101.274 121.101 100.872 121.519C100.215 122.201 99.733 122.184 99.1068 121.495C98.5228 120.852 97.9761 120.184 97.3716 119.556C96.9784 119.169 96.7769 118.667 96.8092 118.157C96.8521 117.016 96.79 115.871 96.8362 114.73C96.8673 114.496 96.8103 114.26 96.6736 114.055C96.5369 113.85 96.3274 113.688 96.075 113.59C94.0218 112.582 91.9909 111.541 89.9687 110.488C85.0173 107.912 80.1299 105.255 75.4238 102.358C71.3988 99.8812 69.068 96.5495 68.1238 92.4501C67.556 89.9851 67.5046 87.4956 67.4986 84.9988C67.5055 83.6757 67.7064 82.3586 68.0968 81.0777C68.8754 78.4377 70.1639 75.9696 71.5785 73.5422C71.864 73.0927 72.1189 72.6297 72.3418 72.1554C72.542 71.6811 72.7058 71.1712 72.2323 70.7243C67.9562 70.7103 64.3367 72.3296 60.5842 73.8333C60.9156 74.2269 61.1405 74.5337 61.411 74.8083C62.3996 75.8121 62.0081 76.9493 61.8739 78.0634C60.674 79.8295 59.6552 81.6825 57.9888 83.211Z" fill="#4D4F4D"/>
<path d="M98.3211 56.8127C98.1891 56.9065 98.2189 57.1643 98.1267 57.5326C101.608 56.6562 105.087 56.4325 108.369 55.2607C108.084 54.9255 107.882 54.6843 107.675 54.4467C106.665 53.288 106.129 52.0017 106.401 50.5573C106.641 49.2849 106.924 48.0135 107.301 46.7665C107.591 45.8599 108.156 45.0341 108.942 44.3725C109.437 43.9429 109.84 43.9143 110.184 44.3575C111.137 45.5877 112.104 46.8317 112.143 48.3827C112.176 49.7352 112.114 51.0911 112.2 52.4407C112.254 53.7389 111.859 55.0221 111.063 56.1315C110.855 56.4452 110.605 56.7388 110.39 57.0491C110.12 57.4383 109.927 57.8426 110.13 58.3271C111.718 58.1538 113.248 57.9194 114.789 57.8371C116.362 57.7531 117.946 57.8185 119.486 57.8185C119.813 56.8951 119.166 56.4426 118.591 56.0208C118.336 55.8424 118.135 55.6144 118.006 55.3561C117.877 55.0978 117.823 54.8168 117.849 54.537C117.884 51.1992 117.866 47.8609 117.865 44.5228C117.884 43.435 117.567 42.362 116.946 41.4104C116.778 41.1087 116.511 40.8545 116.177 40.6785C115.843 40.5025 115.456 40.4122 115.063 40.4184C114.321 40.4234 113.58 40.4657 112.844 40.545C111.343 40.7151 109.848 40.9255 108.27 41.1296C107.294 37.1845 107.909 33.2527 107.824 29.258C107.084 29.2561 106.344 29.2999 105.612 29.3891C103.146 29.8501 101.295 31.127 99.7246 32.7371C98.9942 33.4861 99.0054 33.6053 99.8019 34.2972C101.382 35.6703 102.23 37.2548 102.178 39.2324C102.076 43.1742 101.717 47.0973 101.269 51.0182C101.017 53.2234 100.455 55.2973 98.3211 56.8127Z" fill="#4D4F4D"/>
<path d="M113.753 177.126C114.702 176.763 115.664 176.504 116.483 176.056C117.567 175.461 118.472 174.621 118.69 173.51C119.047 171.687 120.059 170.114 121.018 168.507C121.102 168.342 121.246 168.204 121.429 168.113C121.612 168.023 121.824 167.984 122.035 168.004C122.677 167.992 123.3 168.189 123.777 168.553C124.715 169.277 125.689 169.966 126.67 170.685C128.721 169.541 131.248 169.162 132.748 167.268C132.238 166.906 131.782 166.627 131.387 166.294C130.404 165.466 129.254 165.465 128.048 165.779C124.363 166.739 120.687 167.725 117 168.68C113.116 169.727 109.076 170.299 105.001 170.38C101.566 170.419 98.1329 170.208 94.7398 169.75C91.9817 169.38 89.2114 169.007 86.5073 168.43C81.8939 167.446 77.7542 165.54 73.8002 163.333C73.5139 163.174 73.2186 163.026 72.8724 162.843C71.5938 164.299 70.3551 165.709 69.0558 167.189C72.3218 168.478 75.4512 169.714 78.5861 170.951C79.408 170.284 80.1402 169.675 80.8922 169.083C81.5961 168.53 82.2052 168.445 83.0028 168.89C83.4697 169.154 83.8676 169.497 84.1715 169.897C84.5059 170.392 84.783 170.912 84.9987 171.452C85.6359 172.889 86.5333 174.232 87.6585 175.434C88.6154 176.439 90.3492 177.168 91.4847 177.105C91.3527 175.698 91.6234 174.285 92.2738 172.986C92.4423 172.687 92.6779 172.419 92.9673 172.197C93.4727 171.776 94.0056 171.379 94.5635 171.009C94.7601 170.883 94.9852 170.792 95.2249 170.742C95.4645 170.692 95.7136 170.685 95.9568 170.72C96.1999 170.756 96.4319 170.833 96.6384 170.948C96.8449 171.062 97.0215 171.212 97.1572 171.387C98.0199 172.487 98.8745 173.593 99.6961 174.716C100.487 175.796 100.43 176.252 99.5007 177.232C98.7501 178.023 98.0011 178.813 97.2538 179.602C101.016 182.444 105.276 181.399 106.787 179.374C106.24 178.632 105.709 177.852 105.108 177.114C104.504 176.371 104.538 175.681 105.103 174.942C105.951 173.833 106.759 172.703 107.587 171.583C107.694 171.427 107.816 171.279 107.95 171.139C108.496 170.605 109.067 170.563 109.665 171.048C111.048 172.168 112.425 173.294 113.781 174.438C114.387 174.948 114.408 175.234 113.983 175.873C113.831 176.052 113.731 176.259 113.691 176.476C113.651 176.694 113.673 176.917 113.753 177.126Z" fill="#4D4F4D"/>
<path d="M168.654 57.2237C167.894 59.6783 167.514 62.2619 165.39 64.3225C167.65 65.4009 169.901 66.1544 172.536 65.6078C172.591 65.3382 172.622 65.0654 172.628 64.7919C172.41 61.6823 173.304 58.7812 174.879 56.0034C175.032 55.7333 175.122 55.4361 175.288 55.1725C175.544 54.7449 175.833 54.3317 176.153 53.9356C176.885 53.0633 177.833 52.6874 179.061 53.1172C179.905 55.2567 179.641 57.3941 179.248 59.5481C178.873 61.9255 177.499 64.1079 175.378 65.6933C174.778 66.1454 174.279 66.6945 173.584 67.3369C176.873 68.0398 179.968 68.7014 183.197 69.3915C183.197 68.9372 183.205 68.6119 183.196 68.287C183.11 66.4234 183.382 64.5604 184 62.7707C184.587 61.1346 184.95 59.44 185.545 57.8064C186.198 56.0166 186.235 54.2058 186.161 52.3678C186.164 52.0206 186.062 51.6786 185.865 51.3743C185.668 51.0699 185.383 50.8133 185.036 50.6289C184.023 50.0101 182.81 49.6715 181.562 49.6591C180.506 49.6734 179.449 49.662 178.527 49.662C178.086 48.8215 177.718 48.1196 177.311 47.3448C174.394 47.9493 171.592 48.5297 168.696 49.1295C168.879 49.4556 169.082 49.7735 169.304 50.0819C170.044 50.9931 170.109 51.9629 169.8 53.0105C169.387 54.4083 169.086 55.8303 168.654 57.2237Z" fill="#4D4F4D"/>
<path d="M76.3591 41.9293C75.9598 42.0629 75.5709 42.2181 75.1949 42.3939C74.6244 42.6962 74.0767 43.0287 73.5553 43.3892C72.8004 43.9469 71.8405 44.2643 70.8401 44.287C70.0003 44.3036 69.1596 44.2903 68.2219 44.2903C68.3892 45.7636 68.8038 47.209 69.4531 48.5827C69.7896 49.2431 70.0793 49.9235 70.3373 50.6093C70.9057 52.0972 71.7108 53.5124 72.7301 54.8155C73.409 55.6941 74.1338 56.5475 74.8539 57.4026C75.662 58.3623 75.6321 58.9752 74.5856 59.7589C73.6845 60.4337 72.7235 61.0525 71.7664 61.6711C71.4189 61.8782 71.0478 62.0554 70.6588 62.1998C70.332 62.3584 69.95 62.4148 69.5793 62.3591C69.2086 62.3035 68.8726 62.1393 68.6298 61.8951C68.3851 61.678 68.1433 61.4564 67.8771 61.2594C67.2161 60.7705 66.9459 60.7946 66.3927 61.3509C65.5709 62.1773 64.7389 62.9965 63.9225 63.8267C62.997 64.7951 62.2572 65.8815 61.7305 67.0456C61.8976 67.0757 62.0681 67.0907 62.239 67.0902C64.4745 66.7906 66.7144 66.5108 68.9414 66.1705C70.5232 65.9516 72.0184 65.409 73.2977 64.5895C75.8829 62.8869 78.2717 60.9866 80.0217 58.6298C81.0314 57.27 81.7586 55.7471 82.4954 54.2558C83.8949 51.5218 84.7192 48.6008 84.9308 45.6253C84.9763 44.8458 85.125 44.1499 85.718 43.5403C85.8307 43.3727 85.9187 43.1941 85.9801 43.0084C84.0485 43.3372 82.2603 43.6416 80.3627 43.9646C80.3835 46.8883 80.5385 49.7701 79.1389 52.6087C78.4374 52.0599 77.6401 51.6856 77.288 51.1138C76.2353 49.4041 75.4028 47.6273 75.9971 45.5983C76.4046 44.408 76.5277 43.1606 76.3591 41.9293Z" fill="#4D4F4D"/>
<path d="M128.293 51.5555C129.12 51.2134 129.938 50.8517 130.728 50.4528C132.551 49.5323 134.347 48.5731 136.172 47.6543C136.426 47.5505 136.627 47.373 136.74 47.1538C136.853 46.9346 136.87 46.6883 136.788 46.4595C136.582 45.5764 136.403 44.6881 136.244 43.7979C136.137 43.2322 135.895 42.6909 135.532 42.2076C135.169 41.7242 134.694 41.309 134.135 40.9873C133.766 40.7549 133.369 40.5518 133.014 40.3042C131.636 39.3416 130.083 39.1925 128.411 39.5592C126.042 40.0785 124.048 41.0997 122.988 43.0141C122.181 44.456 121.675 46.006 121.494 47.5949C121.307 49.7535 121.311 51.921 121.506 54.0791C121.568 55.2625 122.16 56.3811 123.161 57.207C124.494 58.3511 126.278 59.0359 128.171 59.1294C131.788 59.3801 134.614 57.4141 135.722 55.4513C136.382 54.2829 136.335 53.0634 136.007 51.8373C135.911 51.6192 135.787 51.4108 135.636 51.2161C134.277 51.7108 133.221 52.299 132.648 53.3974C132.253 54.1685 131.807 54.9205 131.314 55.6498C130.657 56.6066 129.804 56.722 128.915 55.9067C127.901 54.977 127.321 53.8562 127.495 52.537C127.509 52.3269 127.591 52.1242 127.732 51.951C127.873 51.7779 128.067 51.641 128.293 51.5555ZM127.547 45.9325C127.668 44.7166 128.625 43.8859 129.813 43.7283C130.054 43.6772 130.307 43.6859 130.542 43.7534C130.777 43.8209 130.984 43.9443 131.139 44.1089C131.838 44.8357 132.482 45.5501 132.465 46.5783C132.454 47.1938 132.32 47.6863 131.747 48.0843C130.555 48.9325 129.075 49.435 127.522 49.5182C127.522 48.2581 127.432 47.0879 127.547 45.9325Z" fill="#4D4F4D"/>
<path d="M139.411 57.6119C138.825 57.909 138.2 58.1507 137.58 58.4226C139.936 59.9341 146.094 60.4394 148.513 59.3144C148.358 58.7216 147.738 58.418 147.313 58.0062C146.782 57.5569 146.465 56.9575 146.421 56.3223C146.346 53.2198 146.48 50.1327 147.404 47.1072C147.469 46.8739 147.562 46.6469 147.683 46.4301C147.881 46.095 148.236 46.0136 148.554 46.2572C148.86 46.5006 149.117 46.7849 149.315 47.0987C149.616 47.5619 149.85 48.0565 150.117 48.5456C152.298 48.103 153.9 47.1467 154.98 45.5887C156.323 43.653 155.177 41.7499 152.572 41.5762C152.043 41.5409 151.512 41.5214 150.981 41.5037C149.642 41.4591 148.382 41.2537 147.419 40.3577C147.25 40.199 147.021 40.0962 146.771 40.0674C146.522 40.0386 146.268 40.0856 146.056 40.2002C145.738 40.332 145.432 40.4832 145.141 40.6527C143.708 41.4829 142.28 42.3178 140.855 43.1575C140.422 43.4109 139.993 43.6679 139.512 43.9526C139.978 44.5962 140.435 45.1674 140.813 45.7736C141.02 46.0807 141.134 46.4267 141.144 46.7803C141.037 49.7237 140.866 52.6654 140.767 55.609C140.777 56.016 140.655 56.4175 140.417 56.7704C140.178 57.1233 139.83 57.4142 139.411 57.6119Z" fill="#4D4F4D"/>
<path d="M94.9898 33.0362C93.3576 33.11 91.9035 33.3044 91.1543 34.7175C90.9373 35.1267 90.6371 35.5036 90.3867 35.9005C89.7282 37.0469 88.6021 37.9516 87.2175 38.4467C86.9746 38.5652 86.7496 38.7082 86.5471 38.8725C87.3148 39.6871 88.5007 39.6074 89.3881 40.1752C89.2001 40.4274 88.9712 40.656 88.7083 40.8543C88.0878 41.1965 87.9795 41.6615 87.9854 42.2423C88.0112 44.7954 88.012 47.3487 87.9878 49.9021C87.9782 50.5965 88.2336 51.2749 88.7158 51.8359C89.0366 52.2235 89.3433 52.6195 89.6468 53C89.4141 53.3836 89.2259 53.7055 89.0255 54.0218C88.6138 54.6569 88.4883 55.3974 88.6725 56.1052C88.8567 56.813 89.338 57.4397 90.0266 57.8684C90.6395 58.2647 91.22 58.4539 91.943 58.0346C92.4291 57.7891 92.9308 57.5663 93.4457 57.3673C95.4727 56.4525 96.9611 55.0641 98.1654 53.4408C98.3877 53.1364 98.5323 52.7959 98.5899 52.4412C98.6557 52.0197 98.2871 51.8315 97.8399 52.0238C97.5646 52.1591 97.3002 52.3099 97.0486 52.4752C96.3898 52.8608 95.7317 53.2471 94.8953 53.7374C94.75 52.9285 94.5373 52.285 94.535 51.6409C94.5227 48.2772 94.559 44.9134 94.5902 41.5497C94.591 40.8423 94.8099 40.1473 95.225 39.5339C95.7513 39.5339 96.2828 39.5615 96.809 39.5279C97.8203 39.4634 98.2083 39.0781 98.043 38.2203C97.9198 37.5813 97.6667 36.9603 97.4776 36.351C96.4292 36.2095 95.4454 36.3935 94.4867 35.9503C95.318 35.0471 95.0345 34.0673 94.9898 33.0362Z" fill="#4D4F4D"/>
<path d="M57.5222 37.8377C57.8007 38.1187 58.0965 38.3871 58.4084 38.6416C58.6839 38.8486 58.9011 39.1054 59.0441 39.3932C59.1871 39.6809 59.2521 39.9922 59.2345 40.3041C59.3065 42.4364 59.41 44.5708 59.618 46.6961C59.9451 49.7198 60.0933 52.7555 60.0618 55.7918C60.0351 57.0979 59.8257 58.3643 59.1236 59.5479C59.0068 59.7925 58.9089 60.0433 58.8306 60.2988C62.1924 59.5421 65.461 59.0291 68.6581 57.8669C68.1542 57.3077 67.7299 56.7981 67.2578 56.3225C66.6155 55.6776 66.1386 54.9261 65.8575 54.116C65.41 52.9111 65.1742 51.6567 65.1576 50.3934C65.176 45.1016 65.1653 39.8097 65.1652 34.5178V33.4423C61.9412 34.179 59.2691 35.3782 57.5222 37.8377Z" fill="#4D4F4D"/>
<path d="M53.1862 105.654C53.5984 105.207 53.9796 104.74 54.3968 104.256C52.2147 101.531 49.6637 99.1198 46.9471 96.6881C45.9771 98.4526 45.1003 100.091 44.1723 101.709C44.0405 101.9 43.9801 102.12 43.9991 102.341C44.018 102.562 44.1154 102.773 44.2784 102.946C45.3773 104.346 46.4288 105.774 47.4891 107.196C47.7727 107.576 48.0364 107.968 48.285 108.366C48.4657 108.625 48.5517 108.925 48.532 109.225C48.5124 109.526 48.388 109.816 48.1746 110.057C46.9217 111.658 45.755 113.31 44.4741 114.895C44.1389 115.266 43.9361 115.71 43.8898 116.176C43.8435 116.642 43.9558 117.109 44.2132 117.522C44.8671 118.688 45.4932 119.869 46.2299 120.998C47.2962 122.631 47.3879 124.219 46.3227 125.882C45.601 127.009 45.0039 128.193 44.3489 129.356C45.9285 131.089 47.4594 132.769 49.0425 134.506C50.2626 133.595 51.398 132.748 52.5965 131.854C50.9675 129.948 49.5828 127.9 48.4659 125.745C47.9563 124.753 47.6281 123.7 47.4927 122.624C47.1912 120.445 47.5438 118.308 47.9616 116.17C48.7158 112.311 50.3233 108.759 53.1862 105.654Z" fill="#4D4F4D"/>
<path d="M157.408 51.1436C157.376 51.8023 157.238 52.4544 156.999 53.0815C156.266 54.8038 155.423 56.4924 154.655 58.2041C154.268 59.066 153.947 59.9492 153.569 60.8894C156.542 61.8124 159.325 62.9204 162.676 62.8995C162.46 62.6032 162.262 62.2977 162.083 61.9842C161.881 61.6741 161.756 61.3322 161.716 60.9795C161.741 59.78 161.855 58.5831 162.059 57.396C162.576 54.8402 163.664 52.4217 164.714 49.9956C165.164 48.9563 165.515 47.8835 165.846 46.8116C165.953 46.4661 165.854 46.0747 165.847 45.5812C163 46.2403 160.354 46.9704 157.613 47.0589C157.545 48.5106 157.516 49.8295 157.408 51.1436Z" fill="#4D4F4D"/>
<path d="M98.1896 153.158C97.8983 153.592 97.6203 154.033 97.2912 154.54C100.347 155.74 103.342 155.838 106.525 155.003C106.267 154.703 106.092 154.483 105.897 154.275C104.771 153.077 103.636 151.886 102.515 150.684C102.184 150.369 101.995 149.964 101.982 149.542C101.969 149.119 102.133 148.707 102.444 148.377C103.657 146.934 104.88 145.497 106.092 144.053C106.25 143.865 106.37 143.655 106.508 143.457C105.315 142.477 104.194 141.518 103.021 140.607C102.218 139.984 101.604 140.003 100.767 140.574C99.7185 141.29 98.6742 142.01 97.6343 142.734C97.2873 142.975 96.9489 143.224 96.5984 143.476C97.5789 144.982 98.48 146.411 99.4328 147.815C100.247 149.015 100.298 150.179 99.4179 151.366C98.9847 151.951 98.5924 152.557 98.1896 153.158Z" fill="#4D4F4D"/>
<path d="M134.359 111.97C136.176 113.562 138.038 115.193 139.977 116.892C140.777 116.096 141.502 115.375 142.266 114.615C140.738 112.706 139.256 110.854 137.843 109.089C136.661 110.066 135.538 110.995 134.359 111.97Z" fill="#4D4F4D"/>
<path d="M162.462 44.1034C163.688 43.6374 164.782 42.9525 165.668 42.0955C165.819 41.9683 165.911 41.8004 165.931 41.621C165.95 41.4416 165.895 41.2622 165.774 41.1139C165.166 40.1702 164.605 39.204 164.016 38.2511C163.899 38.103 163.768 37.9634 163.624 37.8335C162.467 38.3845 161.36 38.9643 160.593 39.8776C160.308 40.2244 160.138 40.6295 160.099 41.051C160.06 41.4725 160.155 41.8951 160.373 42.2752C160.712 42.833 161.108 43.365 161.555 43.8652C161.594 43.9325 161.65 43.9923 161.718 44.0409C161.785 44.0896 161.864 44.1262 161.948 44.1484C162.033 44.1707 162.122 44.1782 162.211 44.1704C162.299 44.1627 162.384 44.1399 162.462 44.1034Z" fill="#4D4F4D"/>
<path d="M129.665 77.4194C131.92 77.46 134.177 77.4296 136.515 77.4296C136.103 76.0651 135.858 75.7642 134.68 75.0255C132.499 73.6571 130.096 73.639 127.615 74.2083C127.18 74.3508 126.765 74.535 126.38 74.7575C126.556 76.174 128.048 77.3902 129.665 77.4194Z" fill="#4D4F4D"/>
</g>
<defs>
<clipPath id="clip0_316_67">
<rect width="200" height="200" fill="white"/>
</clipPath>
</defs>
</svg>
